<svg preserveAspectRatio="none" width="100%" height="100%" overflow="visible" style="display: block;" viewBox="0 0 25 24.3906" fill="none" xmlns="http://www.w3.org/2000/svg">
<g id="svg935390158_2012" clip-path="url(#clip0_0_17)">
<path id="Vector" d="M8.36189 19.6233C8.36189 19.7241 8.24597 19.8048 8.0998 19.8048C7.93347 19.8199 7.81754 19.7393 7.81754 19.6233C7.81754 19.5226 7.93347 19.4419 8.07964 19.4419C8.23085 19.4268 8.36189 19.5074 8.36189 19.6233ZM6.79436 19.3966C6.75907 19.4974 6.85988 19.6133 7.01109 19.6435C7.14214 19.6939 7.29335 19.6435 7.32359 19.5427C7.35383 19.4419 7.25806 19.326 7.10685 19.2807C6.97581 19.2454 6.82964 19.2958 6.79436 19.3966ZM9.02218 19.3109C8.87601 19.3462 8.7752 19.4419 8.79032 19.5578C8.80544 19.6586 8.93649 19.7241 9.0877 19.6889C9.23387 19.6536 9.33468 19.5578 9.31956 19.457C9.30444 19.3613 9.16835 19.2958 9.02218 19.3109ZM12.3387 0C5.34778 0 0 5.30647 0 12.2961C0 17.8848 3.51815 22.6671 8.54335 24.3503C9.18851 24.4662 9.41532 24.0681 9.41532 23.7405C9.41532 23.4281 9.4002 21.7046 9.4002 20.6463C9.4002 20.6463 5.87198 21.4022 5.13105 19.1446C5.13105 19.1446 4.55645 17.6781 3.72984 17.3002C3.72984 17.3002 2.5756 16.509 3.81048 16.5241C3.81048 16.5241 5.06552 16.6249 5.75605 17.8243C6.85988 19.7695 8.70968 19.2101 9.43044 18.8775C9.54637 18.0712 9.87399 17.5118 10.2369 17.1792C7.41936 16.8668 4.57661 16.4586 4.57661 11.6107C4.57661 10.2249 4.95968 9.52947 5.76613 8.64254C5.63508 8.31498 5.20665 6.96442 5.89718 5.2208C6.9506 4.89324 9.375 6.58143 9.375 6.58143C10.3831 6.29923 11.4667 6.15308 12.5403 6.15308C13.6139 6.15308 14.6976 6.29923 15.7056 6.58143C15.7056 6.58143 18.13 4.8882 19.1835 5.2208C19.874 6.96946 19.4456 8.31498 19.3145 8.64254C20.121 9.53451 20.6149 10.2299 20.6149 11.6107C20.6149 16.4737 17.6462 16.8618 14.8286 17.1792C15.2923 17.5774 15.6855 18.3333 15.6855 19.5175C15.6855 21.2158 15.6704 23.3172 15.6704 23.7304C15.6704 24.058 15.9022 24.4561 16.5423 24.3402C21.5827 22.6671 25 17.8848 25 12.2961C25 5.30647 19.3296 0 12.3387 0ZM4.89919 17.3808C4.83367 17.4312 4.84879 17.5471 4.93448 17.6429C5.01512 17.7235 5.13105 17.7588 5.19657 17.6933C5.2621 17.6429 5.24698 17.527 5.16129 17.4312C5.08065 17.3506 4.96472 17.3153 4.89919 17.3808ZM4.35484 16.9726C4.31956 17.0381 4.36996 17.1188 4.47077 17.1692C4.55141 17.2196 4.65222 17.2044 4.6875 17.1339C4.72278 17.0684 4.67238 16.9878 4.57157 16.9374C4.47077 16.9071 4.39012 16.9222 4.35484 16.9726ZM5.9879 18.7667C5.90726 18.8322 5.9375 18.9833 6.05343 19.0791C6.16935 19.195 6.31552 19.2101 6.38105 19.1295C6.44657 19.064 6.41633 18.9128 6.31552 18.817C6.20464 18.7011 6.05343 18.686 5.9879 18.7667ZM5.41331 18.0259C5.33266 18.0763 5.33266 18.2073 5.41331 18.3232C5.49395 18.4391 5.63004 18.4895 5.69556 18.4391C5.77621 18.3736 5.77621 18.2426 5.69556 18.1267C5.625 18.0107 5.49395 17.9604 5.41331 18.0259Z" fill="var(--fill-0, white)"/>
</g>
<defs>
<clipPath id="clip0_0_17">
<rect width="25" height="24.3906" fill="white"/>
</clipPath>
</defs>
</svg>
