<svg preserveAspectRatio="none" width="100%" height="100%" overflow="visible" style="display: block;" viewBox="0 0 24 24" fill="none" xmlns="http://www.w3.org/2000/svg">
<g id="svg9084717009">
<path id="Vector" d="M7.411 20.03V9.234H3.767V20.03H7.411ZM5.589 7.76C6.859 7.76 7.65 6.931 7.65 5.895C7.627 4.836 6.859 4.03 5.613 4.03C4.366 4.03 3.551 4.836 3.551 5.895C3.551 6.931 4.342 7.76 5.565 7.76H5.589ZM9.427 20.03H13.071V14.001C13.071 13.678 13.095 13.356 13.191 13.126C13.455 12.481 14.054 11.813 15.061 11.813C16.38 11.813 16.907 12.803 16.907 14.255V20.03H20.551V13.84C20.551 10.524 18.753 8.981 16.356 8.981C14.39 8.981 13.527 10.063 13.047 10.799H13.071V9.234H9.427C9.475 10.247 9.427 20.03 9.427 20.03Z" fill="var(--fill-0, #FFFFFE)"/>
</g>
</svg>
