<svg preserveAspectRatio="none" width="100%" height="100%" overflow="visible" style="display: block;" viewBox="0 0 156.596 40" fill="none" xmlns="http://www.w3.org/2000/svg">
<g id="image" clip-path="url(#clip0_0_17)">
<path id="Vector" d="M51.134 10.4047C51.5002 10.4047 51.8183 10.4777 52.0714 10.6328C52.3245 10.7889 52.5777 11.083 52.8218 11.5232L57.6589 20.3181C57.708 20.4162 57.716 20.4972 57.691 20.5633C57.6659 20.6283 57.5929 20.6603 57.4789 20.6603H55.619C55.456 20.6603 55.3419 20.5953 55.2849 20.4732L54.2484 18.5864H47.3713L46.3599 20.4732C46.2948 20.6033 46.1808 20.6603 46.0257 20.6603H44.1249C43.9948 20.6603 43.9218 20.6283 43.8967 20.5633C43.8727 20.4972 43.8807 20.4162 43.9288 20.3181L48.7339 11.5162C48.978 11.075 49.2151 10.7809 49.4523 10.6258C49.6894 10.4697 49.9575 10.3967 50.2676 10.3967H51.133V10.4057L51.134 10.4047ZM48.2867 16.8796H53.328L51.0029 12.5847C50.9619 12.5196 50.9129 12.4786 50.8399 12.4786H50.7498C50.6848 12.4786 50.6278 12.5106 50.5868 12.5847L48.2867 16.8796ZM68.3127 10.4047C69.4372 10.4047 70.2376 10.6578 70.7268 11.164C71.217 11.6703 71.4612 12.4216 71.4612 13.418V14.2514C71.4612 15.0918 71.2901 15.7531 70.9479 16.2433C70.6048 16.7335 70.0505 17.0437 69.2762 17.1817L71.7793 20.2851C71.8283 20.3341 71.8453 20.4072 71.8203 20.5052C71.8043 20.6023 71.7223 20.6523 71.5832 20.6523H69.6994C69.5683 20.6523 69.4873 20.6363 69.4372 20.6113C69.3882 20.5793 69.3402 20.5292 69.2912 20.4642L66.9751 17.4178H62.244V20.3331C62.244 20.5452 62.138 20.6523 61.9259 20.6523H60.3432C60.115 20.6523 60.009 20.5452 60.009 20.3331V10.8449C60.009 10.5507 60.1561 10.4037 60.4492 10.4037L68.3127 10.4047ZM62.251 15.631H67.8555C68.3528 15.631 68.7049 15.525 68.908 15.3119C69.1121 15.0998 69.2181 14.7736 69.2181 14.3324V13.7202C69.2181 13.279 69.1121 12.9528 68.908 12.7407C68.7049 12.5276 68.3528 12.4216 67.8555 12.4216H62.4401C62.309 12.4216 62.252 12.4786 62.252 12.6007L62.251 15.631ZM83.7047 10.4047C84.7071 10.4047 85.4254 10.6088 85.8496 11.009C86.2748 11.4091 86.4869 12.0134 86.4869 12.8218V13.5241C86.4869 14.3415 86.1768 14.9617 85.5485 15.3859C86.2178 15.7781 86.5609 16.4064 86.5609 17.2718V18.1222C86.5609 18.5133 86.5199 18.8655 86.4299 19.1756C86.3398 19.4858 86.2018 19.7549 85.9977 19.976C85.7946 20.1961 85.5325 20.3672 85.1983 20.4822C84.8642 20.5973 84.456 20.6613 83.9668 20.6613H75.2709C74.9777 20.6613 74.8307 20.5142 74.8307 20.2201V10.8469C74.8307 10.5527 74.9777 10.4057 75.2709 10.4057H83.7057L83.7047 10.4047ZM77.0727 14.6676H83.0764C83.5656 14.6676 83.8917 14.5946 84.0708 14.4475C84.2499 14.3004 84.3319 14.0883 84.3319 13.8022V13.305C84.3319 13.0018 84.2509 12.7818 84.0798 12.6347C83.9078 12.4966 83.6306 12.4226 83.2555 12.4226H77.2678C77.1377 12.4226 77.0807 12.4876 77.0807 12.6107V14.6686H77.0717L77.0727 14.6676ZM77.0727 16.2593V18.4393C77.0727 18.5704 77.1387 18.6274 77.2608 18.6274H83.2635C83.6546 18.6274 83.9328 18.5543 84.0958 18.4153C84.2589 18.2762 84.3489 18.0481 84.3489 17.737V17.1807C84.3489 16.8786 84.2589 16.6505 84.0798 16.4954C83.9007 16.3404 83.5656 16.2583 83.0764 16.2583H77.0727V16.2593ZM92.0174 10.4047C92.2295 10.4047 92.3355 10.5107 92.3355 10.7228V20.3341C92.3355 20.5462 92.2295 20.6533 92.0174 20.6533H90.4347C90.2066 20.6533 90.1005 20.5462 90.1005 20.3341V10.7228C90.1005 10.5107 90.2156 10.4047 90.4347 10.4047H92.0174ZM107.352 10.4047C107.58 10.4047 107.686 10.5107 107.686 10.7228V12.1605C107.686 12.3886 107.572 12.4946 107.352 12.4946H102.759V20.3331C102.759 20.5452 102.653 20.6523 102.441 20.6523H100.842C100.63 20.6523 100.524 20.5452 100.524 20.3331V12.4946H95.9312C95.7031 12.4946 95.597 12.3796 95.597 12.1605V10.7228C95.597 10.5107 95.7121 10.4047 95.9312 10.4047H107.352ZM118.927 10.4047C120.052 10.4047 120.851 10.6578 121.342 11.164C121.831 11.6703 122.076 12.4216 122.076 13.418V14.2514C122.076 15.0918 121.904 15.7531 121.562 16.2433C121.22 16.7335 120.665 17.0437 119.89 17.1817L122.394 20.2851C122.443 20.3341 122.459 20.4072 122.435 20.5052C122.418 20.6023 122.337 20.6523 122.198 20.6523H120.313C120.183 20.6523 120.101 20.6363 120.052 20.6113C120.003 20.5793 119.955 20.5292 119.905 20.4642L117.589 17.4178H112.858V20.3331C112.858 20.5452 112.752 20.6523 112.54 20.6523H110.958C110.73 20.6523 110.624 20.5452 110.624 20.3331V10.8449C110.624 10.5507 110.77 10.4037 111.064 10.4037H118.928L118.927 10.4047ZM112.874 15.631H118.478C118.976 15.631 119.328 15.525 119.531 15.3119C119.735 15.0998 119.841 14.7736 119.841 14.3324V13.7202C119.841 13.279 119.735 12.9528 119.531 12.7407C119.328 12.5276 118.976 12.4216 118.478 12.4216H113.063C112.932 12.4216 112.875 12.4786 112.875 12.6007L112.874 15.631ZM127.157 10.4047C127.369 10.4047 127.475 10.5107 127.475 10.7228V16.5695C127.475 16.9616 127.507 17.2888 127.573 17.5419C127.638 17.803 127.744 18.0071 127.892 18.1542C128.038 18.3092 128.234 18.4163 128.487 18.4723C128.74 18.5383 129.05 18.5704 129.433 18.5704H133.487C133.87 18.5704 134.18 18.5383 134.433 18.4723C134.687 18.4073 134.883 18.3012 135.03 18.1542C135.176 17.9991 135.282 17.795 135.339 17.5419C135.396 17.2798 135.429 16.9626 135.429 16.5695V10.7228C135.429 10.5107 135.535 10.4047 135.747 10.4047H137.347C137.559 10.4047 137.665 10.5107 137.665 10.7228V16.7906C137.665 17.4929 137.592 18.0891 137.445 18.5864C137.298 19.0766 137.062 19.4768 136.736 19.7869C136.409 20.097 135.985 20.3181 135.463 20.4562C134.941 20.5953 134.313 20.6603 133.57 20.6603H129.353C128.61 20.6603 127.983 20.5953 127.468 20.4562C126.955 20.3181 126.531 20.097 126.204 19.7869C125.879 19.4768 125.642 19.0766 125.486 18.5864C125.33 18.0961 125.257 17.4919 125.257 16.7906V10.7228C125.257 10.5107 125.372 10.4047 125.593 10.4047H127.157ZM143.952 10.4047C144.164 10.4047 144.352 10.4207 144.507 10.4457C144.663 10.4777 144.801 10.5267 144.915 10.6168C145.03 10.6988 145.135 10.8139 145.233 10.9519C145.323 11.09 145.421 11.2781 145.518 11.5152L148.562 18.5453C148.603 18.6354 148.668 18.6764 148.766 18.6764H148.944C149.042 18.6764 149.107 18.6354 149.148 18.5453L152.19 11.5152C152.289 11.2781 152.387 11.09 152.476 10.9519C152.566 10.8139 152.672 10.6988 152.795 10.6168C152.909 10.5357 153.047 10.4787 153.194 10.4457C153.35 10.4137 153.528 10.4047 153.741 10.4047H155.307C155.812 10.4047 156.155 10.5197 156.334 10.7478C156.513 10.9769 156.596 11.3681 156.596 11.9234V20.3341C156.596 20.5462 156.481 20.6533 156.261 20.6533H154.769C154.557 20.6533 154.45 20.5462 154.45 20.3341V12.6837C154.45 12.5857 154.409 12.5366 154.335 12.5366H154.205C154.107 12.5366 154.042 12.5777 154.017 12.6507L151.065 19.2166C150.95 19.4778 150.828 19.7069 150.706 19.8859C150.584 20.065 150.453 20.2121 150.315 20.3351C150.174 20.4522 150.01 20.5392 149.833 20.5883C149.654 20.6373 149.442 20.6613 149.196 20.6613H148.495C148.25 20.6613 148.038 20.6363 147.858 20.5883C147.678 20.5392 147.515 20.4572 147.376 20.3351C147.238 20.2201 147.099 20.066 146.985 19.8859C146.863 19.7069 146.741 19.4858 146.626 19.2166L143.674 12.6507C143.642 12.5697 143.584 12.5366 143.486 12.5366H143.356C143.273 12.5366 143.24 12.5857 143.24 12.6837V20.3341C143.24 20.5462 143.134 20.6533 142.922 20.6533H141.43C141.202 20.6533 141.094 20.5462 141.094 20.3341V11.9234C141.094 11.3681 141.185 10.9769 141.357 10.7478C141.536 10.5197 141.879 10.4047 142.393 10.4047H143.952ZM49.4492 23.6907C49.8764 23.6907 50.2416 23.7307 50.5417 23.8127C50.8429 23.8938 51.087 24.0238 51.2761 24.2019C51.4642 24.379 51.6002 24.6081 51.6853 24.8902C51.7693 25.1713 51.8123 25.5145 51.8123 25.9207V27.3733C51.8123 27.7785 51.7703 28.1237 51.6853 28.4078C51.6002 28.6929 51.4642 28.923 51.2761 29.1001C51.087 29.2772 50.8429 29.4052 50.5417 29.4843C50.2406 29.5633 49.8764 29.6033 49.4492 29.6033H46.8421C46.4149 29.6033 46.0517 29.5633 45.7536 29.4843C45.4555 29.4052 45.2123 29.2772 45.0243 29.1001C44.8362 28.923 44.6971 28.6929 44.6111 28.4078C44.524 28.1237 44.481 27.7785 44.481 27.3733V25.9207C44.481 25.5155 44.524 25.1713 44.6111 24.8902C44.6981 24.6081 44.8362 24.379 45.0243 24.2019C45.2123 24.0238 45.4555 23.8948 45.7536 23.8127C46.0517 23.7307 46.4149 23.6907 46.8421 23.6907H49.4492ZM45.7706 27.2793C45.7706 27.4994 45.7886 27.6835 45.8256 27.8325C45.8616 27.9816 45.9227 28.0996 46.0077 28.1867C46.0917 28.2747 46.2058 28.3368 46.3499 28.3728C46.4929 28.4098 46.675 28.4278 46.8941 28.4278H49.4002C49.6183 28.4278 49.8004 28.4098 49.9435 28.3728C50.0865 28.3368 50.2016 28.2747 50.2856 28.1867C50.3697 28.0996 50.4307 27.9816 50.4677 27.8325C50.5037 27.6835 50.5227 27.4984 50.5227 27.2793V26.0127C50.5227 25.7926 50.5047 25.6085 50.4677 25.4595C50.4307 25.3104 50.3707 25.1923 50.2856 25.1053C50.2016 25.0183 50.0875 24.9562 49.9435 24.9192C49.8004 24.8832 49.6183 24.8642 49.4002 24.8642H46.8941C46.675 24.8642 46.4939 24.8832 46.3499 24.9192C46.2068 24.9562 46.0917 25.0183 46.0077 25.1053C45.9237 25.1923 45.8626 25.3114 45.8256 25.4595C45.7886 25.6085 45.7706 25.7936 45.7706 26.0127V27.2793ZM58.4843 23.6907C59.1316 23.6907 59.5958 23.8377 59.8769 24.1289C60.1591 24.422 60.2991 24.8562 60.2991 25.4304V25.9117C60.2991 26.3969 60.2001 26.779 60.003 27.0602C59.8059 27.3423 59.4858 27.5224 59.0416 27.6014L60.4842 29.3912C60.5132 29.4202 60.5202 29.4613 60.5102 29.5183C60.4992 29.5743 60.4542 29.6033 60.3752 29.6033H59.2867C59.2146 29.6033 59.1626 29.5943 59.1356 29.5773C59.1076 29.5603 59.0796 29.5323 59.0516 29.4933L57.718 27.7355H54.9927V29.4162C54.9927 29.5393 54.9317 29.6023 54.8077 29.6023H53.8963C53.7662 29.6023 53.7022 29.5403 53.7022 29.4162V23.9438C53.7022 23.7747 53.7862 23.6907 53.9543 23.6907H58.4843ZM54.9917 26.706H58.2232C58.5103 26.706 58.7134 26.644 58.8305 26.5199C58.9485 26.3969 59.0075 26.2078 59.0075 25.9537V25.5995C59.0075 25.3464 58.9485 25.1573 58.8305 25.0333C58.7124 24.9102 58.5093 24.8472 58.2232 24.8472H55.1018C55.0288 24.8472 54.9917 24.8812 54.9917 24.9482V26.706ZM67.2933 23.6907C67.8715 23.6907 68.2837 23.8057 68.5288 24.0368C68.7739 24.2679 68.896 24.6171 68.896 25.0833V25.4885C68.896 25.9617 68.7159 26.3188 68.3558 26.561C68.7439 26.7851 68.938 27.1482 68.938 27.6504V28.1407C68.938 28.3658 68.913 28.5679 68.863 28.7489C68.813 28.929 68.7289 29.0821 68.6139 29.2081C68.4978 29.3352 68.3448 29.4322 68.1537 29.4993C67.9626 29.5673 67.7265 29.6013 67.4453 29.6013H62.4341C62.266 29.6013 62.181 29.5163 62.181 29.3482V23.9428C62.181 23.7737 62.266 23.6897 62.4341 23.6897H67.2943L67.2933 23.6907ZM63.4716 26.1478H66.9301C67.2112 26.1478 67.4033 26.1067 67.5044 26.0207C67.6054 25.9367 67.6554 25.8136 67.6554 25.6495V25.3624C67.6554 25.1873 67.6064 25.0593 67.5084 24.9782C67.4093 24.8962 67.2503 24.8562 67.0312 24.8562H63.5806C63.5076 24.8562 63.4706 24.8932 63.4706 24.9662L63.4716 26.1478ZM63.4716 27.0692V28.3277C63.4716 28.4008 63.5076 28.4378 63.5816 28.4378H67.0402C67.2643 28.4378 67.4253 28.3968 67.5214 28.3147C67.6174 28.2337 67.6644 28.1026 67.6644 27.9226V27.6014C67.6644 27.4263 67.6124 27.2943 67.5084 27.2042C67.4033 27.1142 67.2112 27.0702 66.9301 27.0702H63.4716V27.0692ZM71.8823 23.6907C72.0064 23.6907 72.0684 23.7517 72.0684 23.8757V29.4162C72.0684 29.5393 72.0064 29.6023 71.8823 29.6023H70.9709C70.8419 29.6023 70.7768 29.5403 70.7768 29.4162V23.8757C70.7768 23.7517 70.8419 23.6907 70.9709 23.6907H71.8823ZM80.4552 23.6907C80.5843 23.6907 80.6493 23.7517 80.6493 23.8757V24.7041C80.6493 24.8342 80.5853 24.8982 80.4552 24.8982H77.805V29.4172C77.805 29.5403 77.744 29.6033 77.6199 29.6033H76.6995C76.5755 29.6033 76.5144 29.5413 76.5144 29.4172V24.8982H73.8642C73.7352 24.8982 73.6701 24.8342 73.6701 24.7041V23.8757C73.6701 23.7517 73.7352 23.6907 73.8642 23.6907H80.4552ZM33.8712 8.83798L19.3127 0.424191C18.3353 -0.141064 17.1207 -0.141064 16.1433 0.424191L1.58471 8.83798C0.607273 9.40323 0 10.4557 0 11.5862V28.4138C0 29.5443 0.607273 30.5968 1.58471 31.162L16.1433 39.5758C16.6325 39.8589 17.1797 40 17.728 40C18.2762 40 18.8245 39.8589 19.3127 39.5758L33.8712 31.162C34.8487 30.5968 35.456 29.5443 35.456 28.4138V11.5862C35.456 10.4557 34.8487 9.40323 33.8712 8.83798ZM18.0451 37.3758C17.85 37.4889 17.6089 37.4889 17.4128 37.3758L2.85428 28.963C2.6592 28.849 2.53814 28.6399 2.53814 28.4138V16.2673H17.729C18.6994 16.2673 19.5848 16.6395 20.2491 17.2518C20.9914 17.9341 21.4587 18.9135 21.4587 20C21.4587 21.0875 20.9914 22.0669 20.2491 22.7492H23.3595C23.7667 21.9189 23.9948 20.9854 23.9948 20C23.9948 19.0156 23.7667 18.0821 23.3595 17.2518C23.1904 16.9056 22.9903 16.5755 22.7602 16.2673C21.6177 14.7266 19.7879 13.7272 17.728 13.7272H2.53714V12.7437H17.728C20.3622 12.7437 22.6722 14.1584 23.9418 16.2673C24.1299 16.5805 24.2959 16.9086 24.436 17.2518C24.7852 18.0991 24.9772 19.0286 24.9772 20C24.9772 20.9724 24.7852 21.9009 24.436 22.7492H27.1242C27.3813 21.8678 27.5134 20.9444 27.5134 20C27.5134 17.3838 26.4959 14.9247 24.6471 13.0739C22.7993 11.224 20.3422 10.2056 17.728 10.2056H4.29393L17.4118 2.62518C17.6079 2.51213 17.849 2.51213 18.0441 2.62518L32.6027 11.038C32.7988 11.152 32.9188 11.3611 32.9198 11.5872V23.7337H17.728C16.7585 23.7337 15.8721 23.3615 15.2078 22.7492C14.4655 22.0669 13.9983 21.0875 13.9983 20C13.9983 18.9135 14.4655 17.9341 15.2078 17.2518H12.0974C11.6783 18.1071 11.4612 19.0476 11.4622 20C11.4622 23.4586 14.2734 26.2728 17.728 26.2728H32.9198V27.2573H17.728C13.7312 27.2573 10.4797 24.0018 10.4797 20C10.4797 19.0286 10.6718 18.1001 11.019 17.2518H8.33075C8.07363 18.1332 7.94157 19.0566 7.94157 20C7.94157 22.6172 8.95903 25.0763 10.8069 26.9271C12.6557 28.7769 15.1128 29.7964 17.726 29.7964H31.159L18.0431 37.3768L18.0451 37.3758Z" fill="#000000"/>
</g>
<defs>
<clipPath id="clip0_0_17">
<rect width="156.596" height="40" fill="white"/>
</clipPath>
</defs>
</svg>
