<svg preserveAspectRatio="none" width="100%" height="100%" overflow="visible" style="display: block;" viewBox="0 0 163.652 39.9997" fill="none" xmlns="http://www.w3.org/2000/svg">
<g id="Group">
<g id="Vector">
</g>
<path id="Vector_2" d="M132.39 33.593C132.093 33.513 131.816 33.371 131.576 33.178L131.883 32.49C132.099 32.656 132.342 32.784 132.601 32.868C132.876 32.965 133.165 33.014 133.456 33.015C133.811 33.015 134.075 32.958 134.249 32.844C134.329 32.799 134.395 32.734 134.441 32.655C134.487 32.576 134.511 32.486 134.511 32.395C134.513 32.332 134.501 32.268 134.476 32.21C134.45 32.152 134.413 32.1 134.365 32.058C134.258 31.964 134.131 31.893 133.994 31.85C133.844 31.8 133.64 31.743 133.381 31.68C133.082 31.612 132.787 31.526 132.499 31.421C132.275 31.336 132.075 31.197 131.918 31.015C131.748 30.805 131.662 30.54 131.677 30.27C131.674 30.014 131.748 29.764 131.891 29.552C132.052 29.321 132.277 29.142 132.538 29.038C132.874 28.9 133.235 28.834 133.598 28.844C133.887 28.844 134.176 28.88 134.455 28.952C134.714 29.015 134.961 29.121 135.184 29.266L134.905 29.953C134.699 29.833 134.48 29.74 134.251 29.675C134.036 29.612 133.814 29.58 133.59 29.578C133.24 29.578 132.98 29.637 132.81 29.755C132.731 29.805 132.666 29.875 132.621 29.957C132.576 30.039 132.554 30.132 132.555 30.225C132.553 30.288 132.566 30.351 132.591 30.408C132.616 30.466 132.654 30.517 132.701 30.558C132.81 30.651 132.936 30.721 133.073 30.764C133.223 30.813 133.427 30.87 133.686 30.933C133.982 30.998 134.272 31.083 134.557 31.189C134.781 31.276 134.979 31.415 135.138 31.594C135.307 31.801 135.394 32.063 135.38 32.33C135.383 32.585 135.308 32.834 135.165 33.045C135.002 33.274 134.776 33.452 134.514 33.556C134.176 33.693 133.814 33.759 133.449 33.749C133.09 33.75 132.734 33.697 132.39 33.593ZM139.388 33.483C139.28 33.568 139.156 33.631 139.024 33.667C138.877 33.708 138.724 33.729 138.571 33.728C138.171 33.728 137.863 33.624 137.644 33.414C137.425 33.205 137.318 32.901 137.318 32.502V30.751H136.719V30.073H137.318V29.237H138.169V30.068H139.143V30.745H138.169V32.475C138.159 32.622 138.206 32.767 138.299 32.881C138.398 32.979 138.534 33.03 138.673 33.02C138.845 33.027 139.013 32.974 139.15 32.87L139.388 33.483ZM144.636 30.043V33.681H143.826V33.217C143.688 33.382 143.513 33.511 143.315 33.595C143.107 33.685 142.881 33.73 142.654 33.728C142.168 33.728 141.786 33.593 141.507 33.322C141.228 33.052 141.089 32.652 141.088 32.121V30.043H141.94V32.005C141.94 32.332 142.013 32.576 142.161 32.737C142.325 32.905 142.555 32.994 142.791 32.979C142.925 32.985 143.059 32.964 143.184 32.915C143.309 32.866 143.422 32.792 143.516 32.696C143.695 32.507 143.784 32.236 143.785 31.882V30.042L144.636 30.043ZM150.333 28.627V33.681H149.516V33.206C149.378 33.377 149.199 33.51 148.995 33.593C148.778 33.682 148.545 33.726 148.31 33.723C147.981 33.728 147.656 33.648 147.367 33.492C147.09 33.34 146.862 33.112 146.71 32.834C146.547 32.535 146.465 32.198 146.472 31.857C146.465 31.517 146.547 31.181 146.71 30.883C146.863 30.607 147.09 30.381 147.367 30.229C147.656 30.072 147.981 29.993 148.31 29.998C148.536 29.995 148.761 30.037 148.971 30.12C149.168 30.2 149.343 30.326 149.481 30.488V28.627H150.333ZM148.964 32.86C149.128 32.766 149.262 32.627 149.352 32.461C149.446 32.275 149.495 32.07 149.495 31.862C149.495 31.653 149.446 31.448 149.352 31.262C149.262 31.096 149.128 30.958 148.964 30.864C148.795 30.772 148.605 30.724 148.413 30.724C148.22 30.724 148.03 30.772 147.861 30.864C147.697 30.958 147.563 31.096 147.474 31.262C147.379 31.448 147.33 31.653 147.33 31.862C147.33 32.07 147.38 32.275 147.474 32.461C147.563 32.627 147.697 32.766 147.861 32.86C148.205 33.046 148.62 33.046 148.964 32.86ZM152.513 29.297C152.412 29.203 152.355 29.071 152.356 28.933C152.355 28.795 152.412 28.663 152.513 28.569C152.617 28.471 152.756 28.418 152.9 28.422C153.042 28.418 153.181 28.468 153.287 28.562C153.337 28.605 153.378 28.659 153.405 28.72C153.432 28.78 153.445 28.846 153.444 28.913C153.446 28.983 153.433 29.052 153.406 29.117C153.38 29.182 153.341 29.241 153.291 29.29C153.187 29.393 153.045 29.449 152.899 29.444C152.756 29.447 152.617 29.395 152.513 29.297ZM152.472 30.043H153.323V33.681H152.472V30.043ZM156.102 33.49C155.814 33.338 155.574 33.108 155.41 32.826C155.08 32.227 155.08 31.5 155.41 30.901C155.575 30.621 155.815 30.393 156.102 30.241C156.412 30.084 156.754 30.003 157.1 30.003C157.447 30.003 157.789 30.084 158.098 30.241C158.385 30.392 158.624 30.621 158.789 30.901C158.952 31.196 159.038 31.527 159.038 31.863C159.038 32.2 158.952 32.531 158.789 32.826C158.625 33.108 158.386 33.338 158.098 33.49C157.789 33.647 157.447 33.728 157.1 33.728C156.753 33.728 156.411 33.647 156.102 33.49ZM157.873 32.685C158.07 32.457 158.179 32.165 158.179 31.863C158.179 31.56 158.07 31.268 157.873 31.04C157.67 30.832 157.389 30.718 157.098 30.726C156.954 30.721 156.811 30.747 156.678 30.801C156.545 30.855 156.424 30.936 156.324 31.04C156.129 31.269 156.022 31.561 156.022 31.863C156.022 32.164 156.128 32.456 156.324 32.685C156.424 32.789 156.545 32.871 156.678 32.924C156.811 32.978 156.954 33.004 157.098 32.999C157.389 33.007 157.67 32.894 157.873 32.685ZM161.136 33.612C160.895 33.555 160.665 33.456 160.458 33.321L160.785 32.674C160.966 32.791 161.165 32.88 161.374 32.936C161.593 33 161.822 33.033 162.051 33.033C162.56 33.033 162.814 32.899 162.814 32.631C162.818 32.509 162.738 32.4 162.621 32.366C162.418 32.298 162.209 32.25 161.997 32.223C161.75 32.189 161.505 32.136 161.265 32.066C161.077 32.007 160.908 31.901 160.774 31.756C160.628 31.585 160.554 31.365 160.567 31.14C160.563 30.977 160.601 30.816 160.677 30.671C160.752 30.526 160.863 30.403 160.999 30.313C161.288 30.105 161.677 30.002 162.168 30.003C162.419 30.003 162.671 30.032 162.917 30.088C163.132 30.131 163.339 30.208 163.53 30.315L163.202 30.963C162.887 30.779 162.526 30.685 162.161 30.69C161.964 30.679 161.769 30.717 161.592 30.802C161.535 30.829 161.487 30.871 161.453 30.923C161.419 30.975 161.4 31.036 161.398 31.099C161.395 31.163 161.414 31.227 161.451 31.279C161.489 31.332 161.543 31.371 161.605 31.389C161.813 31.464 162.029 31.518 162.249 31.55C162.491 31.585 162.73 31.637 162.964 31.706C163.148 31.763 163.316 31.866 163.448 32.006C163.591 32.172 163.664 32.387 163.65 32.605C163.652 32.768 163.613 32.929 163.535 33.072C163.457 33.215 163.344 33.335 163.206 33.422C162.911 33.626 162.509 33.728 162.001 33.729C161.709 33.729 161.417 33.69 161.136 33.612ZM64.283 13.462C64.291 14.251 64.167 15.037 63.915 15.785C63.676 16.482 63.27 17.11 62.731 17.613C62.188 18.124 61.483 18.523 60.615 18.808C59.748 19.094 58.693 19.238 57.451 19.238H49.899V24.563H45.349V7.709H57.447C58.69 7.709 59.745 7.85 60.612 8.132C61.478 8.414 62.183 8.811 62.727 9.322C63.265 9.823 63.671 10.448 63.911 11.143C64.165 11.889 64.29 12.673 64.283 13.462ZM59.683 13.535C59.691 13.191 59.635 12.848 59.518 12.524C59.409 12.243 59.219 12.002 58.972 11.83C58.671 11.631 58.333 11.495 57.978 11.431C57.481 11.338 56.975 11.294 56.469 11.303H49.891V15.645H56.465C56.97 15.651 57.475 15.617 57.974 15.541C58.327 15.492 58.665 15.371 58.968 15.185C59.213 15.027 59.404 14.798 59.514 14.528C59.632 14.211 59.689 13.874 59.679 13.535H59.683ZM83.742 21.373H74.351L72.769 24.562H67.686L76.505 7.709H81.584L90.403 24.562H85.325L83.742 21.373ZM75.976 18.081H82.135L79.068 11.875L75.976 18.081ZM96.177 24.562V7.709H100.727V24.562H96.177ZM130.445 24.562V12.726L124.19 24.562H119.823L113.567 12.726V24.562H109.017V7.709H115.199L122.006 20.466L128.814 7.709H134.972V24.562H130.445ZM156.802 21.373H147.407L145.825 24.562H140.746L149.566 7.709H154.644L163.463 24.562H158.383L156.802 21.373ZM149.038 18.081H155.196L152.129 11.875L149.038 18.081ZM15.021 1.169C8.02301 1.328 2.20301 5.79 0.30601 11.915C0.0190097 10.746 -0.22799 7.119 0.35401 6.089C1.78601 3.55 6.75501 -0.189 13.007 0.008C14.5 0.053 17.436 0.634 17.739 1.223C17.776 1.295 16.258 1.14 15.021 1.169Z" fill="#000000"/>
<path id="Vector_3" d="M37.434 24.468L37.41 24.458C37.399 24.453 37.387 24.448 37.375 24.445C37.361 24.443 37.347 24.439 37.333 24.435C37.318 24.434 37.302 24.434 37.287 24.435H37.129C37.113 24.435 37.092 24.443 37.072 24.446C37.034 24.455 36.995 24.459 36.957 24.472C36.875 24.496 36.795 24.525 36.718 24.56C36.636 24.594 36.556 24.633 36.478 24.677C36.4 24.723 36.319 24.761 36.243 24.816L36.014 24.97L35.79 25.139L35.678 25.225L35.569 25.316L35.354 25.5C35.21 25.627 35.075 25.76 34.933 25.887L34.505 26.288C34.362 26.422 34.215 26.547 34.063 26.675C33.466 27.18 32.83 27.636 32.16 28.039C31.828 28.242 31.482 28.427 31.136 28.601C30.791 28.775 30.435 28.93 30.072 29.063C30.425 28.906 30.77 28.729 31.104 28.532C31.437 28.339 31.764 28.131 32.078 27.909C32.71 27.469 33.305 26.979 33.859 26.444C33.994 26.308 34.134 26.178 34.263 26.037L34.657 25.616C34.792 25.473 34.923 25.326 35.063 25.186L35.276 24.979L35.383 24.876L35.496 24.779L35.721 24.585L35.963 24.399C36.041 24.335 36.133 24.284 36.217 24.227C36.306 24.169 36.397 24.116 36.491 24.068C36.636 23.998 36.786 23.939 36.939 23.891C36.943 23.89 36.945 23.888 36.948 23.885C36.952 23.88 36.954 23.872 36.951 23.866C36.95 23.863 36.949 23.86 36.946 23.857C34.961 22.005 33.939 24.104 30.599 24.148C30.232 24.152 29.865 24.131 29.501 24.085L29.446 24.078C27.258 23.787 24.529 22.618 23.27 21.658C22.603 21.147 22.074 20.699 21.689 20.464C21.559 20.371 21.408 20.313 21.249 20.296C20.581 20.306 19.914 20.356 19.252 20.446L10.708 20.412C10.156 20.414 9.63001 20.646 9.25601 21.053C9.11001 21.214 8.93801 21.35 8.74601 21.453C8.45401 21.607 8.12801 21.683 7.79901 21.676C7.30001 21.676 6.57801 21.451 5.97701 20.385C5.60601 19.727 5.33001 18.819 5.17601 17.756C4.93401 15.993 5.01201 14.201 5.40801 12.466C5.88901 10.463 6.77701 9.145 7.95801 8.658C9.75901 7.916 11.019 8.519 12.238 9.1C13.206 9.565 14.211 10.046 15.682 10.046C17.154 10.046 18.157 9.562 19.128 9.1C20.345 8.519 21.604 7.912 23.407 8.654C24.593 9.138 25.477 10.459 25.965 12.463C26.362 14.197 26.441 15.989 26.198 17.752C26.043 18.817 25.766 19.723 25.396 20.381C25.249 20.649 25.066 20.895 24.85 21.113C24.797 21.163 24.768 21.236 24.773 21.31C24.778 21.384 24.816 21.452 24.876 21.495C25.707 22.093 27.132 22.717 28.438 23.089C28.729 23.173 29.019 23.241 29.294 23.296L29.321 23.302C29.48 23.333 29.635 23.361 29.782 23.381L29.787 23.372L29.841 23.378C30.815 23.464 31.797 23.385 32.745 23.146C32.405 20.994 31.511 19.087 31.174 18.553C31.145 18.501 31.109 18.454 31.067 18.412C30.723 18.934 30.283 19.388 29.772 19.749C30.8 18.254 31.466 17.834 31.139 15.28C30.46 8.701 25.682 3.278 19.242 1.774L19.175 1.758C19.122 1.746 19.07 1.734 19.017 1.723C18.936 1.706 18.856 1.688 18.777 1.673L18.486 1.618L18.441 1.61C18.336 1.592 18.231 1.574 18.125 1.558L17.91 1.527C17.845 1.517 17.781 1.508 17.716 1.501L17.523 1.476L17.136 1.437L16.942 1.42C16.545 1.389 16.144 1.374 15.74 1.374C13.409 1.369 11.108 1.892 9.00901 2.904C8.84001 2.985 8.67101 3.07 8.50601 3.159C8.39501 3.217 8.28501 3.277 8.17601 3.338C8.12901 3.363 8.07901 3.39 8.03401 3.417C7.74601 3.582 7.46301 3.756 7.18701 3.94L7.00901 4.066C6.95201 4.105 6.89401 4.144 6.83801 4.184C6.78201 4.224 6.71701 4.269 6.65801 4.313C5.49901 5.151 4.46101 6.144 3.57301 7.266L3.59301 7.234C2.55201 8.54 1.72901 10.005 1.15501 11.574H1.16901C1.16401 11.586 1.16001 11.6 1.15501 11.613C1.15001 11.625 1.12801 11.662 1.11001 11.7C1.07501 11.78 1.04601 11.863 1.02401 11.947C1.01501 11.986 1.00501 12.03 0.99601 12.075C-1.64299 20.216 2.81201 28.955 10.95 31.602C13.046 28.358 16.196 26.681 19.007 25.525C15.694 27.491 15.927 29.367 16.955 31.069C16.367 30.717 15.284 29.132 15.284 29.132C15.284 29.132 13.777 29.629 12.102 31.926L12.065 31.978C11.624 32.593 11.23 33.24 10.884 33.914C10.386 38.694 18.538 41.099 17.423 39.514C16.308 37.93 18.279 32.52 18.279 32.52C18.279 32.52 19.155 34.111 23.029 34.088C26.904 34.065 31.678 32.238 33.753 30.858C34.91 30.086 38.559 26.623 37.434 24.468ZM27.301 27.095C27.295 27.136 27.286 27.177 27.273 27.218C27.273 27.231 27.264 27.245 27.259 27.257C27.245 27.296 27.227 27.333 27.208 27.37C27.202 27.381 27.196 27.392 27.189 27.402C27.162 27.45 27.129 27.495 27.093 27.536C27.085 27.545 27.077 27.553 27.068 27.561C27.054 27.577 27.039 27.59 27.023 27.605L26.986 27.636C26.971 27.647 26.955 27.659 26.939 27.67C26.929 27.677 26.919 27.683 26.909 27.689L26.867 27.713L26.821 27.736C26.759 27.766 26.694 27.787 26.627 27.799C26.613 27.803 26.598 27.805 26.583 27.806C26.563 27.81 26.542 27.812 26.52 27.813H26.469C26.244 27.813 26.028 27.724 25.869 27.564C25.849 27.545 25.831 27.525 25.814 27.504C25.805 27.493 25.796 27.483 25.789 27.471C25.747 27.416 25.713 27.357 25.686 27.294C25.675 27.268 25.666 27.242 25.658 27.216C25.606 27.051 25.606 26.875 25.658 26.71C25.666 26.683 25.675 26.657 25.686 26.632C25.699 26.602 25.713 26.573 25.73 26.545C25.747 26.513 25.767 26.483 25.789 26.455C25.796 26.443 25.805 26.432 25.814 26.422C25.831 26.401 25.849 26.381 25.869 26.362C26.044 26.188 26.286 26.099 26.532 26.117C26.778 26.136 27.004 26.26 27.151 26.459C27.184 26.502 27.212 26.549 27.236 26.598C27.292 26.713 27.321 26.839 27.32 26.967C27.317 27.01 27.311 27.053 27.301 27.095Z" fill="#000000"/>
<path id="Vector_4" d="M25.715 27.37C25.735 27.406 25.757 27.44 25.782 27.473C25.757 27.44 25.734 27.406 25.715 27.37ZM20.28 15.478C20.66 15.478 20.968 15.17 20.968 14.79C20.968 14.41 20.66 14.102 20.28 14.102C19.9 14.102 19.592 14.41 19.592 14.79C19.592 15.17 19.9 15.478 20.28 15.478ZM22.732 15.478C23.112 15.478 23.421 15.17 23.421 14.79C23.421 14.41 23.112 14.102 22.732 14.102C22.352 14.102 22.044 14.41 22.044 14.79C22.044 15.17 22.352 15.478 22.732 15.478ZM21.506 14.253C21.886 14.253 22.194 13.944 22.194 13.564C22.194 13.184 21.886 12.876 21.506 12.876C21.125 12.876 20.817 13.184 20.817 13.564C20.817 13.944 21.125 14.253 21.506 14.253ZM21.506 16.705C21.886 16.705 22.194 16.397 22.194 16.016C22.194 15.636 21.886 15.328 21.506 15.328C21.125 15.328 20.817 15.636 20.817 16.016C20.817 16.397 21.125 16.705 21.506 16.705ZM11.046 14.102H10.508V13.564C10.517 13.312 10.388 13.075 10.172 12.947C9.95501 12.818 9.68501 12.818 9.46801 12.947C9.25201 13.075 9.12301 13.312 9.13201 13.564V14.102H8.59401C8.22401 14.116 7.93101 14.42 7.93101 14.79C7.93101 15.16 8.22401 15.464 8.59401 15.478H9.13201V16.016C9.14601 16.386 9.45001 16.679 9.82001 16.679C10.19 16.679 10.494 16.386 10.508 16.016V15.478H11.046C11.298 15.488 11.535 15.359 11.664 15.142C11.792 14.925 11.792 14.655 11.664 14.439C11.535 14.222 11.298 14.093 11.046 14.102Z" fill="#000000"/>
</g>
</svg>
