<svg preserveAspectRatio="none" width="100%" height="100%" overflow="visible" style="display: block;" viewBox="0 0 144.545 30" fill="none" xmlns="http://www.w3.org/2000/svg">
<g id="image" clip-path="url(#clip0_0_10)">
<path id="Vector" d="M0 12.657L12.556 0V6.329H25.111L12.556 15.821V25.314L0 12.657ZM43.944 12.657L31.389 25.314V18.985H18.833L31.389 9.493V0L43.944 12.657ZM68.347 23.77V1.62H73.658V10.986H73.947L81.211 1.62H87.466L79.677 11.506L87.606 23.77H81.254L75.782 15.064L73.658 17.768V23.77H68.347ZM49.52 23.77V20.72L60.195 5.968H49.53V1.62H66.911V4.67L56.236 19.422H66.901V23.77H49.52ZM138.258 24.116C136.785 24.116 135.501 23.745 134.407 23.002C133.319 22.26 132.475 21.243 131.874 19.952C131.274 18.662 130.973 17.191 130.973 15.539C130.973 13.874 131.277 12.392 131.885 11.094C132.5 9.796 133.351 8.78 134.439 8.044C135.526 7.302 136.788 6.93 138.226 6.93C139.327 6.93 140.325 7.147 141.219 7.579C142.114 8.005 142.85 8.607 143.43 9.386C144.016 10.157 144.385 11.058 144.535 12.089H142.604C142.403 11.152 141.921 10.352 141.155 9.688C140.397 9.018 139.431 8.682 138.258 8.682C137.207 8.682 136.277 8.971 135.469 9.548C134.661 10.117 134.027 10.914 133.57 11.938C133.119 12.955 132.894 14.134 132.894 15.475C132.894 16.823 133.116 18.017 133.559 19.055C134.002 20.086 134.625 20.893 135.426 21.477C136.234 22.061 137.178 22.353 138.258 22.353C138.988 22.353 139.653 22.216 140.254 21.943C140.862 21.661 141.37 21.265 141.777 20.753C142.192 20.241 142.471 19.631 142.614 18.925H144.545C144.402 19.927 144.048 20.821 143.483 21.607C142.925 22.386 142.199 22.999 141.305 23.446C140.418 23.893 139.403 24.116 138.258 24.116ZM118.349 13.387V23.77H116.439V7.157H118.296V9.764H118.467C118.853 8.913 119.454 8.232 120.27 7.72C121.092 7.201 122.108 6.941 123.317 6.941C124.425 6.941 125.398 7.175 126.235 7.644C127.079 8.105 127.733 8.787 128.199 9.688C128.67 10.59 128.907 11.696 128.907 13.009V23.77H126.997V13.128C126.997 11.765 126.618 10.687 125.86 9.894C125.108 9.101 124.1 8.704 122.834 8.704C121.968 8.704 121.2 8.891 120.527 9.266C119.855 9.641 119.322 10.182 118.928 10.889C118.542 11.588 118.349 12.421 118.349 13.387ZM103.391 30C103.012 30 102.658 29.964 102.329 29.892C102 29.82 101.739 29.741 101.546 29.654L102.061 27.956C102.712 28.158 103.291 28.23 103.799 28.172C104.307 28.122 104.758 27.891 105.151 27.48C105.544 27.076 105.895 26.456 106.202 25.62L106.803 23.932L100.741 7.157H102.812L107.704 21.228H107.855L112.747 7.157H114.818L107.844 26.398C107.551 27.199 107.19 27.866 106.76 28.399C106.331 28.94 105.834 29.34 105.269 29.6C104.711 29.867 104.085 30 103.391 30ZM99.758 10.802L98.009 11.3C97.843 10.811 97.596 10.354 97.28 9.948C96.965 9.544 96.554 9.223 96.046 8.985C95.545 8.747 94.923 8.628 94.179 8.628C93.063 8.628 92.148 8.895 91.432 9.429C90.717 9.962 90.359 10.651 90.359 11.495C90.359 12.208 90.603 12.789 91.089 13.236C91.583 13.676 92.341 14.025 93.364 14.285L95.853 14.902C97.233 15.24 98.267 15.778 98.954 16.513C99.647 17.248 99.994 18.171 99.994 19.282C99.994 20.219 99.737 21.052 99.222 21.78C98.707 22.509 97.988 23.082 97.065 23.5C96.15 23.911 95.087 24.116 93.879 24.116C92.269 24.116 90.942 23.752 89.898 23.024C88.854 22.289 88.185 21.229 87.892 19.844L89.727 19.39C89.963 20.378 90.424 21.124 91.11 21.629C91.804 22.134 92.716 22.386 93.847 22.386C95.112 22.386 96.125 22.101 96.883 21.531C97.641 20.954 98.02 20.233 98.02 19.368C98.02 18.698 97.798 18.135 97.355 17.681C96.911 17.22 96.239 16.881 95.338 16.664L92.645 16.015C91.214 15.669 90.156 15.121 89.469 14.371C88.782 13.622 88.439 12.691 88.439 11.581C88.439 10.665 88.686 9.861 89.179 9.169C89.673 8.47 90.352 7.922 91.218 7.525C92.083 7.128 93.07 6.93 94.179 6.93C95.688 6.93 96.893 7.276 97.795 7.969C98.703 8.654 99.358 9.598 99.758 10.802Z" fill="#000000"/>
</g>
<defs>
<clipPath id="clip0_0_10">
<rect width="144.545" height="30" fill="white"/>
</clipPath>
</defs>
</svg>
