<svg xmlns="http://www.w3.org/2000/svg" width="135" height="55" viewBox="0 0 135 55" fill="none" aria-hidden="true">
  <path d="M26.6539 5.83918C25.3001 4.8238 23.3539 5.58534 22.9308 7.19303L15.0616 35.2007C15.0616 35.4546 14.6385 35.4546 14.5539 35.2007L11.0001 22.8469C11.0001 22.593 11.2539 22.4238 11.4231 22.593L14.0462 25.9776C14.2154 26.1469 14.4693 26.0623 14.4693 25.893L19.1231 4.14688V3.97764C19.1231 3.46995 18.7001 3.04687 18.1924 3.04687C8.29237 3.04688 0.253906 13.9623 0.253906 27.5007C0.253906 41.0392 3.72314 44.0853 8.80006 48.3161C10.1539 49.4161 12.1847 48.8238 12.6924 47.0469L20.477 19.5469C20.477 19.293 20.9001 19.293 20.9847 19.5469L24.5385 31.9007C24.5385 32.1546 24.2847 32.3238 24.1154 32.1546L21.4924 28.77C21.3231 28.6007 21.0693 28.6853 21.0693 28.8546L16.3308 50.77C16.2462 51.3623 16.5847 51.87 17.177 51.87C17.5154 51.87 17.9385 51.87 18.277 51.87C28.177 51.87 36.3001 40.9546 36.3001 27.4161C36.3001 13.8776 32.4078 9.90072 26.7385 5.75457L26.6539 5.83918ZM5.83852 14.5546C3.80775 18.2776 2.87698 22.5084 2.36929 26.8238C2.11544 24.4546 2.36929 22.0007 2.79237 19.6315C3.72314 14.8084 6.43083 10.3238 10.4078 7.61611C12.3539 6.26226 14.6385 5.24688 17.0078 4.99303C12.2693 6.68534 8.20775 10.2392 5.75391 14.6392L5.83852 14.5546ZM17.6001 49.9238C22.5924 49.3315 27.2462 46.7084 30.0385 42.4776C32.9154 38.2469 33.9308 33.0853 34.6078 28.0084C34.9462 33.2546 34.0154 38.7546 31.0539 43.1546C28.0924 47.5546 22.8462 50.3469 17.6001 49.9238Z" fill="#C2C2C1"/>
  <path d="M66.6761 33.3388C66.6761 34.5235 66.4222 35.5388 65.9991 36.5542C65.5761 37.5696 64.9838 38.4158 64.2222 39.1773C63.4607 39.9388 62.6145 40.5311 61.5991 40.9542C60.5838 41.3773 59.4838 41.6311 58.3838 41.6311H44.5068V13.9619H58.3838C59.5684 13.9619 60.5838 14.2158 61.5991 14.6388C62.6145 15.0619 63.4607 15.6542 64.2222 16.4158C64.9838 17.1773 65.5761 18.0235 65.9991 19.0388C66.4222 20.0542 66.6761 21.1542 66.6761 22.2542C66.6761 23.3542 66.6761 23.2696 66.4222 23.8619C66.253 24.3696 66.0838 24.9619 65.8299 25.4696C65.5761 25.9773 65.2376 26.4004 64.8991 26.8235C64.5607 27.2465 64.1376 27.585 63.7145 27.8388C64.1376 28.0927 64.5607 28.4311 64.8991 28.8542C65.2376 29.2773 65.5761 29.7004 65.8299 30.2081C66.0838 30.7158 66.253 31.2235 66.4222 31.8158C66.5915 32.3235 66.5914 32.9158 66.5914 33.4235L66.6761 33.3388ZM50.0068 25.0465H58.2991C58.7222 25.0465 59.0607 25.0465 59.3991 24.7927C59.7376 24.6235 59.9915 24.4542 60.2453 24.2004C60.4991 23.9465 60.6684 23.6927 60.8376 23.2696C61.0068 22.9311 61.0914 22.5927 61.0914 22.1696C61.0914 21.7465 61.0915 21.4081 60.8376 21.0696C60.6684 20.7311 60.4991 20.4773 60.2453 20.2235C59.9915 19.9696 59.7376 19.8004 59.3991 19.6311C59.0607 19.4619 58.7222 19.3773 58.2991 19.3773H50.0068V24.9619V25.0465ZM50.0068 36.1311H58.2991C58.7222 36.1311 59.0607 36.1311 59.3991 35.8773C59.7376 35.7081 59.9915 35.5388 60.2453 35.285C60.4991 35.0311 60.6684 34.7773 60.8376 34.4388C61.0068 34.1004 61.0914 33.7619 61.0914 33.3388C61.0914 32.9158 61.0915 32.5773 60.8376 32.2388C60.6684 31.9004 60.4991 31.6465 60.2453 31.3927C59.9915 31.1388 59.7376 30.9696 59.3991 30.8004C59.0607 30.6311 58.7222 30.5465 58.2991 30.5465H50.0068V36.0465V36.1311Z" fill="#C2C2C1"/>
  <path d="M78.5227 36.5547C78.6919 36.5547 78.9458 36.6393 79.115 36.6393C79.2842 36.6393 79.5381 36.6393 79.7073 36.6393C80.215 36.6393 80.7227 36.6393 81.2304 36.3855C81.7381 36.2162 82.1612 36.047 82.5842 35.7931C83.0073 35.5393 83.3458 35.2008 83.6842 34.8624C84.0227 34.5239 84.2765 34.1008 84.4458 33.5931L88.3381 37.4855C87.8304 38.1624 87.3227 38.8393 86.6458 39.347C85.9689 39.9393 85.2919 40.3624 84.615 40.7855C83.8535 41.2085 83.0919 41.4624 82.2458 41.6316C81.3996 41.8008 80.5535 41.9701 79.7073 41.9701C78.2689 41.9701 76.915 41.7162 75.5612 41.1239C74.2919 40.6162 73.1919 39.8547 72.1765 38.8393C71.2458 37.9085 70.4842 36.7239 69.8919 35.3701C69.2996 34.0162 69.0458 32.5778 69.0458 30.9701C69.0458 29.3624 69.2996 27.8393 69.8919 26.4855C70.4842 25.1316 71.2458 23.947 72.1765 23.0162C73.1073 22.0855 74.2919 21.3239 75.5612 20.8162C76.8304 20.3085 78.1842 20.0547 79.7073 20.0547C81.2304 20.0547 81.3996 20.1393 82.2458 20.3931C83.0919 20.5624 83.8535 20.9008 84.615 21.3239C85.3765 21.747 86.0535 22.1701 86.7304 22.7624C87.4073 23.3547 87.915 23.947 88.4227 24.6239L78.5227 36.5547ZM81.2304 25.7239C80.9765 25.6393 80.7227 25.5547 80.4689 25.5547C80.215 25.5547 79.9612 25.5547 79.7073 25.5547C78.9458 25.5547 78.2689 25.7239 77.6765 25.9778C76.9996 26.2316 76.4919 26.6547 75.9842 27.0778C75.4765 27.5855 75.1381 28.1778 74.8842 28.8547C74.6304 29.5316 74.4612 30.2931 74.4612 31.2239C74.4612 32.1547 74.4612 31.647 74.4612 31.9008C74.4612 32.1547 74.4612 32.4085 74.5458 32.6624C74.5458 32.9162 74.6304 33.1701 74.715 33.4239C74.715 33.6778 74.8842 33.847 74.9689 34.0162L81.1458 25.8931L81.2304 25.7239Z" fill="#C2C2C1"/>
  <path d="M111.099 41.6316H109.83L107.799 38.7547C107.291 39.1778 106.783 39.6008 106.191 40.0239C105.599 40.447 105.007 40.7855 104.414 41.0393C103.822 41.2931 103.145 41.547 102.468 41.7162C101.791 41.8855 101.114 41.9701 100.522 41.9701C99.0834 41.9701 97.7296 41.7162 96.3757 41.2085C95.1065 40.7008 94.0065 40.0239 92.9911 39.0931C92.0604 38.1624 91.2988 36.9778 90.7065 35.6239C90.1142 34.2701 89.8604 32.747 89.8604 30.9701C89.8604 29.1931 90.1142 27.8393 90.7065 26.5701C91.2988 25.2162 92.0604 24.0316 92.9911 23.1008C93.9219 22.1701 95.1065 21.4085 96.3757 20.8162C97.645 20.3085 98.9988 20.0547 100.522 20.0547C102.045 20.0547 101.876 20.0547 102.553 20.3085C103.23 20.4778 103.822 20.7316 104.499 20.9855C105.091 21.3239 105.683 21.6624 106.276 22.0008C106.868 22.4239 107.376 22.847 107.883 23.2701L109.914 20.8162H111.183V41.4624L111.099 41.6316ZM105.853 31.1393C105.853 30.3778 105.683 29.7008 105.43 29.0239C105.176 28.347 104.753 27.7547 104.33 27.247C103.822 26.7393 103.314 26.3162 102.637 25.9778C101.96 25.6393 101.283 25.4701 100.607 25.4701C99.9296 25.4701 99.168 25.5547 98.5757 25.8085C97.8988 26.0624 97.3911 26.4008 96.8834 26.9085C96.3757 27.4162 96.0373 28.0085 95.7834 28.6855C95.5296 29.3624 95.3604 30.2085 95.3604 31.0547C95.3604 31.9008 95.5296 32.747 95.7834 33.4239C96.0373 34.1008 96.4604 34.6931 96.8834 35.2008C97.3911 35.7085 97.8988 36.047 98.5757 36.3008C99.2527 36.5547 99.9296 36.6393 100.607 36.6393C101.283 36.6393 102.045 36.4701 102.637 36.1316C103.314 35.7931 103.822 35.3701 104.33 34.8624C104.837 34.3547 105.176 33.7624 105.43 33.0855C105.683 32.4085 105.853 31.7316 105.853 30.9701V31.1393Z" fill="#C2C2C1"/>
  <path d="M120.661 41.6308H115.415V20.9H116.684L118.461 22.9308C119.307 22.1692 120.238 21.5769 121.338 21.1538C122.438 20.7308 123.538 20.5615 124.722 20.5615C125.907 20.5615 127.176 20.8154 128.276 21.3231C129.376 21.8308 130.392 22.5077 131.238 23.3538C132.084 24.2 132.761 25.2154 133.184 26.3154C133.692 27.4154 133.946 28.6846 133.946 29.9538V41.8H128.699V29.9538C128.699 29.4461 128.615 28.9384 128.361 28.4308C128.192 27.9231 127.853 27.5 127.515 27.1615C127.176 26.8231 126.753 26.4846 126.246 26.3154C125.738 26.1461 125.23 25.9769 124.722 25.9769C124.215 25.9769 123.622 26.0615 123.115 26.3154C122.607 26.4846 122.184 26.8231 121.846 27.1615C121.507 27.5 121.169 27.9231 120.999 28.4308C120.83 28.9384 120.661 29.4461 120.661 29.9538V41.8V41.6308Z" fill="#C2C2C1"/>
</svg>
