<svg preserveAspectRatio="none" width="100%" height="100%" overflow="visible" style="display: block;" viewBox="0 0 146.176 35" fill="none" xmlns="http://www.w3.org/2000/svg">
<g id="Signature_Hor_black 2">
<path id="Vector" d="M13.125 23.0445C12.7631 23.0445 12.3873 22.9051 12.109 22.6264C11.5522 22.0689 11.5522 21.1491 12.109 20.5917L19.1934 13.4982C19.7501 12.9407 20.6687 12.9407 21.2255 13.4982C21.7822 14.0556 21.7822 14.9754 21.2255 15.5329L14.141 22.6264C13.8627 22.9051 13.4869 23.0445 13.125 23.0445Z" fill="var(--fill-0, #030712)"/>
<path id="Vector_2" d="M31.7194 22.4464L26.6115 17.3318C26.5877 17.3081 26.5638 17.2859 26.5407 17.2643C26.496 17.2225 26.4532 17.1826 26.4165 17.1367L24.2453 19.1993C24.28 19.2272 24.3149 19.2585 24.3497 19.2899C24.3844 19.3212 24.4193 19.3526 24.454 19.3805L29.6038 24.5368C30.3414 25.2755 30.7033 26.237 30.7033 27.1988C30.7033 28.1603 30.3414 29.1359 29.6038 29.8744C28.1285 31.3516 25.7485 31.3516 24.2731 29.8744L19.1651 24.7598C19.1563 24.7511 19.1474 24.7409 19.1382 24.73C19.1182 24.7068 19.0962 24.6814 19.0677 24.6623L18.7614 24.3556L16.8546 26.6831C16.9103 26.7527 16.9799 26.8224 17.0495 26.8783L22.1575 31.9928C24.7881 34.6268 29.0887 34.6268 31.7194 31.9928C34.35 29.3867 34.35 25.0943 31.7194 22.4464Z" fill="var(--fill-0, #030712)"/>
<path id="Vector_3" d="M31.7194 22.4464L26.6115 17.3318C26.5877 17.3081 26.5638 17.2859 26.5407 17.2643C26.496 17.2225 26.4532 17.1826 26.4165 17.1367L24.2453 19.1993C24.28 19.2272 24.3149 19.2585 24.3497 19.2899C24.3844 19.3212 24.4193 19.3526 24.454 19.3805L29.6038 24.5368C30.3414 25.2755 30.7033 26.237 30.7033 27.1988C30.7033 28.1603 30.3414 29.1359 29.6038 29.8744C28.1285 31.3516 25.7485 31.3516 24.2731 29.8744L19.1651 24.7598C19.1563 24.7511 19.1474 24.7409 19.1382 24.73C19.1182 24.7068 19.0962 24.6814 19.0677 24.6623L18.7614 24.3556L16.8546 26.6831C16.9103 26.7527 16.9799 26.8224 17.0495 26.8783L22.1575 31.9928C24.7881 34.6268 29.0887 34.6268 31.7194 31.9928C34.35 29.3867 34.35 25.0943 31.7194 22.4464Z" stroke="var(--stroke-0, #030712)" stroke-width="0.222576"/>
<path id="Vector_4" d="M10.2567 15.854C10.1453 15.7704 10.0479 15.6728 9.95043 15.5753L4.84241 10.4606C4.10475 9.72203 3.74287 8.76044 3.74287 7.79882C3.74287 6.83723 4.10475 5.86168 4.84241 5.12306C6.31775 3.64583 8.69778 3.64583 10.1731 5.12306L15.2812 10.2377C15.29 10.2465 15.2988 10.2567 15.308 10.2674C15.328 10.2906 15.35 10.3162 15.3786 10.3352L15.7683 10.7254L17.87 8.62106C17.7308 8.4399 17.5777 8.27266 17.4107 8.10542L12.2887 3.00476C9.65815 0.370809 5.35739 0.370809 2.72683 3.00476C0.0962657 5.6387 0.0962657 9.945 2.72683 12.579L7.83485 17.6935C8.00187 17.8608 8.16889 18.0141 8.34982 18.1535L10.4515 16.0491L10.2567 15.854Z" fill="var(--fill-0, #030712)"/>
<path id="Vector_5" d="M10.2567 15.854C10.1453 15.7704 10.0479 15.6728 9.95043 15.5753L4.84241 10.4606C4.10475 9.72203 3.74287 8.76044 3.74287 7.79882C3.74287 6.83723 4.10475 5.86168 4.84241 5.12306C6.31775 3.64583 8.69778 3.64583 10.1731 5.12306L15.2812 10.2377C15.29 10.2465 15.2988 10.2567 15.308 10.2674C15.328 10.2906 15.35 10.3162 15.3786 10.3352L15.7683 10.7254L17.87 8.62106C17.7308 8.4399 17.5777 8.27266 17.4107 8.10542L12.2887 3.00476C9.65815 0.370809 5.35739 0.370809 2.72683 3.00476C0.0962657 5.6387 0.0962657 9.945 2.72683 12.579L7.83485 17.6935C8.00187 17.8608 8.16889 18.0141 8.34982 18.1535L10.4515 16.0491L10.2567 15.854Z" stroke="var(--stroke-0, #030712)" stroke-width="0.222576"/>
<path id="Vector_6" d="M15.2955 24.7444L10.1875 29.859C8.71215 31.3362 6.33211 31.3362 4.85676 29.859C4.14695 29.1483 3.75722 28.2006 3.75722 27.1832C3.75722 26.1658 4.14695 25.2321 4.85676 24.5214L9.96481 19.4068C10.0066 19.365 10.0483 19.3232 10.104 19.2814L13.9454 15.435C13.514 15.3514 13.0825 15.3096 12.6232 15.3096C10.8138 15.3096 9.11579 16.0203 7.83529 17.2885L2.72727 22.4031C1.44679 23.6852 0.75087 25.3855 0.75087 27.1972C0.75087 29.009 1.4607 30.709 2.72727 31.9913C4.04951 33.3152 5.77538 33.9702 7.50125 33.9702C9.22712 33.9702 10.9669 33.3152 12.2892 31.9913L17.3972 26.8767C18.6777 25.5945 19.3736 23.8942 19.3736 22.0826C19.3736 21.6227 19.3318 21.1767 19.2483 20.7447L15.546 24.4517C15.4765 24.5492 15.393 24.6469 15.2955 24.7444Z" fill="var(--fill-0, #030712)"/>
<path id="Vector_7" d="M15.2955 24.7444L10.1875 29.859C8.71215 31.3362 6.33211 31.3362 4.85676 29.859C4.14695 29.1483 3.75722 28.2006 3.75722 27.1832C3.75722 26.1658 4.14695 25.2321 4.85676 24.5214L9.96481 19.4068C10.0066 19.365 10.0483 19.3232 10.104 19.2814L13.9454 15.435C13.514 15.3514 13.0825 15.3096 12.6232 15.3096C10.8138 15.3096 9.11579 16.0203 7.83529 17.2885L2.72727 22.4031C1.44679 23.6852 0.75087 25.3855 0.75087 27.1972C0.75087 29.009 1.4607 30.709 2.72727 31.9913C4.04951 33.3152 5.77538 33.9702 7.50125 33.9702C9.22712 33.9702 10.9669 33.3152 12.2892 31.9913L17.3972 26.8767C18.6777 25.5945 19.3736 23.8942 19.3736 22.0826C19.3736 21.6227 19.3318 21.1767 19.2483 20.7447L15.546 24.4517C15.4765 24.5492 15.393 24.6469 15.2955 24.7444Z" stroke="var(--stroke-0, #030712)" stroke-width="0.222576"/>
<path id="Vector_8" d="M31.5795 3.10144C28.9488 0.467489 24.648 0.467489 22.0175 3.10144L16.9095 8.21604C15.2532 9.86052 14.6408 12.1739 15.0722 14.3201L18.7606 10.641C18.8441 10.5295 18.9415 10.4319 19.0389 10.3344L24.133 5.21975C24.8708 4.48113 25.831 4.11878 26.7914 4.11878C27.7518 4.11878 28.726 4.48113 29.4639 5.21975C30.9391 6.69698 30.9391 9.08008 29.4639 10.5573L24.3558 15.658C24.3469 15.6668 24.3368 15.6756 24.3259 15.6849C24.3028 15.7049 24.2774 15.727 24.2583 15.7555L20.389 19.6298C20.8205 19.7134 21.2659 19.7552 21.6974 19.7552C23.4232 19.7552 25.163 19.1002 26.4854 17.7763L31.5932 12.6617C34.2239 10.0278 34.2239 5.73539 31.5795 3.10144Z" fill="var(--fill-0, #030712)"/>
<path id="Vector_9" d="M31.5795 3.10144C28.9488 0.467489 24.648 0.467489 22.0175 3.10144L16.9095 8.21604C15.2532 9.86052 14.6408 12.1739 15.0722 14.3201L18.7606 10.641C18.8441 10.5295 18.9415 10.4319 19.0389 10.3344L24.133 5.21975C24.8708 4.48113 25.831 4.11878 26.7914 4.11878C27.7518 4.11878 28.726 4.48113 29.4639 5.21975C30.9391 6.69698 30.9391 9.08008 29.4639 10.5573L24.3558 15.658C24.3469 15.6668 24.3368 15.6756 24.3259 15.6849C24.3028 15.7049 24.2774 15.727 24.2583 15.7555L20.389 19.6298C20.8205 19.7134 21.2659 19.7552 21.6974 19.7552C23.4232 19.7552 25.163 19.1002 26.4854 17.7763L31.5932 12.6617C34.2239 10.0278 34.2239 5.73539 31.5795 3.10144Z" stroke="var(--stroke-0, #030712)" stroke-width="0.222576"/>
<path id="Vector_10" d="M54.8898 30.8201C47.6512 30.8201 42.5945 25.3536 42.5945 17.5C42.5945 9.61187 47.7204 4.14551 55.0282 4.14551C60.9162 4.14551 65.5572 8.055 66.2845 13.556H62.6826C61.886 9.81945 58.8728 7.46685 54.9245 7.46685C49.6254 7.46685 46.0927 11.5147 46.0927 17.5C46.0927 23.4508 49.6254 27.4641 54.9245 27.4641C58.9075 27.4641 61.9899 25.2499 62.821 21.7555H66.4577C65.6611 27.049 60.8815 30.8201 54.8898 30.8201Z" fill="var(--fill-0, #030712)"/>
<path id="Vector_11" d="M72.7271 4.56055V30.4393H69.333V4.56055H72.7271Z" fill="var(--fill-0, #030712)"/>
<path id="Vector_12" d="M84.6069 30.8549C79.377 30.8549 75.8788 27.1183 75.8096 21.3407C75.8788 15.7014 79.4115 11.9648 84.6069 11.9648C89.802 11.9648 93.3347 15.7014 93.4039 21.3407C93.3347 27.1183 89.8365 30.8549 84.6069 30.8549ZM84.6069 27.6719C87.8625 27.6719 90.0444 25.1463 90.0444 21.4099C90.0444 17.6388 87.897 15.1132 84.6069 15.1132C81.3165 15.1132 79.1691 17.6388 79.1691 21.4099C79.1691 25.1463 81.3513 27.6719 84.6069 27.6719Z" fill="var(--fill-0, #030712)"/>
<path id="Vector_13" d="M105.353 30.8544C103.136 30.8544 101.162 30.128 99.7418 28.744V30.4393H96.417V4.56055H99.8113V13.971C101.231 12.6217 103.101 11.9643 105.353 11.9643C110.479 11.9643 113.907 15.7354 113.907 21.4094C113.907 27.0833 110.479 30.8544 105.353 30.8544ZM105.18 27.6369C108.47 27.6369 110.479 25.2498 110.479 21.4094C110.479 17.5691 108.435 15.1473 105.18 15.1473C101.889 15.1473 99.8458 17.5691 99.8458 21.4094C99.8458 25.2498 101.855 27.6369 105.18 27.6369Z" fill="var(--fill-0, #030712)"/>
<path id="Vector_14" d="M124.575 30.8549C119.414 30.8549 115.985 27.1183 115.916 21.3407C115.985 15.6668 119.414 11.9648 124.575 11.9648C129.77 11.9648 133.233 15.7014 133.233 21.3407V22.344L119.276 22.3094C119.587 25.5616 121.631 27.6719 124.575 27.6719C127.068 27.6374 128.973 26.1844 129.423 23.9355H132.783C132.264 27.9833 128.904 30.8549 124.575 30.8549ZM119.518 19.2649L129.631 19.2995C129.008 16.6701 127.138 15.1132 124.575 15.1132C122.046 15.1132 120.141 16.7047 119.518 19.2649Z" fill="var(--fill-0, #030712)"/>
<path id="Vector_15" d="M139.607 21.1323V30.439H136.213V12.3446H139.642V13.7977C141.165 12.4484 143.278 11.791 145.426 11.9986V15.1816C141.789 14.801 139.607 17.0498 139.607 21.1323Z" fill="var(--fill-0, #030712)"/>
</g>
</svg>
