<svg preserveAspectRatio="none" width="100%" height="100%" overflow="visible" style="display: block;" viewBox="0 0 142 34" fill="none" xmlns="http://www.w3.org/2000/svg">
<g id="Signature_Hor_black 2" clip-path="url(#clip0_0_29)">
<path id="Vector" d="M12.7501 22.3867C12.3985 22.3867 12.0335 22.2514 11.7631 21.9806C11.2222 21.4391 11.2222 20.5456 11.7631 20.004L18.6451 13.1132C19.1859 12.5717 20.0783 12.5717 20.6191 13.1132C21.1599 13.6547 21.1599 14.5482 20.6191 15.0897L13.7371 21.9806C13.4666 22.2514 13.1016 22.3867 12.7501 22.3867Z" fill="var(--fill-0, #FFFFFE)"/>
<path id="Vector_2" d="M30.8131 21.805L25.8511 16.8365C25.828 16.8134 25.8049 16.7919 25.7824 16.7709C25.7389 16.7303 25.6974 16.6916 25.6617 16.647L23.5525 18.6506C23.5863 18.6777 23.6202 18.7081 23.6539 18.7386C23.6877 18.7691 23.7216 18.7995 23.7553 18.8266L28.7579 23.8356C29.4745 24.5532 29.826 25.4873 29.826 26.4215C29.826 27.3556 29.4745 28.3033 28.7579 29.0207C27.3249 30.4557 25.0129 30.4557 23.5796 29.0207L18.6175 24.0522C18.6089 24.0438 18.6004 24.0339 18.5914 24.0233C18.5719 24.0008 18.5505 23.9761 18.5228 23.9575L18.2254 23.6596L16.373 25.9206C16.4271 25.9882 16.4947 26.0559 16.5623 26.1102L21.5244 31.0786C24.0799 33.6373 28.2576 33.6373 30.8131 31.0786C33.3685 28.547 33.3685 24.3772 30.8131 21.805Z" fill="var(--fill-0, #FFFFFE)"/>
<path id="Vector_3" d="M30.8131 21.805L25.8511 16.8365C25.828 16.8134 25.8049 16.7919 25.7824 16.7709C25.7389 16.7303 25.6974 16.6916 25.6617 16.647L23.5525 18.6506C23.5863 18.6777 23.6202 18.7081 23.6539 18.7386C23.6877 18.7691 23.7216 18.7995 23.7553 18.8266L28.7579 23.8356C29.4745 24.5532 29.826 25.4873 29.826 26.4215C29.826 27.3556 29.4745 28.3033 28.7579 29.0207C27.3249 30.4557 25.0129 30.4557 23.5796 29.0207L18.6175 24.0522C18.6089 24.0438 18.6004 24.0339 18.5914 24.0233C18.5719 24.0008 18.5505 23.9761 18.5228 23.9575L18.2254 23.6596L16.373 25.9206C16.4271 25.9882 16.4947 26.0559 16.5623 26.1102L21.5244 31.0786C24.0799 33.6373 28.2576 33.6373 30.8131 31.0786C33.3685 28.547 33.3685 24.3772 30.8131 21.805Z" stroke="var(--stroke-0, #FFFFFE)" stroke-width="0.216216"/>
<path id="Vector_4" d="M9.96561 15.4011C9.85744 15.3199 9.7628 15.2251 9.66814 15.1304L4.70607 10.1619C3.98948 9.44437 3.63794 8.51025 3.63794 7.57611C3.63794 6.64199 3.98948 5.69431 4.70607 4.9768C6.13926 3.54177 8.45128 3.54177 9.88449 4.9768L14.8466 9.94527C14.8551 9.95386 14.8637 9.96378 14.8727 9.9742C14.8921 9.99671 14.9135 10.0215 14.9412 10.04L15.3198 10.4191L17.3614 8.37485C17.2262 8.19888 17.0775 8.03641 16.9152 7.87395L11.9396 2.91902C9.38421 0.360326 5.20633 0.360326 2.65093 2.91902C0.0955242 5.47771 0.0955242 9.66097 2.65093 12.2197L7.61301 17.1881C7.77526 17.3506 7.9375 17.4995 8.11327 17.6349L10.1549 15.5907L9.96561 15.4011Z" fill="var(--fill-0, #FFFFFE)"/>
<path id="Vector_5" d="M9.96561 15.4011C9.85744 15.3199 9.7628 15.2251 9.66814 15.1304L4.70607 10.1619C3.98948 9.44437 3.63794 8.51025 3.63794 7.57611C3.63794 6.64199 3.98948 5.69431 4.70607 4.9768C6.13926 3.54177 8.45128 3.54177 9.88449 4.9768L14.8466 9.94527C14.8551 9.95386 14.8637 9.96378 14.8727 9.9742C14.8921 9.99671 14.9135 10.0215 14.9412 10.04L15.3198 10.4191L17.3614 8.37485C17.2262 8.19888 17.0775 8.03641 16.9152 7.87395L11.9396 2.91902C9.38421 0.360326 5.20633 0.360326 2.65093 2.91902C0.0955242 5.47771 0.0955242 9.66097 2.65093 12.2197L7.61301 17.1881C7.77526 17.3506 7.9375 17.4995 8.11327 17.6349L10.1549 15.5907L9.96561 15.4011Z" stroke="var(--stroke-0, #FFFFFE)" stroke-width="0.216216"/>
<path id="Vector_6" d="M14.8596 24.0379L9.89747 29.0063C8.46429 30.4413 6.15224 30.4413 4.71905 29.0063C4.02952 28.3159 3.65092 27.3953 3.65092 26.4069C3.65092 25.4186 4.02952 24.5116 4.71905 23.8212L9.68115 18.8527C9.72171 18.8121 9.76227 18.7715 9.81635 18.7309L13.548 14.9944C13.1289 14.9132 12.7098 14.8726 12.2636 14.8726C10.5059 14.8726 8.85639 15.563 7.61248 16.795L2.6504 21.7634C1.4065 23.0089 0.730469 24.6606 0.730469 26.4206C0.730469 28.1806 1.42002 29.832 2.6504 31.0776C3.93486 32.3637 5.61142 33 7.28798 33C8.96454 33 10.6546 32.3637 11.9391 31.0776L16.9012 26.1092C18.1451 24.8636 18.8211 23.2119 18.8211 21.452C18.8211 21.0053 18.7805 20.5721 18.6994 20.1524L15.1029 23.7535C15.0353 23.8482 14.9542 23.9432 14.8596 24.0379Z" fill="var(--fill-0, #FFFFFE)"/>
<path id="Vector_7" d="M14.8596 24.0379L9.89747 29.0063C8.46429 30.4413 6.15224 30.4413 4.71905 29.0063C4.02952 28.3159 3.65092 27.3953 3.65092 26.4069C3.65092 25.4186 4.02952 24.5116 4.71905 23.8212L9.68115 18.8527C9.72171 18.8121 9.76227 18.7715 9.81635 18.7309L13.548 14.9944C13.1289 14.9132 12.7098 14.8726 12.2636 14.8726C10.5059 14.8726 8.85639 15.563 7.61248 16.795L2.6504 21.7634C1.4065 23.0089 0.730469 24.6606 0.730469 26.4206C0.730469 28.1806 1.42002 29.832 2.6504 31.0776C3.93486 32.3637 5.61142 33 7.28798 33C8.96454 33 10.6546 32.3637 11.9391 31.0776L16.9012 26.1092C18.1451 24.8636 18.8211 23.2119 18.8211 21.452C18.8211 21.0053 18.7805 20.5721 18.6994 20.1524L15.1029 23.7535C15.0353 23.8482 14.9542 23.9432 14.8596 24.0379Z" stroke="var(--stroke-0, #FFFFFE)" stroke-width="0.216216"/>
<path id="Vector_8" d="M30.6772 3.01326C28.1218 0.454565 23.9438 0.454565 21.3885 3.01326L16.4264 7.98173C14.8174 9.57922 14.2225 11.8265 14.6416 13.9114L18.2246 10.3374C18.3058 10.2291 18.4004 10.1343 18.495 10.0395L23.4435 5.07105C24.1603 4.35353 25.093 4.00153 26.026 4.00153C26.959 4.00153 27.9053 4.35353 28.6221 5.07105C30.0552 6.50607 30.0552 8.82108 28.6221 10.2561L23.6599 15.211C23.6513 15.2196 23.6416 15.2282 23.631 15.2372C23.6085 15.2566 23.5838 15.2781 23.5652 15.3058L19.8065 19.0694C20.2257 19.1506 20.6583 19.1912 21.0775 19.1912C22.754 19.1912 24.4442 18.555 25.7287 17.2688L30.6906 12.3004C33.2461 9.74168 33.2461 5.57195 30.6772 3.01326Z" fill="var(--fill-0, #FFFFFE)"/>
<path id="Vector_9" d="M30.6772 3.01326C28.1218 0.454565 23.9438 0.454565 21.3885 3.01326L16.4264 7.98173C14.8174 9.57922 14.2225 11.8265 14.6416 13.9114L18.2246 10.3374C18.3058 10.2291 18.4004 10.1343 18.495 10.0395L23.4435 5.07105C24.1603 4.35353 25.093 4.00153 26.026 4.00153C26.959 4.00153 27.9053 4.35353 28.6221 5.07105C30.0552 6.50607 30.0552 8.82108 28.6221 10.2561L23.6599 15.211C23.6513 15.2196 23.6416 15.2282 23.631 15.2372C23.6085 15.2566 23.5838 15.2781 23.5652 15.3058L19.8065 19.0694C20.2257 19.1506 20.6583 19.1912 21.0775 19.1912C22.754 19.1912 24.4442 18.555 25.7287 17.2688L30.6906 12.3004C33.2461 9.74168 33.2461 5.57195 30.6772 3.01326Z" stroke="var(--stroke-0, #FFFFFE)" stroke-width="0.216216"/>
<path id="Vector_10" d="M53.3229 29.9393C46.2911 29.9393 41.3789 24.629 41.3789 16.9998C41.3789 9.33704 46.3584 4.02686 53.4574 4.02686C59.1772 4.02686 63.6855 7.82465 64.3921 13.1684H60.8931C60.1192 9.53868 57.1921 7.2533 53.3566 7.2533C48.209 7.2533 44.7772 11.1855 44.7772 16.9998C44.7772 22.7806 48.209 26.6792 53.3566 26.6792C57.2258 26.6792 60.2202 24.5283 61.0276 21.1337H64.5603C63.7865 26.2759 59.1434 29.9393 53.3229 29.9393Z" fill="var(--fill-0, #FFFFFE)"/>
<path id="Vector_11" d="M70.6486 4.43018V29.5696H67.3516V4.43018H70.6486Z" fill="var(--fill-0, #FFFFFE)"/>
<path id="Vector_12" d="M82.1905 29.9729C77.11 29.9729 73.7118 26.3431 73.6445 20.7305C73.7118 15.2523 77.1436 11.6226 82.1905 11.6226C87.2372 11.6226 90.669 15.2523 90.7362 20.7305C90.669 26.3431 87.2707 29.9729 82.1905 29.9729ZM82.1905 26.8808C85.3531 26.8808 87.4726 24.4274 87.4726 20.7978C87.4726 17.1344 85.3866 14.681 82.1905 14.681C78.9942 14.681 76.9081 17.1344 76.9081 20.7978C76.9081 24.4274 79.0279 26.8808 82.1905 26.8808Z" fill="var(--fill-0, #FFFFFE)"/>
<path id="Vector_13" d="M102.344 29.9728C100.191 29.9728 98.2734 29.2671 96.8939 27.9226V29.5696H93.6641V4.43018H96.9614V13.5718C98.3406 12.261 100.157 11.6224 102.344 11.6224C107.324 11.6224 110.655 15.2858 110.655 20.7976C110.655 26.3095 107.324 29.9728 102.344 29.9728ZM102.176 26.8472C105.373 26.8472 107.324 24.5283 107.324 20.7976C107.324 17.0671 105.339 14.7145 102.176 14.7145C98.98 14.7145 96.9949 17.0671 96.9949 20.7976C96.9949 24.5283 98.9462 26.8472 102.176 26.8472Z" fill="var(--fill-0, #FFFFFE)"/>
<path id="Vector_14" d="M121.017 29.9729C116.004 29.9729 112.673 26.3431 112.605 20.7305C112.673 15.2187 116.004 11.6226 121.017 11.6226C126.063 11.6226 129.428 15.2523 129.428 20.7305V21.7052L115.869 21.6716C116.172 24.8309 118.157 26.8808 121.017 26.8808C123.439 26.8473 125.29 25.4359 125.727 23.2512H128.991C128.486 27.1833 125.222 29.9729 121.017 29.9729ZM116.104 18.714L125.929 18.7476C125.323 16.1933 123.506 14.681 121.017 14.681C118.561 14.681 116.71 16.227 116.104 18.714Z" fill="var(--fill-0, #FFFFFE)"/>
<path id="Vector_15" d="M135.617 20.5289V29.5697H132.32V11.9923H135.651V13.4039C137.131 12.0931 139.184 11.4546 141.27 11.6562V14.7482C137.737 14.3785 135.617 16.5631 135.617 20.5289Z" fill="var(--fill-0, #FFFFFE)"/>
</g>
<defs>
<clipPath id="clip0_0_29">
<rect width="142" height="34" fill="white"/>
</clipPath>
</defs>
</svg>
