<svg preserveAspectRatio="none" width="100%" height="100%" overflow="visible" style="display: block;" viewBox="0 0 177 29.9996" fill="none" xmlns="http://www.w3.org/2000/svg">
<g id="Group">
<path id="Vector" d="M67.1289 29.5246C64.5812 29.4554 62.0136 29.5765 59.4643 29.5229L64.9247 13.6351L53.8819 23.8747L48.1893 24.0137L43.9037 13.4005L37.8194 29.4835C30.5522 29.7494 23.304 29.4464 16.0244 29.5238C15.9083 28.5985 16.2276 28.3375 17.0862 28.1588C21.4068 27.259 28.2243 27.8461 32.8601 27.4468C35.0586 27.2573 38.0724 26.1995 35.3697 24.0475C33.3936 23.7191 19.8132 23.7083 19.2565 22.9139C18.597 21.9713 19.8837 21.1316 20.7821 20.9983C25.6916 20.2688 33.1505 21.4255 37.6934 20.2622C39.0306 19.9198 39.6835 17.8765 38.2641 17.2615L0 15.2446C13.4485 14.3118 26.9575 14.213 40.4277 13.5256C41.745 13.1354 42.1606 10.9554 40.8922 10.5076C36.4821 9.63494 30.3207 10.65 26.1387 9.70491C24.7932 9.40032 25.2728 7.66491 26.3685 7.41629L42.5721 6.90011C43.7053 6.70088 44.8478 4.76378 43.8074 3.93147C42.7671 3.09917 27.6901 3.38072 25.2079 2.79621C23.791 2.48997 24.2953 0.548751 25.6543 0.488653C32.1973 0.906864 39.9258 -0.498422 46.3509 0.258144C47.3615 0.376692 48.1835 0.683763 48.7227 1.5918C50.3886 4.39332 51.4396 10.9628 52.7802 14.3843C52.9312 14.7695 53.0276 15.7624 53.5403 15.7114C54.5789 15.6076 66.7689 3.00533 68.7532 1.53582C69.1548 1.15713 70.7691 0.270492 71.1939 0.270492H77.3494L67.1289 29.2966V29.5271V29.5246Z" fill="var(--fill-0, #C2C2C1)"/>
<path id="Vector_2" d="M177 0.267578L174.883 6.69138C169.08 7.12688 162.628 6.20319 156.9 6.71031C153.546 7.00751 152.004 8.15841 151.449 11.556H173.05L170.803 18.016L149.117 18.3445C147.942 19.6031 148.601 23.0749 150.402 23.0749H169.101C169.021 24.2332 167.577 29.5349 166.662 29.7547C160.098 28.7429 141.931 33.2057 140.789 23.3942C140.408 20.1251 144.79 7.29977 147.029 4.75593C148.772 2.77602 153.088 0.269224 155.745 0.269224H176.998L177 0.267578Z" fill="var(--fill-0, #C2C2C1)"/>
<path id="Vector_3" d="M67.1299 29.2935L92.2084 2.44738C94.4632 -0.0026017 100.873 -1.54866 102.193 2.46879C104.009 8.00349 105.422 19.0071 106.311 25.1057C106.536 26.6477 106.896 28.1822 106.851 29.7537H99.3014C98.675 29.7537 98.4851 25.3765 98.2561 25.3765H84.0866C84.3065 24.3787 89.119 18.9264 89.5454 18.9264H97.0946L95.3558 8.56248L76.0853 29.5356C73.1452 30.1249 70.0085 29.6015 67.1299 29.5232V29.2935Z" fill="var(--fill-0, #C2C2C1)"/>
<path id="Vector_4" d="M144.712 0.267578C145.012 0.559831 143.112 6.58766 142.635 6.83546L124.186 6.74819C121.611 7.03962 120.435 8.02094 119.389 10.284C118.604 11.9816 116.11 19.5875 116.389 21.1015C116.569 22.0787 117.352 22.6031 118.224 22.9654C120.551 23.8849 136.813 22.4138 137.512 23.074C137.768 23.3152 135.615 29.4337 135.191 29.6411C134.915 29.7761 134.668 29.7332 134.39 29.7679C130.84 30.205 116.105 30.0733 113.125 28.9445C108.791 27.3022 108.006 23.5613 108.865 19.4287C110.376 12.1643 114.508 0.267578 123.691 0.267578H144.712Z" fill="var(--fill-0, #C2C2C1)"/>
<path id="Vector_5" d="M14.8256 22.8063C14.3486 23.0961 7.604 22.5988 6.61679 22.3791C6.25508 22.2984 6.21194 22.5313 6.27084 21.9222C7.56833 22.0704 14.7078 20.7976 15.0786 21.8365C15.1383 22.0036 14.9376 22.738 14.8256 22.8063Z" fill="var(--fill-0, #C2C2C1)"/>
<path id="Vector_6" d="M18.3002 7.47531C19.158 7.34853 21.2427 7.06946 21.3713 8.22447C21.7181 11.3504 12.459 8.33973 18.3002 7.47531Z" fill="var(--fill-0, #C2C2C1)"/>
<path id="Vector_7" d="M17.5901 0.553878C20.5425 -0.0158106 20.9574 2.1765 19.1538 2.5626C16.2494 3.18415 15.0465 1.04536 17.5901 0.553878Z" fill="var(--fill-0, #C2C2C1)"/>
<path id="Vector_8" d="M7.54782 29.5236C7.09902 29.4849 5.61487 29.2569 5.34277 28.8354C6.51084 28.6962 7.75687 28.4073 8.92992 28.3604C10.2705 28.3061 12.1305 27.8895 11.6128 29.5236C10.2838 29.4405 8.86687 29.6381 7.54782 29.5236Z" fill="var(--fill-0, #C2C2C1)"/>
<path id="Vector_9" d="M8.12914 8.55754C7.72513 8.24635 8.17642 8.14674 8.47342 8.09982C9.09311 8.00103 12.3509 7.61904 12.5401 8.21754C12.9698 9.57754 8.32076 8.70573 8.12914 8.55754Z" fill="var(--fill-0, #C2C2C1)"/>
</g>
</svg>
