<svg preserveAspectRatio="none" width="100%" height="100%" overflow="visible" style="display: block;" viewBox="0 0 420 174.632" fill="none" xmlns="http://www.w3.org/2000/svg">
<g id="HnGJObxUfF8EFkQPxENQF6pNVRo.svg" clip-path="url(#clip0_0_8)">
<path id="Vector" d="M69.8062 90.9808L42.7007 106.7L69.8062 122.306L101.682 103.82V62.7347L69.8062 44.2481V90.9808Z" fill="var(--fill-0, #FD4912)"/>
<path id="Vector_2" d="M57.2195 0L0 33.18V156.145L31.8758 174.632L31.9907 51.6114L89.0975 18.4866L57.2195 0ZM133.531 120.765V58.2584H157.655C164.901 58.2584 170.582 60.0268 174.702 63.5349C178.821 67.0453 180.896 71.9239 180.896 78.1421C180.896 84.3625 178.821 89.3274 174.702 92.8929C170.582 96.4585 164.901 98.2269 157.655 98.2269H144.955V120.765H133.531ZM144.924 88.2707H157.113C160.977 88.2707 163.93 87.4153 166.006 85.7308C168.08 84.0486 169.132 81.5087 169.132 78.1708C169.132 74.8329 168.08 72.408 166.006 70.7258C163.93 69.0414 160.977 68.2146 157.113 68.2146H144.922V88.2995L144.924 88.2707ZM185.379 67.5006V57.4582H197.029V67.5006H185.379ZM185.549 120.765V73.7476H196.772V120.765H185.549ZM204.699 120.765V73.7476H214.868L215.126 81.7652C216.404 78.5422 218.307 76.23 220.779 74.802C223.25 73.4049 226.064 72.6932 229.161 72.6932C234.303 72.6932 238.251 74.3481 241.007 77.658C243.764 80.9672 245.127 85.2755 245.127 90.552V120.739H233.905V94.1463C233.905 90.1526 233.308 87.0999 232.114 84.9881C230.923 82.877 228.792 81.8226 225.75 81.8226C222.711 81.8226 220.323 82.877 218.564 84.9881C216.801 87.0999 215.92 90.1526 215.92 94.1463V120.739H204.699V120.765ZM273.027 135.03C266.89 135.03 262.06 133.803 258.565 131.321C255.07 128.838 252.769 125.618 251.719 121.65L263.283 120.852C263.879 122.678 264.874 124.075 266.322 125.045C267.743 126.015 269.987 126.5 273.027 126.5C276.466 126.5 279.136 125.73 281.011 124.161C282.885 122.591 283.823 120.195 283.823 116.886V110.895C282.715 113.177 280.925 115.029 278.482 116.4C276.039 117.77 273.283 118.455 270.243 118.455C266.379 118.455 262.942 117.514 259.929 115.602C256.918 113.69 254.56 111.037 252.884 107.584C251.18 104.162 250.327 100.168 250.327 95.6583C250.327 91.1488 251.18 87.1566 252.884 83.7325C254.589 80.3084 256.89 77.6005 259.845 75.6309C262.798 73.6636 266.209 72.6909 270.073 72.6909C273.396 72.6909 276.294 73.4646 278.739 74.9744C281.181 76.5152 283 78.5422 284.165 81.0534V73.7476H295.132V116.63C295.132 122.678 293.114 127.24 289.079 130.353C285.045 133.461 279.705 135.001 273.027 135.001V135.03ZM272.856 109.666C276.181 109.666 278.851 108.413 280.869 105.931C282.888 103.448 283.88 99.9954 283.88 95.5743C283.938 91.2373 282.972 87.7844 280.953 85.2733C278.937 82.7643 276.238 81.48 272.856 81.48C269.474 81.48 266.72 82.7621 264.845 85.3042C262.942 87.8706 262.005 91.266 262.005 95.5743C262.005 99.8826 262.971 103.276 264.929 105.844C266.89 108.384 269.534 109.666 272.856 109.666ZM303.854 120.765V58.2584H319.196L336.385 106.673L353.574 58.2584H368.917V120.765H357.524V77.6293L341.84 120.681H330.958L315.276 77.6293V120.765H303.854ZM398.122 121.822C393.434 121.822 389.371 120.823 385.934 118.798C382.496 116.773 379.826 113.919 377.949 110.21C376.075 106.501 375.137 102.193 375.137 97.2565C375.137 92.3204 376.075 88.0143 377.949 84.3028C379.826 80.5958 382.467 77.742 385.876 75.7172C389.287 73.6923 393.292 72.6932 397.837 72.6932C402.384 72.6932 406.162 73.6923 409.487 75.6884C412.811 77.6845 415.395 80.5671 417.243 84.3051C419.089 88.0696 419.998 92.5768 419.998 97.8556V100.395H386.758C386.928 104.503 388.036 107.613 390.083 109.695C392.127 111.777 394.827 112.834 398.151 112.834C403.235 112.834 406.474 110.666 407.866 106.329L419.346 107.043C418.066 111.607 415.537 115.23 411.759 117.883C407.981 120.536 403.406 121.849 398.036 121.849L398.122 121.822ZM386.813 92.8355H408.463C408.18 89.0113 407.071 86.1862 405.167 84.3338C403.264 82.4769 400.821 81.5662 397.837 81.5662C394.853 81.5662 392.326 82.5344 390.394 84.4753C388.462 86.4161 387.269 89.2124 386.787 92.8355H386.813Z" fill="var(--fill-0, #FD4912)"/>
</g>
<defs>
<clipPath id="clip0_0_8">
<rect width="420" height="174.632" fill="white"/>
</clipPath>
</defs>
</svg>
