<svg width="1362" height="48" viewBox="0 0 1362 48" fill="none" xmlns="http://www.w3.org/2000/svg">
<g id="Chains ">
<g clip-path="url(#clip0_375_14)">
<g id="Section &#194;&#183; Hero" clip-path="url(#clip1_375_14)">
<rect width="1440" height="335" transform="translate(-78 -224.5)"/>
<g id="Frame 1547769804">
<g id="eth-logo-landscape-(gray) 1" clip-path="url(#clip2_375_14)">
<g id="Group">
<path id="Vector" d="M42.8226 26.654C42.8226 26.9011 42.6145 27.1092 42.3543 27.1092H33.73C33.9511 29.2426 35.5511 31.1938 37.8145 31.1938C39.3625 31.1938 40.5072 30.6084 41.3657 29.3727C41.4568 29.2426 41.5869 29.1515 41.743 29.1515C41.9901 29.1515 42.1722 29.3336 42.1722 29.5808C42.1722 29.6719 42.1462 29.7369 42.1072 29.8019C41.2357 31.3109 39.5056 32.0523 37.8145 32.0523C34.9137 32.0523 32.8324 29.4507 32.8324 26.68C32.8324 23.8962 34.9007 21.3076 37.8145 21.3076C40.7153 21.3076 42.8096 23.8832 42.8226 26.654ZM41.8991 26.2507C41.717 24.1174 40.0779 22.1662 37.8145 22.1662C35.5511 22.1662 33.9511 24.1174 33.73 26.2507H41.8991Z" fill="#848483"/>
<path id="Vector_2" d="M53.2942 21.5149C53.5413 21.5149 53.7235 21.7361 53.7235 21.9442C53.7235 22.1913 53.5413 22.3735 53.2942 22.3735H50.9787V31.4661C50.9787 31.6873 50.7966 31.8954 50.5495 31.8954C50.3023 31.8954 50.1202 31.6743 50.1202 31.4661V22.3735H47.8958C47.6487 22.3735 47.4666 22.1913 47.4666 21.9442C47.4666 21.7231 47.6487 21.5149 47.8958 21.5149H50.1202V18.1978C50.1202 17.9767 50.2893 17.7686 50.5105 17.7426C50.7836 17.7165 50.9918 17.9117 50.9918 18.1718V21.5149H53.2942Z" fill="#848483"/>
<path id="Vector_3" d="M67.421 25.9124V31.4149C67.421 31.662 67.1999 31.8441 66.9918 31.8441C66.7446 31.8441 66.5625 31.662 66.5625 31.4149V25.9124C66.5625 24.0523 65.5088 22.2051 63.4405 22.2051C60.7869 22.2051 59.6422 24.5206 59.7983 26.901C59.7983 26.9661 59.8243 27.2393 59.8243 27.2783V31.4019C59.8243 31.623 59.6552 31.8311 59.434 31.8571C59.1609 31.8832 58.9527 31.688 58.9527 31.4279V13.3336C58.9527 13.1124 59.1348 12.9043 59.382 12.9043C59.6291 12.9043 59.8113 13.1254 59.8113 13.3336V23.558C60.5527 22.2311 61.8796 21.3336 63.4275 21.3336C65.9771 21.3336 67.421 23.558 67.421 25.9124Z" fill="#848483"/>
<path id="Vector_4" d="M82.9137 26.654C82.9137 26.9011 82.7056 27.1092 82.4454 27.1092H73.821C74.0422 29.2426 75.6422 31.1938 77.9056 31.1938C79.4535 31.1938 80.5983 30.6084 81.4568 29.3727C81.5479 29.2426 81.6779 29.1515 81.834 29.1515C82.0812 29.1515 82.2633 29.3336 82.2633 29.5808C82.2633 29.6719 82.2373 29.7369 82.1983 29.8019C81.3267 31.3109 79.5966 32.0523 77.9056 32.0523C75.0048 32.0523 72.9235 29.4507 72.9235 26.68C72.9235 23.8962 74.9918 21.3076 77.9056 21.3076C80.7934 21.3076 82.8877 23.8832 82.9137 26.654ZM81.9771 26.2507C81.795 24.1174 80.156 22.1662 77.8926 22.1662C75.6422 22.1662 74.0292 24.1174 73.808 26.2507H81.9771Z" fill="#848483"/>
<path id="Vector_5" d="M93.5023 21.9189C93.5023 22.192 93.3462 22.3481 93.0991 22.3872C90.5625 22.7644 89.4178 24.8327 89.4178 27.2392V31.3628C89.4178 31.5839 89.2487 31.792 89.0275 31.8181C88.7544 31.8441 88.5462 31.649 88.5462 31.3888V21.9839C88.5462 21.7628 88.7153 21.5546 88.9365 21.5286C89.2096 21.5026 89.4178 21.6977 89.4178 21.9579V23.8701C90.1332 22.6603 91.5511 21.5156 93.034 21.5156C93.2552 21.5156 93.5023 21.6717 93.5023 21.9189Z" fill="#848483"/>
<path id="Vector_6" d="M107.694 26.654C107.694 26.9011 107.486 27.1092 107.226 27.1092H98.6015C98.8227 29.2426 100.423 31.1938 102.686 31.1938C104.234 31.1938 105.379 30.6084 106.237 29.3727C106.328 29.2426 106.458 29.1515 106.615 29.1515C106.862 29.1515 107.044 29.3336 107.044 29.5808C107.044 29.6719 107.018 29.7369 106.979 29.8019C106.107 31.3109 104.377 32.0523 102.686 32.0523C99.7853 32.0523 97.7039 29.4507 97.7039 26.68C97.7039 23.8962 99.7722 21.3076 102.686 21.3076C105.587 21.3076 107.681 23.8832 107.694 26.654ZM106.771 26.2507C106.589 24.1174 104.949 22.1662 102.686 22.1662C100.423 22.1662 98.8227 24.1174 98.6015 26.2507H106.771Z" fill="#848483"/>
<path id="Vector_7" d="M121.639 22.0231V25.0019V31.467C121.639 31.7141 121.418 31.8962 121.21 31.8962C120.962 31.8962 120.78 31.7141 120.78 31.467V29.6718C120.065 31.0897 118.803 32.1174 117.19 32.1174C114.628 32.1174 113.21 29.893 113.21 27.5385V22.0101C113.21 21.7889 113.392 21.5808 113.639 21.5808C113.886 21.5808 114.068 21.8019 114.068 22.0101V27.5385C114.068 29.3987 115.122 31.2458 117.19 31.2458C120.091 31.2458 120.78 28.5271 120.78 25.5223V21.997C120.78 21.7369 121.054 21.4767 121.366 21.5938C121.522 21.6718 121.639 21.8409 121.639 22.0231Z" fill="#848483"/>
<path id="Vector_8" d="M143.48 25.8733V31.4018C143.48 31.6489 143.258 31.8311 143.05 31.8311C142.803 31.8311 142.621 31.6489 142.621 31.4018V25.8733C142.621 24.0132 141.567 22.192 139.499 22.192C136.897 22.192 135.909 24.9758 135.909 27.1351V31.4018C135.909 31.6489 135.688 31.8311 135.48 31.8311C135.232 31.8311 135.05 31.6489 135.05 31.4018V25.8733C135.05 24.0132 133.997 22.192 131.928 22.192C129.301 22.192 128.221 24.2603 128.312 27.0181C128.312 27.0831 128.338 27.2002 128.312 27.2392V31.3888C128.312 31.6099 128.143 31.818 127.922 31.8441C127.649 31.8701 127.441 31.675 127.441 31.4148V21.9839C127.441 21.7628 127.61 21.5546 127.831 21.5286C128.104 21.5026 128.312 21.6977 128.312 21.9579V23.5319C129.054 22.205 130.38 21.3335 131.928 21.3335C133.684 21.3335 135.05 22.4522 135.61 24.0782C136.325 22.4652 137.717 21.3335 139.499 21.3335C142.036 21.3335 143.48 23.5319 143.48 25.8733Z" fill="#848483"/>
</g>
<path id="Vector_9" opacity="0.6" d="M13.7886 19.4209L2.99182 24.325L13.7886 30.712L24.5983 24.325L13.7886 19.4209Z" fill="#848483"/>
<path id="Vector_10" opacity="0.45" d="M2.99182 24.3256L13.7886 30.7126V19.4215V6.40039L2.99182 24.3256Z" fill="#848483"/>
<path id="Vector_11" opacity="0.8" d="M13.7886 6.40039V19.4215V30.7126L24.5983 24.3256L13.7886 6.40039Z" fill="#848483"/>
<path id="Vector_12" opacity="0.45" d="M2.99182 26.3804L13.7886 41.5999V32.7544L2.99182 26.3804Z" fill="#848483"/>
<path id="Vector_13" opacity="0.8" d="M13.7886 32.7544V41.5999L24.5983 26.3804L13.7886 32.7544Z" fill="#848483"/>
</g>
<g id="Wordmark_light 1" clip-path="url(#clip3_375_14)">
<path id="Vector_14" d="M357.856 33.4514H362.891L364.939 18.9179H365.363L368.535 33.4514H374.381L381.427 18.9179H381.796L379.767 33.4514H384.986L387.642 14.4934H378.881L372.205 28.2122L369.198 14.4934H360.511L357.855 33.4514H357.856ZM345.536 33.8956C352.397 33.8956 355.477 32.1737 356.011 27.897C356.473 24.1571 354.481 22.3984 349.648 21.9542L344.779 21.51C342.953 21.3433 342.437 20.9545 342.474 20.1029C342.529 18.6772 343.986 18.0849 347.141 18.0849C350.295 18.0849 351.327 18.6772 351.272 20.4544H356.583C357.137 15.937 354.481 14.0488 347.546 14.0488C340.611 14.0488 337.771 15.8447 337.236 20.0656C336.794 23.5648 338.509 25.3049 343.23 25.7495L348.449 26.231C350.146 26.379 350.829 26.8604 350.662 27.9528C350.478 29.2859 349.224 29.8596 345.886 29.8596C342.381 29.8596 341.201 29.2114 341.349 27.4342H335.982C335.446 31.9516 338.268 33.8956 345.535 33.8956H345.536ZM327.203 33.4514H332.607L335.263 14.4934H329.859L327.203 33.4514ZM287.808 33.4514H293.212L295.868 14.493H290.463L287.808 33.451L287.808 33.4514ZM272.924 33.4514H278.328L280.338 19.1218H287.494L288.14 14.4934H268.036L267.391 19.1218H274.934L272.923 33.4514H272.924ZM251.234 24.1943L251.99 18.7512H257.597C259.774 18.7512 260.603 19.6029 260.364 21.4728C260.105 23.3795 258.999 24.1943 256.583 24.1943H251.234H251.234ZM244.706 33.4514H249.925L250.626 28.4524H256.86C262.301 28.4524 265.03 26.3604 265.694 21.6022C266.358 16.8627 263.997 14.493 258.556 14.493H247.361L244.705 33.451L244.706 33.4514ZM231.629 29.3599C227.793 29.3599 226.354 27.7861 226.871 24.1207C227.424 20.2141 229.379 18.5849 233.4 18.5849C237.42 18.5849 238.656 20.1587 238.14 23.8242C237.586 27.6749 235.705 29.3599 231.629 29.3599ZM231.26 33.8956C238.712 33.8956 242.511 30.8592 243.451 24.1203C244.392 17.3813 241.22 14.0488 233.768 14.0488C226.317 14.0488 222.499 17.0851 221.559 23.8242C220.618 30.5631 223.809 33.8956 231.26 33.8956H231.26ZM296.642 33.4514H301.678L303.724 18.9179H304.149L307.321 33.4514H313.168L320.213 18.9179H320.581L318.553 33.4514H323.772L326.428 14.4934H317.668L310.991 28.2122L307.984 14.4934H299.298L296.642 33.4514H296.642Z" fill="#848483"/>
</g>
<g id="Polygon_Logo 1">
<path id="Vector_15" d="M479.187 20.1094L476.709 18.6744L469.276 22.979V31.5877L476.709 35.8923L484.144 31.5877V18.196L488.274 15.8048L492.404 18.196V22.979L488.274 25.3703L485.796 23.9357V27.7614L488.274 29.1964L495.708 24.8918V16.2831L488.274 11.9785L480.84 16.2831V29.6749L476.709 32.066L472.58 29.6749V24.8918L476.709 22.5006L479.187 23.9351V20.1094Z" fill="#848483"/>
<path id="Vector_16" fill-rule="evenodd" clip-rule="evenodd" d="M531.968 30.5082H535.314V12.1567H531.968V30.5082ZM510.456 17.4634C512.042 17.4634 513.357 18.1008 514.396 19.3737C515.438 20.6466 515.957 22.2256 515.957 24.1107C515.957 25.9958 515.436 27.5748 514.396 28.8478C513.355 30.1207 512.042 30.7581 510.456 30.7581C509.333 30.7581 508.357 30.4112 507.532 29.7158C506.722 29.0048 506.128 28.0456 505.747 26.8386V35.4681H502.4V17.7114H505.747V21.3809C506.126 20.1739 506.722 19.2226 507.532 18.529C508.359 17.8179 509.333 17.4634 510.456 17.4634ZM509.24 27.7066C510.148 27.7066 510.917 27.3676 511.544 26.6895C512.172 25.9958 512.485 25.1356 512.485 24.1107C512.485 23.0858 512.172 22.2586 511.544 21.5804C510.917 20.8868 510.148 20.5381 509.24 20.5381C508.231 20.5381 507.398 20.8772 506.736 21.5553C506.076 22.2334 505.744 23.0839 505.744 24.1088C505.744 25.1337 506.076 25.9939 506.736 26.6875C507.396 27.3657 508.231 27.7047 509.24 27.7047V27.7066ZM516.846 24.1107C516.846 25.9958 517.499 27.5748 518.804 28.8478C520.109 30.1207 521.738 30.7581 523.688 30.7581C525.638 30.7581 527.266 30.1207 528.571 28.8478C529.877 27.5748 530.529 25.9958 530.529 24.1107C530.529 22.2256 529.877 20.6466 528.571 19.3737C527.266 18.1008 525.638 17.4634 523.688 17.4634C521.738 17.4634 520.109 18.1008 518.804 19.3737C517.499 20.6466 516.846 22.2256 516.846 24.1107ZM521.282 26.6895C520.638 25.9958 520.316 25.1356 520.316 24.1107C520.316 23.0858 520.638 22.2586 521.282 21.5804C521.927 20.8868 522.729 20.5381 523.688 20.5381C524.646 20.5381 525.448 20.8772 526.093 21.5553C526.738 22.2334 527.059 23.0839 527.059 24.1088C527.059 25.1337 526.738 25.9939 526.093 26.6875C525.448 27.3657 524.646 27.7047 523.688 27.7047C522.729 27.7047 521.927 27.3657 521.282 26.6875V26.6895ZM566.227 28.8478C564.922 27.5748 564.27 25.9958 564.27 24.1107C564.27 22.2256 564.922 20.6466 566.227 19.3737C567.533 18.1008 569.161 17.4634 571.111 17.4634C573.061 17.4634 574.69 18.1008 575.995 19.3737C577.3 20.6466 577.953 22.2256 577.953 24.1107C577.953 25.9958 577.3 27.5748 575.995 28.8478C574.69 30.1207 573.061 30.7581 571.111 30.7581C569.161 30.7581 567.535 30.1207 566.227 28.8478ZM567.738 24.1107C567.738 25.1356 568.059 25.9958 568.704 26.6895C569.349 27.3676 570.151 27.7066 571.109 27.7066C572.068 27.7066 572.869 27.3676 573.514 26.6895C574.159 25.9958 574.481 25.1356 574.481 24.1107C574.481 23.0858 574.159 22.2334 573.514 21.5572C572.869 20.8791 572.068 20.54 571.109 20.54C570.151 20.54 569.349 20.8869 568.704 21.5824C568.059 22.2605 567.738 23.1033 567.738 24.1127V24.1107ZM586.858 17.4634C588.28 17.4634 589.42 17.9594 590.278 18.9513C591.153 19.9433 591.591 21.2085 591.591 22.7449V30.5063H588.245V23.3396C588.245 22.5124 587.981 21.8342 587.451 21.3053C586.922 20.7764 586.262 20.511 585.468 20.511C584.575 20.511 583.849 20.7764 583.287 21.3053C582.726 21.8342 582.445 22.5124 582.445 23.3396V30.5063H579.099V17.7114H582.445V20.9857C582.776 19.8949 583.33 19.0346 584.107 18.4069C584.9 17.7792 585.816 17.4653 586.858 17.4653V17.4634ZM543.352 27.0964L546.772 17.723H550.169L543.13 35.4796H539.733L541.518 30.9654L536.288 17.723H539.907L543.352 27.0964ZM559.684 17.7114V20.9178C558.987 18.8254 557.266 17.7114 554.975 17.7114C551.516 17.7114 549.471 20.7338 549.471 23.9113C549.471 27.0886 551.501 30.3591 554.975 30.3591C557.266 30.3591 558.987 28.7064 559.684 26.6138V29.0687C559.684 30.111 559.345 30.9693 558.668 31.6474C557.99 32.3254 557.165 32.6645 556.189 32.6645C554.866 32.6645 553.884 32.0039 553.24 30.6806L550.24 32.2675C550.802 33.3097 551.603 34.1429 552.645 34.7725C553.687 35.4002 554.868 35.7141 556.189 35.7141C558.139 35.7141 559.767 35.0785 561.073 33.8038C562.378 32.5308 563.03 30.9518 563.03 29.0667V17.7114H559.684ZM558.718 26.3426C558.073 26.9879 557.264 27.3094 556.29 27.3094C555.315 27.3094 554.555 26.9879 553.91 26.3426C553.265 25.6821 552.943 24.8721 552.943 23.9131C552.943 22.9541 553.265 22.152 553.91 21.5068C554.555 20.8617 555.347 20.54 556.29 20.54C557.233 20.54 558.075 20.8617 558.718 21.5068C559.363 22.1346 559.684 22.9367 559.684 23.9131C559.684 24.8896 559.363 25.6994 558.718 26.3426Z" fill="#848483"/>
</g>
<g id="1225_Arbitrum_Logo_OneColorNavy_Clearspace 1" clip-path="url(#clip4_375_14)">
<path id="Vector_17" d="M702.863 14.234L690.058 6.79818C689.643 6.56104 689.19 6.43799 688.73 6.43799C688.27 6.43799 687.817 6.55976 687.41 6.79818L674.602 14.2404C673.789 14.7147 673.281 15.5902 673.281 16.5362V31.422C673.281 32.368 673.789 33.2537 674.602 33.7254L676.905 35.0637L680.265 37.0146L681.017 34.9419L687.937 15.8581C687.999 15.6722 687.866 15.4723 687.658 15.4723H684.414C684.173 15.4723 683.95 15.6248 683.873 15.8504L677.661 32.991L675.689 31.845C675.54 31.7591 675.448 31.6002 675.448 31.4297V16.5375C675.448 16.367 675.54 16.208 675.689 16.1222L688.498 8.6799C688.569 8.63503 688.654 8.61709 688.735 8.61709C688.816 8.61709 688.898 8.63888 688.976 8.6799L701.788 16.1222C701.937 16.208 702.029 16.367 702.029 16.5375V31.4233C702.029 31.5938 701.937 31.7527 701.788 31.8386L699.837 32.973L694.705 18.8114C694.612 18.5512 694.256 18.5512 694.164 18.8114L692.473 23.4696C692.424 23.599 692.424 23.7439 692.473 23.8695L696.477 34.9239L695.146 35.6994L691.868 26.6472C691.776 26.387 691.419 26.387 691.327 26.6472L689.636 31.3054C689.588 31.4348 689.588 31.5797 689.636 31.7053L691.791 37.6504L688.98 39.286C688.909 39.3309 688.825 39.3488 688.739 39.3488C688.653 39.3488 688.576 39.327 688.498 39.286L685.72 37.6696L693.623 15.8645C693.693 15.6722 693.552 15.4671 693.352 15.4671H690.108C689.867 15.4671 689.644 15.6197 689.567 15.8453L682.362 35.7148L681.609 37.7875L684.969 39.7385L687.42 41.1626C687.828 41.3997 688.284 41.5228 688.74 41.5228C689.197 41.5228 689.653 41.401 690.061 41.1626L702.872 33.7203C703.691 33.246 704.193 32.3706 704.193 31.4169V16.5388C704.193 15.5928 703.685 14.707 702.872 14.2353H702.865L702.863 14.234Z" fill="#848483"/>
<path id="Vector_18" d="M718.085 19.4688C718.408 19.4688 718.688 19.5341 718.911 19.67C719.134 19.8059 719.355 20.0648 719.571 20.4519L723.833 28.1864C723.876 28.2723 723.883 28.3441 723.862 28.4018C723.841 28.4595 723.776 28.4877 723.676 28.4877H722.041C721.897 28.4877 721.797 28.43 721.746 28.3223L720.835 26.6649H714.786L713.896 28.3223C713.838 28.4377 713.738 28.4877 713.601 28.4877H711.93C711.816 28.4877 711.75 28.4582 711.729 28.4018C711.707 28.3441 711.714 28.2723 711.758 28.1864L715.984 20.4519C716.2 20.0648 716.407 19.8059 716.616 19.67C716.824 19.5341 717.061 19.4688 717.334 19.4688H718.088H718.085ZM715.58 25.16H720.014L717.97 21.3864C717.934 21.3287 717.89 21.2928 717.826 21.2928H717.747C717.689 21.2928 717.639 21.3223 717.603 21.3864L715.579 25.16H715.58Z" fill="#848483"/>
<path id="Vector_19" d="M733.198 19.4688C734.187 19.4688 734.891 19.6918 735.322 20.1366C735.752 20.5814 735.968 21.2415 735.968 22.117V22.8489C735.968 23.5872 735.818 24.1692 735.515 24.5999C735.214 25.0306 734.726 25.3036 734.044 25.4254L736.247 28.1518C736.291 28.1954 736.305 28.2595 736.283 28.3454C736.269 28.4325 736.197 28.4736 736.076 28.4736H734.418C734.304 28.4736 734.232 28.4595 734.189 28.4377C734.145 28.4082 734.103 28.3659 734.059 28.3082L732.021 25.6318H727.86V28.1941C727.86 28.38 727.767 28.4748 727.581 28.4748H726.189C725.988 28.4748 725.894 28.3813 725.894 28.1941V19.8559C725.894 19.5969 726.023 19.4688 726.281 19.4688H733.198ZM727.867 24.0692H732.797C733.235 24.0692 733.543 23.9756 733.722 23.7898C733.902 23.6039 733.995 23.3155 733.995 22.9284V22.39C733.995 22.0029 733.902 21.7158 733.722 21.5286C733.543 21.3428 733.234 21.2479 732.797 21.2479H728.032C727.918 21.2479 727.867 21.2979 727.867 21.4056V24.0679V24.0692Z" fill="#848483"/>
<path id="Vector_20" d="M746.738 19.4686C747.621 19.4686 748.251 19.648 748.624 19.9992C748.997 20.3505 749.183 20.8824 749.183 21.5913V22.2078C749.183 22.9256 748.91 23.4704 748.358 23.8434C748.946 24.187 749.247 24.7407 749.247 25.5008V26.2468C749.247 26.5904 749.212 26.8993 749.132 27.1723C749.053 27.4454 748.931 27.6812 748.753 27.876C748.573 28.0696 748.344 28.2196 748.049 28.3208C747.754 28.4221 747.396 28.4785 746.966 28.4785H739.316C739.057 28.4785 738.929 28.3503 738.929 28.0914V19.8544C738.929 19.5955 739.058 19.4673 739.316 19.4673H746.736L746.738 19.4686ZM740.903 23.2153H746.184C746.615 23.2153 746.902 23.15 747.059 23.0218C747.217 22.8923 747.289 22.7065 747.289 22.4552V22.0168C747.289 21.7515 747.217 21.5579 747.066 21.4285C746.916 21.3067 746.671 21.2426 746.34 21.2426H741.073C740.958 21.2426 740.908 21.3003 740.908 21.408V23.2153H740.9H740.901H740.903ZM740.903 24.6215V26.5378C740.903 26.6519 740.96 26.7032 741.068 26.7032H746.349C746.693 26.7032 746.938 26.6378 747.081 26.5173C747.225 26.3955 747.304 26.1943 747.304 25.9225V25.4342C747.304 25.1688 747.225 24.9676 747.067 24.8317C746.909 24.6958 746.615 24.6241 746.184 24.6241H740.903V24.6215Z" fill="#848483"/>
<path id="Vector_21" d="M754.049 19.4686C754.235 19.4686 754.329 19.5621 754.329 19.748V28.1939C754.329 28.3798 754.235 28.4734 754.049 28.4734H752.657C752.456 28.4734 752.362 28.3798 752.362 28.1939V19.7557C752.362 19.5698 752.462 19.475 752.657 19.475L754.049 19.4673V19.4686Z" fill="#848483"/>
<path id="Vector_22" d="M767.539 19.4688C767.74 19.4688 767.834 19.5623 767.834 19.7482V21.0108C767.834 21.212 767.734 21.3056 767.539 21.3056H763.499V28.1941C763.499 28.38 763.405 28.4736 763.218 28.4736H761.812C761.626 28.4736 761.533 28.38 761.533 28.1941V21.3056H757.492C757.291 21.3056 757.197 21.2056 757.197 21.0108V19.7482C757.197 19.5623 757.297 19.4688 757.492 19.4688H767.539Z" fill="#848483"/>
<path id="Vector_23" d="M777.721 19.4688C778.71 19.4688 779.414 19.6918 779.845 20.1366C780.275 20.5814 780.491 21.2415 780.491 22.117V22.8489C780.491 23.5872 780.341 24.1692 780.038 24.5999C779.737 25.0306 779.249 25.3036 778.567 25.4254L780.77 28.1518C780.814 28.1954 780.828 28.2595 780.806 28.3454C780.792 28.4325 780.72 28.4736 780.598 28.4736H778.941C778.826 28.4736 778.755 28.4595 778.711 28.4377C778.668 28.4082 778.626 28.3659 778.583 28.3082L776.545 25.6318H772.383V28.1941C772.383 28.38 772.29 28.4748 772.104 28.4748H770.712C770.51 28.4748 770.417 28.3813 770.417 28.1941V19.8559C770.417 19.5969 770.546 19.4688 770.804 19.4688H777.721ZM772.396 24.0692H777.326C777.764 24.0692 778.072 23.9756 778.251 23.7898C778.431 23.6039 778.524 23.3155 778.524 22.9284V22.39C778.524 22.0029 778.431 21.7158 778.251 21.5286C778.072 21.3428 777.763 21.2479 777.326 21.2479H772.561C772.447 21.2479 772.396 21.2979 772.396 21.4056V24.0679V24.0692Z" fill="#848483"/>
<path id="Vector_24" d="M784.962 19.4688C785.147 19.4688 785.242 19.5623 785.242 19.7482V24.8857C785.242 25.2293 785.272 25.5177 785.328 25.7394C785.386 25.9689 785.478 26.1483 785.609 26.2778C785.738 26.4137 785.91 26.5072 786.132 26.5585C786.355 26.6162 786.628 26.6444 786.964 26.6444H790.53C790.867 26.6444 791.14 26.6149 791.362 26.5585C791.585 26.5008 791.757 26.4085 791.886 26.2778C792.014 26.1419 792.109 25.9625 792.159 25.7394C792.209 25.51 792.239 25.2305 792.239 24.8857V19.7482C792.239 19.5623 792.332 19.4688 792.519 19.4688H793.925C794.111 19.4688 794.205 19.5623 794.205 19.7482V25.0793C794.205 25.6958 794.139 26.2201 794.011 26.6585C793.882 27.0892 793.674 27.4404 793.387 27.7134C793.1 27.9865 792.727 28.18 792.267 28.3018C791.808 28.4236 791.255 28.4812 790.602 28.4812H786.892C786.24 28.4812 785.687 28.4236 785.235 28.3018C784.782 28.18 784.409 27.9865 784.122 27.7134C783.835 27.4404 783.627 27.0892 783.49 26.6585C783.354 26.2278 783.289 25.6971 783.289 25.0793V19.7482C783.289 19.5623 783.389 19.4688 783.584 19.4688H784.962Z" fill="#848483"/>
<path id="Vector_25" d="M799.736 19.4688C799.922 19.4688 800.087 19.4828 800.224 19.5046C800.36 19.5341 800.483 19.5764 800.583 19.6546C800.684 19.7264 800.777 19.8264 800.863 19.9494C800.942 20.0712 801.028 20.2366 801.114 20.4442L803.79 26.6226C803.826 26.7021 803.884 26.7367 803.971 26.7367H804.129C804.215 26.7367 804.272 26.7008 804.308 26.6226L806.985 20.4442C807.071 20.2366 807.156 20.0712 807.236 19.9494C807.315 19.8277 807.408 19.7264 807.515 19.6546C807.617 19.5828 807.738 19.5328 807.868 19.5046C808.004 19.4752 808.161 19.4688 808.349 19.4688H809.725C810.17 19.4688 810.472 19.5687 810.63 19.77C810.788 19.9712 810.86 20.3148 810.86 20.8031V28.1941C810.86 28.38 810.758 28.4736 810.565 28.4736H809.252C809.065 28.4736 808.971 28.38 808.971 28.1941V21.471C808.971 21.3838 808.936 21.3415 808.871 21.3415H808.756C808.67 21.3415 808.613 21.3774 808.591 21.4415L805.993 27.211C805.893 27.4404 805.785 27.6417 805.677 27.7993C805.57 27.957 805.454 28.0864 805.332 28.1941C805.211 28.2954 805.068 28.3736 804.909 28.4172C804.752 28.4607 804.566 28.4825 804.351 28.4825H803.734C803.519 28.4825 803.331 28.4607 803.174 28.4172C803.016 28.3736 802.873 28.3018 802.751 28.1941C802.629 28.0941 802.507 27.957 802.407 27.7993C802.3 27.6417 802.192 27.4481 802.091 27.211L799.494 21.4415C799.464 21.3697 799.414 21.3415 799.328 21.3415H799.213C799.141 21.3415 799.113 21.3851 799.113 21.471V28.1941C799.113 28.38 799.019 28.4736 798.832 28.4736H797.518C797.317 28.4736 797.224 28.38 797.224 28.1941V20.8031C797.224 20.3148 797.303 19.9712 797.453 19.77C797.611 19.5687 797.912 19.4688 798.364 19.4688H799.735H799.736Z" fill="#848483"/>
</g>
<g id="idBrnRyp_1_1781623203144 1" clip-path="url(#clip5_375_14)">
<path id="Vector_26" d="M908.367 26.6977C908.822 25.9185 909.954 25.9185 910.405 26.6977L915.246 35.0026C915.702 35.782 915.131 36.7521 914.225 36.7521H904.542C903.635 36.7521 903.069 35.782 903.52 35.0026L908.362 26.6977H908.367Z" fill="#848483"/>
<path id="Vector_27" d="M905.442 21.1678C905.883 20.3936 905.883 19.4384 905.442 18.6592L901.472 11.7065C901.026 10.9273 899.915 10.9273 899.469 11.7065L886.181 34.9977C885.735 35.7769 886.291 36.7522 887.182 36.7522H895.118C896.004 36.7522 896.82 36.2746 897.261 35.5005L905.437 21.1678H905.442Z" fill="#848483"/>
<path id="Vector_28" d="M932.906 34.8118V36.7524H931.755C930.378 36.7524 929.862 36.154 929.842 35.1386C929.141 36.1691 928.05 36.873 926.407 36.873C924.124 36.873 922.537 35.7368 922.537 33.7761C922.537 31.5842 924.079 30.3878 927.003 30.3878H929.617V29.7493C929.617 28.573 928.776 27.8491 927.334 27.8491C926.037 27.8491 925.176 28.4675 925.01 29.3975H922.807C923.053 27.3514 924.78 26.0493 927.439 26.0493C930.097 26.0493 931.82 27.3915 931.82 29.8902V34.123C931.82 34.661 932.005 34.8068 932.476 34.8068H932.906V34.8118ZM929.617 32.0418H926.903C925.546 32.0418 924.785 32.5597 924.785 33.6303C924.785 34.5202 925.526 35.1386 926.718 35.1386C928.53 35.1386 929.617 34.0426 929.617 32.454V32.0418Z" fill="#848483"/>
<path id="Vector_29" d="M937.742 36.7516L933.752 26.1743H936.14L939.144 34.3537L942.128 26.1743H944.472L940.461 36.7516H937.747H937.742Z" fill="#848483"/>
<path id="Vector_30" d="M955.818 34.8118V36.7524H954.667C953.29 36.7524 952.774 36.154 952.754 35.1386C952.053 36.1691 950.962 36.873 949.32 36.873C947.037 36.873 945.449 35.7368 945.449 33.7761C945.449 31.5842 946.991 30.3878 949.916 30.3878H952.529V29.7493C952.529 28.573 951.688 27.8491 950.246 27.8491C948.949 27.8491 948.088 28.4675 947.923 29.3975H945.719C945.965 27.3514 947.692 26.0493 950.351 26.0493C953.01 26.0493 954.732 27.3915 954.732 29.8902V34.123C954.732 34.661 954.917 34.8068 955.388 34.8068H955.818V34.8118ZM952.524 32.0418H949.81C948.454 32.0418 947.692 32.5597 947.692 33.6303C947.692 34.5202 948.434 35.1386 949.625 35.1386C951.438 35.1386 952.524 34.0426 952.524 32.454V32.0418Z" fill="#848483"/>
<path id="Vector_31" d="M965.992 34.792V36.7526H957.435V34.792H960.614V24.3957L957.435 25.4514V23.4807L960.154 22.4351H962.837V34.7971H965.997L965.992 34.792Z" fill="#848483"/>
<path id="Vector_32" d="M977.844 34.8118V36.7524H976.692C975.315 36.7524 974.799 36.154 974.78 35.1386C974.079 36.1691 972.987 36.873 971.345 36.873C969.061 36.873 967.474 35.7368 967.474 33.7761C967.474 31.5842 969.017 30.3878 971.94 30.3878H974.554V29.7493C974.554 28.573 973.713 27.8491 972.271 27.8491C970.974 27.8491 970.113 28.4675 969.948 29.3975H967.745C967.99 27.3514 969.718 26.0493 972.376 26.0493C975.035 26.0493 976.757 27.3915 976.757 29.8902V34.123C976.757 34.661 976.943 34.8068 977.413 34.8068H977.844V34.8118ZM974.554 32.0418H971.84C970.484 32.0418 969.722 32.5597 969.722 33.6303C969.722 34.5202 970.463 35.1386 971.655 35.1386C973.468 35.1386 974.554 34.0426 974.554 32.454V32.0418Z" fill="#848483"/>
<path id="Vector_33" d="M989.741 30.7196V36.7524H987.497V30.9257C987.497 29.0456 986.696 28.0149 985.109 28.0149C983.442 28.0149 982.435 29.2316 982.435 31.2777V36.7524H980.212V26.1749H982.145L982.39 27.5574C983.026 26.733 984.018 26.0493 985.62 26.0493C987.863 26.0493 989.735 27.2659 989.735 30.7196H989.741Z" fill="#848483"/>
<path id="Vector_34" d="M992.469 31.4837C992.469 28.221 994.547 26.0493 997.716 26.0493C1000.41 26.0493 1002.1 27.5574 1002.51 29.9555H1000.19C999.895 28.7137 999.013 27.9496 997.677 27.9496C995.909 27.9496 994.732 29.4176 994.732 31.4837C994.732 33.5499 995.904 34.9727 997.677 34.9727C998.993 34.9727 999.899 34.1884 1000.16 32.9668H1002.51C1002.12 35.3647 1000.33 36.873 997.651 36.873C994.482 36.873 992.464 34.7866 992.464 31.4837H992.469Z" fill="#848483"/>
<path id="Vector_35" d="M1014.81 30.7192V36.7518H1012.57V30.9052C1012.57 29.0852 1011.76 28.0145 1010.12 28.0145C1008.47 28.0145 1007.4 29.2562 1007.4 31.257V36.7518H1005.18V22.2935H1007.4V27.5218C1008.13 26.6119 1009.22 26.0539 1010.63 26.0539C1013.1 26.0539 1014.81 27.5218 1014.81 30.7242V30.7192Z" fill="#848483"/>
<path id="Vector_36" d="M1019.76 31.9818V32.0874C1019.82 33.882 1020.93 35.0635 1022.66 35.0635C1023.98 35.0635 1024.98 34.3797 1025.27 33.2034H1027.5C1027.13 35.2898 1025.38 36.8783 1022.79 36.8783C1019.5 36.8783 1017.44 34.7317 1017.44 31.4891C1017.44 28.2466 1019.5 26.0547 1022.56 26.0547C1025.62 26.0547 1027.62 27.9951 1027.68 31.0969C1027.68 31.3232 1027.66 31.6751 1027.62 31.9868H1019.76V31.9818ZM1019.84 30.3078H1025.37C1025.19 28.7391 1024.12 27.8494 1022.58 27.8494C1021.2 27.8494 1020 28.7995 1019.84 30.3078H1019.84Z" fill="#848483"/>
</g>
<g id="Base_Logo_0 1" clip-path="url(#clip6_375_14)">
<path id="Vector_37" d="M1134.92 35.6883C1133.1 35.6883 1131.34 35.0217 1130.31 33.2633H1129.71V35.188H1125.56V12.2925H1129.71V20.6218H1130.31C1131.37 18.7983 1133.36 18.0955 1135.16 18.0955C1139.63 18.0955 1142.66 21.6774 1142.66 26.7213C1142.66 31.7652 1139.34 35.6796 1134.92 35.6796V35.689V35.6883ZM1134.03 31.9777C1136.58 31.9777 1138.4 29.886 1138.4 26.897C1138.4 23.908 1136.54 21.8162 1134.03 21.8162C1131.51 21.8162 1129.72 23.806 1129.72 26.897C1129.72 29.9879 1131.54 31.9777 1134.03 31.9777ZM1150.31 35.6883C1147.13 35.6883 1144.54 33.7636 1144.54 30.6076C1144.54 27.4515 1147.39 25.6931 1150.84 25.3323L1155.72 24.8327V23.9072C1155.72 22.4822 1154.55 21.4822 1152.5 21.4822C1150.44 21.4822 1149.41 22.3426 1149.05 23.6383H1145.07C1145.47 20.4823 1148.09 18.0948 1152.5 18.0948C1156.91 18.0948 1159.56 20.1497 1159.56 24.1661V32.264C1159.56 33.2915 1159.67 34.7166 1159.73 35.1142V35.1793H1155.75C1155.72 34.6146 1155.72 34.0875 1155.72 33.5228H1155.11C1154.09 35.1793 1152.29 35.6789 1150.31 35.6789L1150.31 35.6883H1150.31ZM1151.44 32.5699C1154.16 32.5699 1155.72 30.515 1155.72 28.424V27.5911L1152.07 28.0264C1149.81 28.2946 1148.72 28.9518 1148.72 30.4138C1148.72 31.8758 1149.85 32.5699 1151.44 32.5699H1151.44ZM1169.52 35.6883C1165.34 35.6883 1162.36 33.5966 1161.89 30.3111H1165.97C1166.43 31.7731 1167.96 32.4029 1169.55 32.4029C1171.14 32.4029 1172.5 31.7088 1172.5 30.4782C1172.5 29.2476 1171.24 28.9142 1169.52 28.6178L1167.76 28.3214C1164.44 27.7567 1162.38 26.359 1162.38 23.3794C1162.38 20.3998 1165.23 18.1042 1169.18 18.1042C1173.13 18.1042 1175.58 19.8995 1176.28 23.0186H1172.3C1171.84 21.788 1170.61 21.2971 1169.21 21.2971C1167.81 21.2971 1166.43 22.0281 1166.43 23.0555C1166.43 24.0829 1167.29 24.4531 1169.08 24.7489L1170.84 25.0453C1174.06 25.5731 1176.51 26.9057 1176.51 30.126C1176.51 33.3464 1173.58 35.7064 1169.51 35.7064L1169.52 35.6876L1169.52 35.6883ZM1186.9 35.6883C1181.8 35.6883 1178.41 32.199 1178.41 26.8594C1178.41 21.5198 1181.99 18.0948 1186.94 18.0948C1191.89 18.0948 1195.1 21.9449 1195.1 27.0257V27.7567H1182.46C1182.67 30.5143 1184.59 32.1339 1186.91 32.1339C1189.23 32.1339 1190 31.4673 1190.57 30.3104H1194.81C1193.95 33.4296 1190.86 35.6876 1186.91 35.6876H1186.9L1186.9 35.6883ZM1191.05 25.0084C1190.71 22.7873 1188.96 21.4916 1186.9 21.4916C1184.85 21.4916 1182.93 22.7504 1182.53 25.0084H1191.06H1191.05H1191.05Z" fill="#848483"/>
<path id="Vector_38" d="M1103.61 35.1987C1102.94 35.1987 1102.61 34.8653 1102.61 34.1994V19.5949C1102.61 18.9283 1102.94 18.5957 1103.61 18.5957H1118.2C1118.87 18.5957 1119.2 18.929 1119.2 19.5949V34.1987C1119.2 34.8653 1118.87 35.1979 1118.2 35.1979H1103.61V35.1987Z" fill="#848483"/>
</g>
<g id="Frame 1547769803">
<g id="Scroll Full Coloured Logo">
<path d="M1305.07 18.2329C1303.35 18.2329 1302.03 19.2355 1302.03 20.7238C1302.03 22.1708 1303.15 22.6669 1304.55 22.9356L1306.3 23.225C1308.64 23.6177 1310.24 24.7133 1310.24 27.3178C1310.24 30.036 1308.06 31.6277 1305.28 31.6277C1302.78 31.6277 1300.41 30.1187 1300.07 27.1628C1300.04 26.9147 1300.23 26.6977 1300.47 26.6977H1301.52C1301.73 26.6977 1301.9 26.8527 1301.93 27.0594C1302.15 29.1472 1303.74 29.974 1305.29 29.974C1306.99 29.974 1308.33 29.1162 1308.33 27.3798C1308.33 25.8295 1307.25 25.2921 1305.82 25.013L1304.08 24.7029C1301.65 24.2895 1300.12 23.0906 1300.12 20.8168C1300.12 18.1813 1302.36 16.5689 1305.06 16.5689C1307.21 16.5689 1309.59 17.8092 1310.05 20.7548C1310.09 21.0028 1309.9 21.2406 1309.65 21.2406H1308.56C1308.36 21.2406 1308.19 21.0959 1308.16 20.8995C1307.85 18.9461 1306.45 18.2329 1305.07 18.2329Z" fill="#848483"/>
<path d="M1317.23 19.8453C1319.83 19.8453 1321.68 21.2613 1322.34 23.5764C1322.41 23.8348 1322.21 24.1035 1321.94 24.1035H1320.72C1320.55 24.1035 1320.4 23.9898 1320.34 23.8245C1319.88 22.5015 1318.83 21.747 1317.23 21.747C1315.06 21.747 1313.85 23.5557 1313.85 25.7365C1313.85 27.907 1315.07 29.726 1317.23 29.726C1318.83 29.726 1319.88 28.9715 1320.34 27.6486C1320.4 27.4832 1320.55 27.3695 1320.72 27.3695H1321.94C1322.21 27.3695 1322.41 27.6382 1322.33 27.8966C1321.63 30.3151 1319.84 31.6277 1317.23 31.6277C1313.89 31.6277 1311.77 28.9819 1311.77 25.7365C1311.76 22.5015 1313.89 19.8453 1317.23 19.8453Z" fill="#848483"/>
<path d="M1324.3 29.7466H1326.91V22.3051H1324.58C1324.36 22.3051 1324.17 22.119 1324.17 21.8917V20.8374C1324.17 20.6101 1324.36 20.424 1324.58 20.424H1327.76C1328.43 20.424 1328.97 20.9821 1328.97 21.6643V21.964C1329.55 20.548 1330.79 20.1966 1332.72 20.1966C1333.46 20.1966 1333.95 20.3207 1334.24 20.424C1334.4 20.486 1334.5 20.6411 1334.5 20.8064V21.902C1334.5 22.181 1334.24 22.3878 1333.97 22.2947C1333.63 22.1811 1333.15 22.0777 1332.51 22.0777C1330.45 22.0777 1328.98 23.5143 1328.98 26.0052V29.7466H1332.35C1332.57 29.7466 1332.75 29.9326 1332.75 30.16V31.2142C1332.75 31.4416 1332.57 31.6277 1332.35 31.6277H1324.31C1324.08 31.6277 1323.9 31.4416 1323.9 31.2142V30.16C1323.89 29.9326 1324.07 29.7466 1324.3 29.7466Z" fill="#848483"/>
<path d="M1336.04 25.7365C1336.04 22.5015 1338.14 19.8453 1341.55 19.8453C1344.97 19.8453 1347.07 22.4912 1347.07 25.7365C1347.07 28.9818 1344.97 31.6277 1341.55 31.6277C1338.14 31.6277 1336.04 28.9818 1336.04 25.7365ZM1341.55 29.726C1343.74 29.726 1345.01 27.9173 1345.01 25.7365C1345.01 23.566 1343.74 21.747 1341.55 21.747C1339.36 21.747 1338.1 23.5557 1338.1 25.7365C1338.1 27.9173 1339.36 29.726 1341.55 29.726Z" fill="#848483"/>
<path d="M1354.8 29.8398C1355.02 29.8398 1355.2 30.0258 1355.2 30.2532V31.2247C1355.2 31.4521 1355.02 31.6382 1354.8 31.6382H1350.06C1349.84 31.6382 1349.65 31.4521 1349.65 31.2247V18.4708H1348.08C1347.86 18.4708 1347.67 18.2847 1347.67 18.0574V17.0858C1347.67 16.8585 1347.86 16.6724 1348.08 16.6724H1350.41C1351.08 16.6724 1351.62 17.2305 1351.62 17.9127V29.8398H1354.8Z" fill="#848483"/>
<path d="M1361.79 29.8398C1362.01 29.8398 1362.19 30.0258 1362.19 30.2532V31.2247C1362.19 31.4521 1362.01 31.6382 1361.79 31.6382H1357.05C1356.83 31.6382 1356.65 31.4521 1356.65 31.2247V18.4708H1355.07C1354.85 18.4708 1354.67 18.2847 1354.67 18.0574V17.0858C1354.67 16.8585 1354.85 16.6724 1355.07 16.6724H1357.4C1358.07 16.6724 1358.62 17.2305 1358.62 17.9127V29.8398H1361.79Z" fill="#848483"/>
<path d="M1273.22 21.0441C1272.24 20.0933 1271.55 18.8633 1271.55 17.406V17.251C1271.63 14.7602 1273.63 12.7551 1276.07 12.6827H1291.56C1291.97 12.7034 1292.29 12.9928 1292.29 13.4165V26.832C1292.64 26.894 1292.82 26.9457 1293.16 27.0697C1293.43 27.173 1293.81 27.3901 1293.81 27.3901V13.4165C1293.79 12.1453 1292.8 11.1221 1291.55 11.1221H1276.05C1272.71 11.1737 1270.02 13.9747 1270.02 17.406C1270.02 19.4008 1270.91 21.1061 1272.37 22.305C1272.47 22.3877 1272.56 22.4911 1272.82 22.4911C1273.28 22.4911 1273.6 22.119 1273.58 21.7159C1273.57 21.3748 1273.43 21.2508 1273.22 21.0441Z" fill="#848483"/>
<path d="M1291.16 27.7106H1279.01C1278.19 27.7209 1277.53 28.3928 1277.53 29.2299V31.018C1277.55 31.8448 1278.24 32.5476 1279.06 32.5476H1279.95V31.018H1279.06V29.2713C1279.06 29.2713 1279.28 29.2713 1279.55 29.2713C1281.09 29.2713 1282.22 30.7286 1282.22 32.2892C1282.22 33.6742 1280.99 35.4415 1278.92 35.2968C1277.1 35.1728 1276.11 33.5088 1276.11 32.2892V17.1374C1276.11 16.4553 1275.56 15.8972 1274.89 15.8972H1273.68V17.4475H1274.58V32.2996C1274.53 35.3175 1276.68 36.8368 1278.92 36.8368L1291.17 36.8782C1293.63 36.8782 1295.63 34.8317 1295.63 32.2996C1295.63 29.7674 1293.62 27.7106 1291.16 27.7106ZM1294.11 32.3926C1294.06 34.0152 1292.76 35.3175 1291.16 35.3175L1282.64 35.2865C1283.32 34.4803 1283.73 33.4365 1283.73 32.2996C1283.73 30.5115 1282.69 29.2816 1282.69 29.2816H1291.17C1292.8 29.2816 1294.12 30.6356 1294.12 32.2996L1294.11 32.3926Z" fill="#848483"/>
<path d="M1287.89 17.7265H1278.72V16.1762H1287.89C1288.3 16.1762 1288.64 16.5172 1288.64 16.9513C1288.64 17.3751 1288.31 17.7265 1287.89 17.7265Z" fill="#848483"/>
<path d="M1287.89 25.0233H1278.72V23.473H1287.89C1288.3 23.473 1288.64 23.8141 1288.64 24.2482C1288.64 24.6719 1288.31 25.0233 1287.89 25.0233Z" fill="#848483"/>
<path d="M1289.5 21.3749H1278.72V19.8246H1289.49C1289.91 19.8246 1290.25 20.1656 1290.25 20.5997C1290.26 21.0235 1289.92 21.3749 1289.5 21.3749Z" fill="#848483"/>
</g>
</g>
</g>
</g>
</g>
</g>
<defs>
<clipPath id="clip0_375_14">
<path d="M-78 -224.5H1362V110.5H-78V-224.5Z" fill="white"/>
</clipPath>
<clipPath id="clip1_375_14">
<rect width="1440" height="335" fill="white" transform="translate(-78 -224.5)"/>
</clipPath>
<clipPath id="clip2_375_14">
<rect width="146.472" height="35.122" fill="white" transform="translate(0 6.43896)"/>
</clipPath>
<clipPath id="clip3_375_14">
<rect width="166.244" height="19.9024" fill="white" transform="translate(221.398 14.0488)"/>
</clipPath>
<clipPath id="clip4_375_14">
<rect width="137.796" height="35.122" fill="white" transform="translate(673.301 6.43896)"/>
</clipPath>
<clipPath id="clip5_375_14">
<rect width="141.659" height="25.7561" fill="white" transform="translate(886.024 11.1221)"/>
</clipPath>
<clipPath id="clip6_375_14">
<rect width="92.4878" height="23.4146" fill="white" transform="translate(1102.61 12.2925)"/>
</clipPath>
</defs>
</svg>
