<svg width="101" height="24" viewBox="0 0 101 24" fill="none" xmlns="http://www.w3.org/2000/svg" aria-hidden="true">
  <path d="M18.6751 20.0722L21.0027 21.2114C21.5869 21.4973 22.2941 21.2433 22.524 20.6349C23.1914 18.8685 23.716 16.7591 23.8939 14.5875C24.0972 12.1055 23.8459 9.56773 22.862 7.37176L22.8606 7.37236C22.8169 7.27774 22.7724 7.18338 22.7273 7.08933C22.3887 6.43889 21.7546 5.64113 20.8208 5.11327C19.7683 4.51831 18.3061 4.24904 16.3873 4.96891C15.9803 5.12162 15.5658 5.31898 15.1503 5.5544C15.6723 6.44387 16.0462 7.64349 16.0759 9.22531C16.1028 10.6549 15.8712 12.0088 15.5164 13.215L19.0122 14.515C19.7278 14.7811 20.1962 15.4886 20.0624 16.2402C19.8753 17.2912 19.5463 18.3142 19.0867 19.284C18.9622 19.5467 18.8253 19.8104 18.6751 20.0722Z" fill="#141413"/>
  <path d="M7.27356 19.1229C7.56071 19.0363 7.86398 18.911 8.18225 18.7369C9.53011 17.9993 10.5495 16.7949 11.2741 15.6134C11.757 14.8262 12.1168 14.0364 12.3601 13.3762C12.4574 13.1123 12.7487 12.9691 13.0123 13.0672L18.6017 15.1457C19.095 15.3292 19.4058 15.8253 19.2994 16.3408C19.1397 17.1146 18.8607 18.0387 18.4201 18.9684C17.728 20.429 16.6493 21.878 15.0352 22.7939C13.7016 23.5507 12.3376 23.9411 11.0625 23.9997C9.67326 23.7643 8.76186 23.1603 8.18123 22.3538C7.56649 21.4998 7.29314 20.3776 7.27356 19.1229Z" fill="#141413"/>
  <path d="M10.6507 0.107815C14.0832 -0.294501 16.6337 0.466115 18.5696 1.83524C19.5982 2.56271 20.4621 3.4682 21.1947 4.47787L21.1869 4.47341C19.9373 3.76707 18.2468 3.48713 16.1318 4.28062C13.2925 5.34584 10.2316 8.34756 8.60203 11.4087C7.54505 13.3942 6.50271 16.4388 6.54211 19.1259C6.56187 20.4728 6.85403 21.7638 7.58822 22.7837C7.84381 23.1387 8.14945 23.456 8.50878 23.7289C5.89413 23.0775 2.60422 21.2636 0.831215 17.0825C-0.716039 13.4338 0.0196402 9.39481 2.0243 6.14855C4.03203 2.89733 7.27429 0.503548 10.6507 0.107815Z" fill="#141413"/>
  <path d="M69.3837 3.55237H72.5006V20.1529H69.3837V3.55237Z" fill="#141413"/>
  <path d="M64.4907 7.86782H67.6302V20.1545H64.4907V7.86782ZM64.4456 3.64429H67.6753V6.53526H64.4456V3.64429Z" fill="#141413"/>
  <path d="M54.3209 16.5857C54.3209 17.0826 54.5016 17.459 54.863 17.715C55.2394 17.9559 55.7439 18.0764 56.3763 18.0764C57.3851 18.0764 58.1906 17.7903 58.7929 17.2181C59.3952 16.6459 59.6964 15.8855 59.6964 14.9369V14.3497L56.2407 15.0047C55.5481 15.1402 55.0512 15.3359 54.7501 15.5919C54.464 15.8328 54.3209 16.1641 54.3209 16.5857ZM51.1138 17.0148C51.1138 15.9759 51.4601 15.1703 52.1527 14.5981C52.8604 14.0109 53.9295 13.5893 55.3599 13.3333L59.6964 12.5428V12.4525C59.6964 11.6244 59.4705 11.007 59.0188 10.6005C58.5671 10.1939 57.9347 9.99065 57.1216 9.99065C56.2934 9.99065 55.661 10.1939 55.2244 10.6005C54.8028 11.007 54.5468 11.5792 54.4565 12.317H51.2719C51.4074 10.7661 52.0021 9.59164 53.0561 8.79361C54.1101 7.98052 55.4728 7.57397 57.1442 7.57397C58.936 7.57397 60.3212 8.01816 61.3 8.90653C62.2937 9.77985 62.7906 11.0447 62.7906 12.7009V20.1542H59.877L59.8093 18.3474C59.4329 18.9497 58.8381 19.4541 58.025 19.8606C57.227 20.2521 56.301 20.4479 55.247 20.4479C54.6898 20.4479 54.1553 20.3801 53.6434 20.2446C53.1465 20.1091 52.7098 19.9058 52.3334 19.6348C51.957 19.3487 51.6558 18.9948 51.43 18.5732C51.2192 18.1366 51.1138 17.6171 51.1138 17.0148Z" fill="#141413"/>
  <path d="M38.4598 7.86707H41.7573L44.9419 17.3305L48.1491 7.86707H51.4692L46.952 20.1537H42.9543L38.4598 7.86707Z" fill="#141413"/>
  <path d="M30.0385 16.5857C30.0385 17.0826 30.2192 17.459 30.5806 17.715C30.957 17.9559 31.4614 18.0764 32.0938 18.0764C33.1027 18.0764 33.9082 17.7903 34.5105 17.2181C35.1128 16.6459 35.4139 15.8855 35.4139 14.9369V14.3497L31.9583 15.0047C31.2657 15.1402 30.7688 15.3359 30.4677 15.5919C30.1816 15.8328 30.0385 16.1641 30.0385 16.5857ZM26.8314 17.0148C26.8314 15.9759 27.1777 15.1703 27.8703 14.5981C28.578 14.0109 29.6471 13.5893 31.0775 13.3333L35.4139 12.5428V12.4525C35.4139 11.6244 35.1881 11.007 34.7364 10.6005C34.2847 10.1939 33.6523 9.99065 32.8392 9.99065C32.011 9.99065 31.3786 10.1939 30.942 10.6005C30.5204 11.007 30.2644 11.5792 30.1741 12.317H26.9895C27.125 10.7661 27.7197 9.59164 28.7737 8.79361C29.8277 7.98052 31.1904 7.57397 32.8618 7.57397C34.6536 7.57397 36.0388 8.01816 37.0175 8.90653C38.0113 9.77985 38.5082 11.0447 38.5082 12.7009V20.1542H35.5946L35.5269 18.3474C35.1504 18.9497 34.5557 19.4541 33.7426 19.8606C32.9446 20.2521 32.0186 20.4479 30.9646 20.4479C30.4074 20.4479 29.8729 20.3801 29.361 20.2446C28.8641 20.1091 28.4274 19.9058 28.051 19.6348C27.6746 19.3487 27.3734 18.9948 27.1476 18.5732C26.9368 18.1366 26.8314 17.6171 26.8314 17.0148Z" fill="#141413"/>
  <path d="M92.5747 16.6943C92.5747 17.6602 93.343 18.1431 94.5723 18.1431C96.5259 18.1431 97.799 16.9138 97.799 15.0919V14.5212L94.4406 15.1578C93.1016 15.4212 92.5747 15.8822 92.5747 16.6943ZM89.4578 17.1114C89.4578 15.1139 90.8187 14.0383 93.5845 13.5334L97.799 12.7652V12.6774C97.799 11.075 96.8771 10.2847 95.2966 10.2847C93.6942 10.2847 92.8821 11.1189 92.7065 12.5457H89.6114C89.8748 9.53843 92.0699 7.93604 95.3186 7.93604C98.7868 7.93604 100.806 9.71403 100.806 12.9188V20.1625H97.9746L97.9087 18.4065C97.1844 19.5699 95.5161 20.4479 93.4747 20.4479C91.3016 20.4479 89.4578 19.4382 89.4578 17.1114Z" fill="#141413"/>
  <path d="M85.5663 14.17C85.5663 11.8432 84.4469 10.4603 82.5371 10.4603C80.6713 10.4603 79.6177 11.7993 79.6177 14.17C79.6177 16.5626 80.6933 17.9455 82.5591 17.9455C84.4249 17.9455 85.5663 16.5187 85.5663 14.17ZM88.5736 20.1625H85.7419L85.6761 18.1869C84.9737 19.6796 83.4152 20.4479 81.6811 20.4479C78.5641 20.4479 76.5007 17.9674 76.5007 14.1919C76.5007 10.4384 78.586 7.93601 81.6811 7.93601C83.4152 7.93601 84.8639 8.70429 85.6102 10.1311V4.02881H88.5736V20.1625Z" fill="#141413"/>
</svg>
