<svg width="154" height="24" viewBox="0 0 154 24" fill="none" xmlns="http://www.w3.org/2000/svg" aria-hidden="true">
  <path d="M18.6751 20.0722L21.0027 21.2114C21.5869 21.4973 22.2941 21.2433 22.524 20.6349C23.1914 18.8685 23.716 16.7591 23.8939 14.5875C24.0972 12.1055 23.8459 9.56773 22.862 7.37176L22.8606 7.37236C22.8169 7.27774 22.7724 7.18338 22.7273 7.08933C22.3887 6.43889 21.7546 5.64113 20.8208 5.11327C19.7683 4.51831 18.3061 4.24904 16.3873 4.96891C15.9803 5.12162 15.5658 5.31898 15.1503 5.5544C15.6723 6.44387 16.0462 7.64349 16.0759 9.22531C16.1028 10.6549 15.8712 12.0088 15.5164 13.215L19.0122 14.515C19.7278 14.7811 20.1962 15.4886 20.0624 16.2402C19.8753 17.2912 19.5463 18.3142 19.0867 19.284C18.9622 19.5467 18.8253 19.8104 18.6751 20.0722Z" fill="#141413"/>
  <path d="M7.27356 19.1229C7.56071 19.0363 7.86398 18.911 8.18225 18.7369C9.53011 17.9993 10.5495 16.7949 11.2741 15.6134C11.757 14.8262 12.1168 14.0364 12.3601 13.3762C12.4574 13.1123 12.7487 12.9691 13.0123 13.0672L18.6017 15.1457C19.095 15.3292 19.4058 15.8253 19.2994 16.3408C19.1397 17.1146 18.8607 18.0387 18.4201 18.9684C17.728 20.429 16.6493 21.878 15.0352 22.7939C13.7016 23.5507 12.3376 23.9411 11.0625 23.9997C9.67326 23.7643 8.76186 23.1603 8.18123 22.3538C7.56649 21.4998 7.29314 20.3776 7.27356 19.1229Z" fill="#141413"/>
  <path d="M10.6507 0.107815C14.0832 -0.294501 16.6337 0.466115 18.5696 1.83524C19.5982 2.56271 20.4621 3.4682 21.1947 4.47787L21.1869 4.47341C19.9373 3.76707 18.2468 3.48713 16.1318 4.28062C13.2925 5.34584 10.2316 8.34756 8.60203 11.4087C7.54505 13.3942 6.50271 16.4388 6.54211 19.1259C6.56187 20.4728 6.85403 21.7638 7.58822 22.7837C7.84381 23.1387 8.14945 23.456 8.50878 23.7289C5.89413 23.0775 2.60422 21.2636 0.831215 17.0825C-0.716039 13.4338 0.0196402 9.39481 2.0243 6.14855C4.03203 2.89733 7.27429 0.503548 10.6507 0.107815Z" fill="#141413"/>
  <path d="M69.3837 3.60474H72.5006V20.2053H69.3837V3.60474Z" fill="#141413"/>
  <path d="M64.4907 7.92019H67.6302V20.2069H64.4907V7.92019ZM64.4456 3.69666H67.6753V6.58763H64.4456V3.69666Z" fill="#141413"/>
  <path d="M54.3209 16.6381C54.3209 17.1349 54.5016 17.5114 54.863 17.7674C55.2394 18.0083 55.7439 18.1287 56.3763 18.1287C57.3851 18.1287 58.1906 17.8426 58.7929 17.2705C59.3952 16.6983 59.6964 15.9379 59.6964 14.9893V14.4021L56.2407 15.0571C55.5481 15.1926 55.0512 15.3883 54.7501 15.6443C54.464 15.8852 54.3209 16.2165 54.3209 16.6381ZM51.1138 17.0672C51.1138 16.0282 51.4601 15.2227 52.1527 14.6505C52.8604 14.0633 53.9295 13.6417 55.3599 13.3857L59.6964 12.5952V12.5049C59.6964 11.6767 59.4705 11.0594 59.0188 10.6528C58.5671 10.2463 57.9347 10.043 57.1216 10.043C56.2934 10.043 55.661 10.2463 55.2244 10.6528C54.8028 11.0594 54.5468 11.6316 54.4565 12.3694H51.2719C51.4074 10.8185 52.0021 9.644 53.0561 8.84597C54.1101 8.03289 55.4728 7.62634 57.1442 7.62634C58.936 7.62634 60.3212 8.07053 61.3 8.9589C62.2937 9.83222 62.7906 11.097 62.7906 12.7533V20.2066H59.877L59.8093 18.3998C59.4329 19.002 58.8381 19.5065 58.025 19.913C57.227 20.3045 56.301 20.5002 55.247 20.5002C54.6898 20.5002 54.1553 20.4325 53.6434 20.297C53.1465 20.1614 52.7098 19.9582 52.3334 19.6871C51.957 19.4011 51.6558 19.0472 51.43 18.6256C51.2192 18.189 51.1138 17.6695 51.1138 17.0672Z" fill="#141413"/>
  <path d="M38.4598 7.91943H41.7573L44.9419 17.3829L48.1491 7.91943H51.4692L46.952 20.2061H42.9543L38.4598 7.91943Z" fill="#141413"/>
  <path d="M30.0385 16.6381C30.0385 17.1349 30.2192 17.5114 30.5806 17.7674C30.957 18.0083 31.4614 18.1287 32.0938 18.1287C33.1027 18.1287 33.9082 17.8426 34.5105 17.2705C35.1128 16.6983 35.4139 15.9379 35.4139 14.9893V14.4021L31.9583 15.0571C31.2657 15.1926 30.7688 15.3883 30.4677 15.6443C30.1816 15.8852 30.0385 16.2165 30.0385 16.6381ZM26.8314 17.0672C26.8314 16.0282 27.1777 15.2227 27.8703 14.6505C28.578 14.0633 29.6471 13.6417 31.0775 13.3857L35.4139 12.5952V12.5049C35.4139 11.6767 35.1881 11.0594 34.7364 10.6528C34.2847 10.2463 33.6523 10.043 32.8392 10.043C32.011 10.043 31.3786 10.2463 30.942 10.6528C30.5204 11.0594 30.2644 11.6316 30.1741 12.3694H26.9895C27.125 10.8185 27.7197 9.644 28.7737 8.84597C29.8277 8.03289 31.1904 7.62634 32.8618 7.62634C34.6536 7.62634 36.0388 8.07053 37.0175 8.9589C38.0113 9.83222 38.5082 11.097 38.5082 12.7533V20.2066H35.5946L35.5269 18.3998C35.1504 19.002 34.5557 19.5065 33.7426 19.913C32.9446 20.3045 32.0186 20.5002 30.9646 20.5002C30.4074 20.5002 29.8729 20.4325 29.361 20.297C28.8641 20.1614 28.4274 19.9582 28.051 19.6871C27.6746 19.4011 27.3734 19.0472 27.1476 18.6256C26.9368 18.189 26.8314 17.6695 26.8314 17.0672Z" fill="#141413"/>
  <path d="M145.361 15.2939V10.1955H143.567V7.67918H145.361V4.74707H148.403V7.67918H152.363V10.1955H148.403V15.1845C148.403 16.7818 149.147 17.2414 150.635 17.2414C151.116 17.2414 151.751 17.1976 152.363 17.0663V19.5827C151.357 19.7796 150.503 19.8671 149.716 19.8671C146.783 19.8671 145.361 18.4667 145.361 15.2939Z" fill="#141413"/>
  <path d="M139.7 19.5827V7.67923H142.741V19.5827H139.7ZM139.656 6.38822V3.5874H142.785V6.38822H139.656Z" fill="#141413"/>
  <path d="M127.858 15.5785H130.9C131.009 16.8696 131.884 17.6135 133.547 17.6135C134.794 17.6135 135.757 17.1978 135.757 16.2569C135.757 15.1628 134.51 14.9659 132.738 14.6814C130.681 14.3532 128.099 13.8718 128.099 11.1804C128.099 8.90471 129.937 7.3949 133.197 7.3949C136.611 7.3949 138.405 9.05789 138.646 11.5524H135.604C135.473 10.3489 134.576 9.64868 133.153 9.64868C131.84 9.64868 131.206 10.2176 131.206 10.9397C131.206 12.0119 132.497 12.2526 134.116 12.5151C136.304 12.8653 138.864 13.3248 138.864 16.1037C138.864 18.6201 136.698 19.8673 133.569 19.8673C129.937 19.8673 127.989 18.2043 127.858 15.5785Z" fill="#141413"/>
  <path d="M118.459 13.6312C118.459 15.9069 119.597 17.3511 121.544 17.3511C123.492 17.3511 124.63 15.9069 124.63 13.6312C124.63 11.3774 123.492 9.91138 121.544 9.91138C119.597 9.91138 118.459 11.3774 118.459 13.6312ZM115.352 13.6312C115.352 9.91138 117.803 7.39502 121.544 7.39502C125.264 7.39502 127.715 9.91138 127.715 13.6312C127.715 17.3511 125.264 19.8674 121.544 19.8674C117.803 19.8674 115.352 17.3511 115.352 13.6312Z" fill="#141413"/>
  <path d="M105.653 13.6531C105.653 15.9725 106.79 17.3511 108.672 17.3511C110.532 17.3511 111.582 16.0163 111.582 13.6531C111.582 11.268 110.532 9.8895 108.672 9.8895C106.79 9.8895 105.653 11.3118 105.653 13.6531ZM102.655 7.67948H105.477L105.543 9.64881C106.265 8.16087 107.797 7.39502 109.526 7.39502C112.633 7.39502 114.69 9.86762 114.69 13.6312C114.69 17.3729 112.611 19.8674 109.526 19.8674C107.797 19.8674 106.353 19.1016 105.631 17.6793V23.5873H102.655V7.67948Z" fill="#141413"/>
  <path d="M92.7749 12.6684H98.6391C98.4421 10.9179 97.4137 9.82386 95.7507 9.82386C94.0877 9.82386 93.0374 10.9179 92.7749 12.6684ZM89.6021 13.6093C89.6021 9.91138 92.0309 7.39502 95.7507 7.39502C99.4049 7.39502 101.724 9.84574 101.724 13.4999V14.419H92.753C92.9718 16.2789 94.0659 17.4386 95.7726 17.4386C97.0636 17.4386 97.9608 16.7821 98.3984 15.6881H101.615C100.915 18.2482 98.7266 19.8674 95.7507 19.8674C92.0309 19.8674 89.6021 17.3511 89.6021 13.6093Z" fill="#141413"/>
  <path d="M85.6576 13.6092C85.6576 11.2898 84.5417 9.91125 82.638 9.91125C80.7781 9.91125 79.7278 11.246 79.7278 13.6092C79.7278 15.9943 80.8 17.3728 82.6599 17.3728C84.5198 17.3728 85.6576 15.9505 85.6576 13.6092ZM88.6554 19.5828H85.8327L85.767 17.6135C85.0668 19.1014 83.5133 19.8673 81.7846 19.8673C78.6775 19.8673 76.6206 17.3947 76.6206 13.6311C76.6206 9.88937 78.6993 7.39489 81.7846 7.39489C83.5133 7.39489 84.9574 8.16074 85.7014 9.58303V3.5H88.6554V19.5828Z" fill="#141413"/>
</svg>
