<svg width="152" height="32" viewBox="0 0 152 32" fill="none" xmlns="http://www.w3.org/2000/svg" aria-hidden="true">
  <path d="M12.1685 0.482238C12.541 0.404624 12.9293 0.337448 13.3093 0.314861C14.0775 0.269186 14.8168 0.142641 15.5747 0.0119629C15.7234 0.661681 16.3138 1.82626 16.6251 2.48817C18.7647 7.13652 22.2243 11.0513 26.5722 13.744C28.0693 14.6832 30.2561 15.6276 31.9759 15.9849C24.2036 18.0565 18.2791 24.5779 15.5592 31.9879C14.7728 31.9192 12.9001 31.7947 12.2329 31.5219C12.8011 30.2757 13.6986 28.8359 14.4578 27.7002C17.5936 23.0097 21.9746 19.1836 27.2756 17.1603C27.4452 17.0956 27.7724 16.9892 27.9453 16.9404H27.6766C27.4079 16.9404 26.431 17.2292 26.1613 17.3073C25.2423 17.5702 24.3347 17.8711 23.4407 18.2094C16.9774 20.6896 11.7566 23.979 7.86138 29.8192C7.64217 29.637 7.12867 29.3095 6.87517 29.1436C6.23075 28.7222 5.88441 28.4449 5.34363 27.9057C10.574 21.5344 18.4506 17.9002 26.4552 16.6004C26.9586 16.5186 27.4602 16.4328 27.9646 16.3558C27.9018 16.3184 27.7574 16.3206 27.6766 16.3206C26.8473 16.3885 26.1158 16.4304 25.2875 16.5368C24.226 16.6733 23.0768 16.755 22.0209 16.9182C16.2419 17.8114 9.9898 19.3589 5.1187 22.7305C4.61542 23.0789 4.10546 23.5003 3.65594 23.9112C3.33137 24.2079 2.98483 24.6226 2.67194 24.901C2.13078 24.0308 1.62975 23.1689 1.25493 22.2134C1.20888 22.0961 1.153 21.9524 1.1004 21.8393C1.9031 21.2406 3.02637 20.452 3.90606 19.9878C6.09712 18.8317 10.2022 17.385 12.6343 16.9768H11.8177C11.5311 17.0012 11.1224 16.9962 10.8159 17.0124L7.26956 17.1815C4.96318 17.2977 2.35425 17.4788 0.0700617 17.5081C-0.0314959 16.5471 -0.0138956 15.4095 0.0669751 14.4447C0.49531 14.5028 1.23011 14.491 1.6959 14.5118L5.16396 14.6846L9.71824 14.9123C10.6522 14.9669 11.712 15.0745 12.6343 15.0791C11.9974 14.9111 11.3514 14.7699 10.7118 14.6058C7.336 13.7394 3.81822 12.3973 1.0999 10.1508C1.65373 8.83851 1.95465 8.31534 2.66697 7.09014C7.19936 12.0373 14.9461 13.8656 21.2721 15.0073C23.3101 15.3751 25.3417 15.4104 27.4079 15.5969C27.5423 15.609 27.811 15.5969 27.9453 15.5969C26.9473 15.4284 25.8186 15.386 24.8242 15.1567C17.4377 13.4533 10.1854 10.1922 5.32536 4.08499C5.9969 3.45093 7.05522 2.70882 7.84766 2.22327C8.13695 2.5647 8.41563 3.03781 8.68356 3.40246C12.2455 8.25 17.4597 11.5051 22.9962 13.6609C24.4708 14.235 26.1286 14.6121 27.6766 15.0595L27.982 15.1482C26.3771 14.53 25.08 13.951 23.6 13.0848C19.051 10.4226 15.5026 6.44088 12.9267 1.87286C12.67 1.41757 12.4525 0.918111 12.1685 0.482238Z" fill="#141413"/>
  <path d="M36.9266 13.3178V11.4371H44.511V13.3178H36.9266ZM39.2376 24V9.92513C39.2376 8.76144 39.6063 7.82311 40.3439 7.11015C41.0896 6.38899 42.0403 6.02842 43.1957 6.02842C43.5235 6.02842 43.8063 6.04481 44.0439 6.07758C44.2898 6.11036 44.5151 6.15134 44.72 6.20051C44.9331 6.24968 45.0396 6.27426 45.0396 6.27426V8.21647C45.0396 8.21647 44.929 8.18779 44.7077 8.13043C44.4946 8.07306 44.2693 8.02799 44.0316 7.99521C43.8022 7.96243 43.5522 7.94604 43.2818 7.94604C42.7081 7.94604 42.2328 8.12633 41.8559 8.48691C41.4871 8.84749 41.3027 9.35967 41.3027 10.0235V11.8796V12.359V24H39.2376ZM50.0663 24.3811C48.6731 24.3811 47.5381 23.9877 46.6613 23.201C45.7844 22.4143 45.346 21.3981 45.346 20.1525C45.346 18.8904 45.8377 17.8784 46.8211 17.1162C47.8045 16.3541 49.0747 15.973 50.6317 15.973C51.3119 15.973 51.9839 16.0509 52.6477 16.2066C53.3197 16.3623 53.8483 16.5549 54.2334 16.7843V16.0222C54.2334 15.0962 53.9056 14.3463 53.25 13.7727C52.6026 13.199 51.7708 12.9122 50.7546 12.9122C50.222 12.9122 49.7672 12.9778 49.3902 13.1089C49.0214 13.2318 48.71 13.3875 48.456 13.576C48.2101 13.7645 47.9684 13.9857 47.7307 14.2398C47.493 14.4938 47.3742 14.6208 47.3742 14.6208L45.8008 13.4531C45.8008 13.4531 45.9565 13.281 46.2679 12.9368C46.5875 12.5926 46.9481 12.2812 47.3496 12.0026C47.7594 11.7157 48.2224 11.4863 48.7387 11.3142C49.2632 11.1421 49.9433 11.056 50.7792 11.056C52.451 11.056 53.7745 11.5027 54.7497 12.3959C55.7249 13.2892 56.2125 14.502 56.2125 16.0345V24H54.2334V20.9761L54.9587 22.1684H54.1597C53.7663 22.8322 53.1968 23.369 52.451 23.7787C51.7135 24.1803 50.9185 24.3811 50.0663 24.3811ZM50.263 22.5372C51.3611 22.5372 52.2953 22.1479 53.0656 21.3694C53.8442 20.5909 54.2334 19.6567 54.2334 18.5667V18.5544C53.8237 18.2758 53.3279 18.0586 52.746 17.9029C52.1642 17.7472 51.5619 17.6694 50.939 17.6694C49.8655 17.6694 49.0173 17.8784 48.3945 18.2963C47.7717 18.7142 47.4603 19.3412 47.4603 20.177C47.4603 20.8818 47.7225 21.4514 48.247 21.8857C48.7797 22.32 49.4516 22.5372 50.263 22.5372ZM63.5555 24.3811C62.7524 24.3811 62.0395 24.2786 61.4166 24.0738C60.802 23.8689 60.2488 23.5575 59.7572 23.1395C59.2736 22.7216 58.9049 22.2668 58.6508 21.7751C58.3968 21.2752 58.2698 21.0252 58.2698 21.0252L60.1259 20.177C60.1259 20.177 60.2325 20.3655 60.4455 20.7425C60.6586 21.1113 60.9208 21.435 61.2322 21.7136C61.5437 21.9922 61.8919 22.2012 62.2771 22.3405C62.6705 22.4798 63.1417 22.5495 63.6907 22.5495C64.5102 22.5495 65.1658 22.3897 65.6575 22.0701C66.1574 21.7423 66.4074 21.267 66.4074 20.6442C66.4074 20.1443 66.2066 19.7468 65.805 19.4518C65.4117 19.1486 64.5963 18.8536 63.3588 18.5667C61.7117 18.198 60.5234 17.6981 59.794 17.067C59.0729 16.436 58.7123 15.6206 58.7123 14.6208C58.7123 13.5965 59.1712 12.7483 60.089 12.0763C61.0151 11.3961 62.1296 11.056 63.4326 11.056C64.1456 11.056 64.7766 11.138 65.3256 11.3019C65.8747 11.4658 66.3787 11.728 66.8376 12.0886C67.3047 12.441 67.6448 12.8098 67.8579 13.1949C68.071 13.5719 68.1775 13.7604 68.1775 13.7604L66.3828 14.5963C66.3828 14.5963 66.2885 14.461 66.1001 14.1906C65.9198 13.9202 65.6985 13.6866 65.4363 13.4899C65.174 13.2851 64.8708 13.1376 64.5266 13.0474C64.1906 12.9573 63.8096 12.9122 63.3834 12.9122C62.6295 12.9122 62.0108 13.0761 61.5273 13.4039C61.052 13.7317 60.8143 14.1128 60.8143 14.5471C60.8143 15.0142 60.9905 15.4117 61.3429 15.7395C61.7035 16.0591 62.5721 16.3746 63.9489 16.686C65.6452 17.0711 66.8294 17.5833 67.5014 18.2225C68.1734 18.8536 68.5094 19.6116 68.5094 20.4966C68.5094 21.6685 68.0423 22.611 67.108 23.3239C66.1738 24.0287 64.9896 24.3811 63.5555 24.3811ZM75.3747 24.3811C74.3749 24.3811 73.5595 24.0738 72.9285 23.4591C72.3057 22.8363 71.9943 21.9881 71.9943 20.9146V7.92145H74.0717V20.4229C74.0717 21.1277 74.211 21.648 74.4897 21.984C74.7683 22.3118 75.178 22.4757 75.7189 22.4757C75.8582 22.4757 76.0098 22.4634 76.1737 22.4389C76.3376 22.4061 76.5466 22.3487 76.8007 22.2668C77.0629 22.1848 77.194 22.1438 77.194 22.1438V24.0615C77.194 24.0615 77.0793 24.0942 76.8498 24.1598C76.6286 24.2336 76.3991 24.2868 76.1614 24.3196C75.932 24.3606 75.6697 24.3811 75.3747 24.3811ZM69.8185 13.3178V11.4371H77.1571V13.3178H69.8185ZM85.9912 24.3811C85.0734 24.3811 84.2129 24.1721 83.4098 23.7542C82.6149 23.328 82.0207 22.783 81.6274 22.1193H81.0742L81.5659 21.5169V24H79.5991V6.39719H81.6642V13.3301L81.7257 13.3424C82.1191 12.6622 82.6968 12.1132 83.4589 11.6952C84.2293 11.2691 85.0693 11.056 85.9789 11.056C87.6916 11.056 89.1217 11.6748 90.269 12.9122C91.4245 14.1414 92.0022 15.7313 92.0022 17.6817C92.0022 19.6239 91.4286 21.226 90.2813 22.488C89.1422 23.7501 87.7121 24.3811 85.9912 24.3811ZM85.7576 22.5003C86.9295 22.5003 87.917 22.0496 88.7201 21.1481C89.5232 20.2467 89.9248 19.0912 89.9248 17.6817C89.9248 16.2803 89.5191 15.1412 88.7078 14.2644C87.9047 13.3793 86.9213 12.9368 85.7576 12.9368C84.5939 12.9368 83.6024 13.3752 82.7829 14.2521C81.9716 15.1289 81.5659 16.268 81.5659 17.6694C81.5659 19.0789 81.9675 20.2385 82.7706 21.1481C83.5819 22.0496 84.5776 22.5003 85.7576 22.5003ZM94.4125 24V11.4371H96.3793V13.6989L96.072 13.4654H96.453C96.6989 12.7852 97.1701 12.2156 97.8667 11.7567C98.5714 11.2896 99.3008 11.056 100.055 11.056C100.26 11.056 100.477 11.0724 100.706 11.1052C100.936 11.138 101.136 11.1831 101.309 11.2404C101.489 11.2896 101.579 11.3142 101.579 11.3142V13.4899C101.579 13.4899 101.456 13.4572 101.21 13.3916C100.964 13.3178 100.71 13.2646 100.448 13.2318C100.194 13.1908 99.9933 13.1703 99.8458 13.1703C98.9197 13.1703 98.1248 13.535 97.461 14.2644C96.8054 14.9937 96.4776 15.8829 96.4776 16.9318V24H94.4125ZM103.756 24V11.4371H105.822V24H103.756ZM104.789 8.89256C104.404 8.89256 104.072 8.75734 103.793 8.48691C103.523 8.20828 103.388 7.87638 103.388 7.49122C103.388 7.08966 103.523 6.75777 103.793 6.49553C104.072 6.23329 104.404 6.10217 104.789 6.10217C105.191 6.10217 105.518 6.23329 105.772 6.49553C106.035 6.75777 106.166 7.08966 106.166 7.49122C106.166 7.87638 106.035 8.20828 105.772 8.48691C105.518 8.75734 105.191 8.89256 104.789 8.89256ZM114.441 24.3811C112.72 24.3811 111.286 23.7542 110.138 22.5003C108.999 21.2465 108.43 19.6526 108.43 17.7185C108.43 15.7763 109.003 14.1865 110.151 12.9491C111.306 11.7034 112.74 11.0806 114.453 11.0806C115.363 11.0806 116.203 11.2937 116.973 11.7198C117.743 12.1378 118.321 12.6868 118.706 13.367L118.768 13.3547V6.39719H120.833V24H118.866V21.689L119.087 22.1315L118.805 22.1438C118.395 22.824 117.793 23.369 116.998 23.7787C116.211 24.1803 115.359 24.3811 114.441 24.3811ZM114.674 22.5249C115.854 22.5249 116.846 22.0742 117.649 21.1727C118.46 20.2631 118.866 19.1076 118.866 17.7063C118.866 16.3049 118.456 15.1658 117.637 14.289C116.825 13.4039 115.838 12.9614 114.674 12.9614C113.511 12.9614 112.519 13.3998 111.7 14.2767C110.888 15.1535 110.483 16.3008 110.483 17.7185C110.483 19.1199 110.888 20.2713 111.7 21.1727C112.511 22.0742 113.502 22.5249 114.674 22.5249ZM129.439 29.6668C128.66 29.6668 127.939 29.5562 127.275 29.3349C126.611 29.1219 126.013 28.8064 125.48 28.3884C124.948 27.9705 124.538 27.5115 124.251 27.0117C123.972 26.5118 123.833 26.2618 123.833 26.2618L125.652 25.303C125.652 25.303 125.775 25.4997 126.021 25.893C126.267 26.2946 126.558 26.6347 126.894 26.9133C127.238 27.2001 127.627 27.4132 128.062 27.5525C128.504 27.7 128.963 27.7738 129.439 27.7738C130.742 27.7738 131.737 27.3927 132.426 26.6306C133.114 25.8766 133.458 24.8113 133.458 23.4345V22.0455H133.397C132.971 22.7175 132.389 23.2502 131.651 23.6435C130.914 24.0287 130.078 24.2213 129.144 24.2213C127.464 24.2213 126.058 23.6189 124.927 22.4143C123.804 21.2014 123.243 19.5993 123.243 17.6079C123.243 15.6411 123.809 14.0595 124.939 12.863C126.079 11.6584 127.484 11.056 129.156 11.056C130.065 11.056 130.91 11.2568 131.688 11.6584C132.467 12.0517 133.065 12.5844 133.483 13.2564H134.048L133.557 13.871V11.4371H135.536V23.4591C135.536 25.4177 134.991 26.942 133.901 28.0319C132.819 29.1219 131.332 29.6668 129.439 29.6668ZM129.439 22.3405C130.627 22.3405 131.61 21.9062 132.389 21.0375C133.167 20.1688 133.557 19.0134 133.557 17.571C133.557 16.1615 133.167 15.0388 132.389 14.2029C131.61 13.3588 130.627 12.9368 129.439 12.9368C128.258 12.9368 127.271 13.3547 126.476 14.1906C125.689 15.0265 125.296 16.1656 125.296 17.6079C125.296 19.1158 125.685 20.2836 126.464 21.1113C127.242 21.9308 128.234 22.3405 129.439 22.3405ZM144.206 24.3811C142.386 24.3811 140.887 23.7542 139.707 22.5003C138.527 21.2465 137.936 19.6444 137.936 17.694C137.936 15.7845 138.514 14.2029 139.67 12.9491C140.825 11.687 142.28 11.056 144.034 11.056C145.845 11.056 147.295 11.601 148.385 12.6909C149.483 13.7809 150.032 15.1371 150.032 16.7597V18.1119H139.153V16.4033H147.856C147.807 15.4117 147.439 14.5881 146.75 13.9325C146.062 13.2687 145.156 12.9368 144.034 12.9368C142.853 12.9368 141.886 13.3711 141.133 14.2398C140.387 15.1003 140.014 16.2516 140.014 17.694C140.014 19.1527 140.424 20.3205 141.243 21.1973C142.071 22.066 143.091 22.5003 144.304 22.5003C144.886 22.5003 145.382 22.4225 145.791 22.2668C146.201 22.1111 146.57 21.8898 146.898 21.603C147.234 21.3161 147.607 20.8531 148.016 20.2139L149.762 21.0621C149.319 21.9554 148.828 22.6232 148.287 23.0658C147.754 23.5083 147.164 23.8361 146.517 24.0492C145.869 24.2704 145.099 24.3811 144.206 24.3811Z" fill="#141413"/>
</svg>
