<svg preserveAspectRatio="none" width="100%" height="100%" overflow="visible" style="display: block;" viewBox="0 0 45.6693 16.8957" fill="none" xmlns="http://www.w3.org/2000/svg">
<g id="avail">
<path id="Vector" d="M42.5524 8.15089e-05H45.6692V16.6006H42.5524V8.15089e-05Z" fill="var(--fill-0, #141413)"/>
<path id="Vector_2" d="M37.6593 4.31555H40.7988V16.6022H37.6593V4.31555ZM37.6142 0.0920086H40.8439V2.98299H37.6142V0.0920086Z" fill="var(--fill-0, #141413)"/>
<path id="Vector_3" d="M27.4896 13.0335C27.4896 13.5304 27.6703 13.9068 28.0316 14.1628C28.4081 14.4037 28.9125 14.5242 29.5449 14.5242C30.5537 14.5242 31.3593 14.2381 31.9616 13.6659C32.5638 13.0937 32.865 12.3333 32.865 11.3847V10.7975L29.4094 11.4525C28.7167 11.588 28.2198 11.7837 27.9187 12.0397C27.6326 12.2806 27.4896 12.6119 27.4896 13.0335ZM24.2824 13.4626C24.2824 12.4237 24.6287 11.6181 25.3213 11.0459C26.029 10.4587 27.0981 10.0371 28.5285 9.78114L32.865 8.99064V8.90029C32.865 8.07215 32.6391 7.45481 32.1874 7.04826C31.7357 6.64172 31.1033 6.43845 30.2902 6.43845C29.4621 6.43845 28.8297 6.64172 28.393 7.04826C27.9714 7.45481 27.7154 8.02698 27.6251 8.76478H24.4405C24.576 7.21389 25.1708 6.03943 26.2248 5.2414C27.2788 4.42831 28.6414 4.02177 30.3128 4.02177C32.1046 4.02177 33.4899 4.46596 34.4686 5.35433C35.4623 6.22765 35.9592 7.49245 35.9592 9.14874V16.602H33.0457L32.9779 14.7952C32.6015 15.3975 32.0067 15.9019 31.1936 16.3084C30.3956 16.6999 29.4696 16.8957 28.4156 16.8957C27.8585 16.8957 27.3239 16.8279 26.812 16.6924C26.3151 16.5569 25.8785 16.3536 25.502 16.0826C25.1256 15.7965 24.8245 15.4426 24.5986 15.021C24.3878 14.5844 24.2824 14.0649 24.2824 13.4626Z" fill="var(--fill-0, #141413)"/>
<path id="Vector_4" d="M11.6284 4.31478H14.9259L18.1105 13.7782L21.3177 4.31478H24.6378L20.1207 16.6014H16.123L11.6284 4.31478Z" fill="var(--fill-0, #141413)"/>
<path id="Vector_5" d="M3.20718 13.0335C3.20718 13.5304 3.38786 13.9068 3.74924 14.1628C4.12567 14.4037 4.63008 14.5242 5.26248 14.5242C6.27131 14.5242 7.07687 14.2381 7.67916 13.6659C8.28145 13.0937 8.58259 12.3333 8.58259 11.3847V10.7975L5.12697 11.4525C4.43434 11.588 3.93745 11.7837 3.63631 12.0397C3.35022 12.2806 3.20718 12.6119 3.20718 13.0335ZM0 13.4626C0 12.4237 0.346315 11.6181 1.03895 11.0459C1.74663 10.4587 2.81569 10.0371 4.24612 9.78114L8.58259 8.99064V8.90029C8.58259 8.07215 8.35673 7.45481 7.90502 7.04826C7.4533 6.64172 6.8209 6.43845 6.00781 6.43845C5.17967 6.43845 4.54727 6.64172 4.11061 7.04826C3.68901 7.45481 3.43304 8.02698 3.34269 8.76478H0.1581C0.293615 7.21389 0.888373 6.03943 1.94238 5.2414C2.99638 4.42831 4.35905 4.02177 6.0304 4.02177C7.8222 4.02177 9.20746 4.46596 10.1862 5.35433C11.18 6.22765 11.6768 7.49245 11.6768 9.14874V16.602H8.76328L8.69552 14.7952C8.31909 15.3975 7.72433 15.9019 6.91124 16.3084C6.11321 16.6999 5.1872 16.8957 4.13319 16.8957C3.57608 16.8957 3.04155 16.8279 2.52961 16.6924C2.03272 16.5569 1.59606 16.3536 1.21963 16.0826C0.843202 15.7965 0.542058 15.4426 0.316201 15.021C0.1054 14.5844 0 14.0649 0 13.4626Z" fill="var(--fill-0, #141413)"/>
</g>
</svg>
