<svg width="154" height="24" viewBox="0 0 154 24" fill="none" xmlns="http://www.w3.org/2000/svg" aria-hidden="true">
  <path d="M18.6751 20.0722L21.0027 21.2114C21.5869 21.4973 22.2941 21.2433 22.524 20.6349C23.1914 18.8685 23.716 16.7591 23.8939 14.5875C24.0972 12.1055 23.8459 9.56773 22.862 7.37176L22.8606 7.37236C22.8169 7.27774 22.7724 7.18338 22.7273 7.08933C22.3887 6.43889 21.7546 5.64113 20.8208 5.11327C19.7683 4.51831 18.3061 4.24904 16.3873 4.96891C15.9803 5.12162 15.5658 5.31898 15.1503 5.5544C15.6723 6.44387 16.0462 7.64349 16.0759 9.22531C16.1028 10.6549 15.8712 12.0088 15.5164 13.215L19.0122 14.515C19.7278 14.7811 20.1962 15.4886 20.0624 16.2402C19.8753 17.2912 19.5463 18.3142 19.0867 19.284C18.9622 19.5467 18.8253 19.8104 18.6751 20.0722Z" fill="#141413"/>
  <path d="M7.27356 19.1229C7.56071 19.0363 7.86398 18.911 8.18225 18.7369C9.53011 17.9993 10.5495 16.7949 11.2741 15.6134C11.757 14.8262 12.1168 14.0364 12.3601 13.3762C12.4574 13.1123 12.7487 12.9691 13.0123 13.0672L18.6017 15.1457C19.095 15.3292 19.4058 15.8253 19.2994 16.3408C19.1397 17.1146 18.8607 18.0387 18.4201 18.9684C17.728 20.429 16.6493 21.878 15.0352 22.7939C13.7016 23.5507 12.3376 23.9411 11.0625 23.9997C9.67326 23.7643 8.76186 23.1603 8.18123 22.3538C7.56649 21.4998 7.29314 20.3776 7.27356 19.1229Z" fill="#141413"/>
  <path d="M10.6507 0.107815C14.0832 -0.294501 16.6337 0.466115 18.5696 1.83524C19.5982 2.56271 20.4621 3.4682 21.1947 4.47787L21.1869 4.47341C19.9373 3.76707 18.2468 3.48713 16.1318 4.28062C13.2925 5.34584 10.2316 8.34756 8.60203 11.4087C7.54505 13.3942 6.50271 16.4388 6.54211 19.1259C6.56187 20.4728 6.85403 21.7638 7.58822 22.7837C7.84381 23.1387 8.14945 23.456 8.50878 23.7289C5.89413 23.0775 2.60422 21.2636 0.831215 17.0825C-0.716039 13.4338 0.0196402 9.39481 2.0243 6.14855C4.03203 2.89733 7.27429 0.503548 10.6507 0.107815Z" fill="#141413"/>
  <path d="M69.3837 3.55237H72.5006V20.1529H69.3837V3.55237Z" fill="#141413"/>
  <path d="M64.4907 7.86782H67.6302V20.1545H64.4907V7.86782ZM64.4456 3.64429H67.6753V6.53526H64.4456V3.64429Z" fill="#141413"/>
  <path d="M54.3209 16.5857C54.3209 17.0826 54.5016 17.459 54.863 17.715C55.2394 17.9559 55.7439 18.0764 56.3763 18.0764C57.3851 18.0764 58.1906 17.7903 58.7929 17.2181C59.3952 16.6459 59.6964 15.8855 59.6964 14.9369V14.3497L56.2407 15.0047C55.5481 15.1402 55.0512 15.3359 54.7501 15.5919C54.464 15.8328 54.3209 16.1641 54.3209 16.5857ZM51.1138 17.0148C51.1138 15.9759 51.4601 15.1703 52.1527 14.5981C52.8604 14.0109 53.9295 13.5893 55.3599 13.3333L59.6964 12.5428V12.4525C59.6964 11.6244 59.4705 11.007 59.0188 10.6005C58.5671 10.1939 57.9347 9.99065 57.1216 9.99065C56.2934 9.99065 55.661 10.1939 55.2244 10.6005C54.8028 11.007 54.5468 11.5792 54.4565 12.317H51.2719C51.4074 10.7661 52.0021 9.59164 53.0561 8.79361C54.1101 7.98052 55.4728 7.57397 57.1442 7.57397C58.936 7.57397 60.3212 8.01816 61.3 8.90653C62.2937 9.77985 62.7906 11.0447 62.7906 12.7009V20.1542H59.877L59.8093 18.3474C59.4329 18.9497 58.8381 19.4541 58.025 19.8606C57.227 20.2521 56.301 20.4479 55.247 20.4479C54.6898 20.4479 54.1553 20.3801 53.6434 20.2446C53.1465 20.1091 52.7098 19.9058 52.3334 19.6348C51.957 19.3487 51.6558 18.9948 51.43 18.5732C51.2192 18.1366 51.1138 17.6171 51.1138 17.0148Z" fill="#141413"/>
  <path d="M38.4598 7.86707H41.7573L44.9419 17.3305L48.1491 7.86707H51.4692L46.952 20.1537H42.9543L38.4598 7.86707Z" fill="#141413"/>
  <path d="M30.0385 16.5857C30.0385 17.0826 30.2192 17.459 30.5806 17.715C30.957 17.9559 31.4614 18.0764 32.0938 18.0764C33.1027 18.0764 33.9082 17.7903 34.5105 17.2181C35.1128 16.6459 35.4139 15.8855 35.4139 14.9369V14.3497L31.9583 15.0047C31.2657 15.1402 30.7688 15.3359 30.4677 15.5919C30.1816 15.8328 30.0385 16.1641 30.0385 16.5857ZM26.8314 17.0148C26.8314 15.9759 27.1777 15.1703 27.8703 14.5981C28.578 14.0109 29.6471 13.5893 31.0775 13.3333L35.4139 12.5428V12.4525C35.4139 11.6244 35.1881 11.007 34.7364 10.6005C34.2847 10.1939 33.6523 9.99065 32.8392 9.99065C32.011 9.99065 31.3786 10.1939 30.942 10.6005C30.5204 11.007 30.2644 11.5792 30.1741 12.317H26.9895C27.125 10.7661 27.7197 9.59164 28.7737 8.79361C29.8277 7.98052 31.1904 7.57397 32.8618 7.57397C34.6536 7.57397 36.0388 8.01816 37.0175 8.90653C38.0113 9.77985 38.5082 11.0447 38.5082 12.7009V20.1542H35.5946L35.5269 18.3474C35.1504 18.9497 34.5557 19.4541 33.7426 19.8606C32.9446 20.2521 32.0186 20.4479 30.9646 20.4479C30.4074 20.4479 29.8729 20.3801 29.361 20.2446C28.8641 20.1091 28.4274 19.9058 28.051 19.6348C27.6746 19.3487 27.3734 18.9948 27.1476 18.5732C26.9368 18.1366 26.8314 17.6171 26.8314 17.0148Z" fill="#141413"/>
  <path d="M125.468 15.9813H128.635C128.749 17.3257 129.66 18.1005 131.392 18.1005C132.691 18.1005 133.694 17.6675 133.694 16.6877C133.694 15.5483 132.395 15.3432 130.549 15.047C128.407 14.7052 125.718 14.2039 125.718 11.401C125.718 9.03118 127.632 7.45886 131.028 7.45886C134.582 7.45886 136.451 9.19069 136.702 11.7884H133.534C133.398 10.5351 132.463 9.80594 130.982 9.80594C129.615 9.80594 128.954 10.3984 128.954 11.1504C128.954 12.267 130.298 12.5176 131.985 12.7911C134.263 13.1557 136.93 13.6342 136.93 16.5282C136.93 19.1487 134.674 20.4476 131.415 20.4476C127.632 20.4476 125.604 18.7157 125.468 15.9813Z" fill="#161615"/>
  <path d="M113.473 15.7306V7.75513H116.641V14.7052C116.641 16.7561 117.347 17.7359 118.897 17.7359C120.537 17.7359 121.563 16.6421 121.563 14.7052V7.75513H124.753V20.1513H121.813L121.745 17.9182C121.107 19.6272 119.672 20.4476 117.826 20.4476C115.16 20.4476 113.473 18.693 113.473 15.7306Z" fill="#161615"/>
  <path d="M100.252 20.1513L104.581 13.8393L100.411 7.75513H103.898L106.746 12.0847L109.526 7.75513H113.081L108.934 13.8621L113.241 20.1513H109.754L106.792 15.5483L103.807 20.1513H100.252Z" fill="#161615"/>
  <path d="M92.0036 12.9506H98.1106C97.9055 11.1276 96.8345 9.98824 95.1027 9.98824C93.3708 9.98824 92.277 11.1276 92.0036 12.9506ZM88.6995 13.9304C88.6995 10.0794 91.2288 7.45886 95.1027 7.45886C98.9081 7.45886 101.324 10.011 101.324 13.8165V14.7735H91.9808C92.2087 16.7105 93.348 17.9182 95.1254 17.9182C96.4699 17.9182 97.4042 17.2346 97.8599 16.0952H101.21C100.48 18.7613 98.2017 20.4476 95.1027 20.4476C91.2288 20.4476 88.6995 17.827 88.6995 13.9304Z" fill="#161615"/>
  <path d="M76.5006 20.1513V7.7551H79.4402L79.5085 9.98824C80.1466 8.2792 81.5821 7.45886 83.4279 7.45886C86.094 7.45886 87.7803 9.21348 87.7803 12.1758V20.1513H84.6128V13.2012C84.6128 11.1504 83.9064 10.1705 82.3569 10.1705C80.7162 10.1705 79.6908 11.2643 79.6908 13.2012V20.1513H76.5006Z" fill="#161615"/>
</svg>
