<svg preserveAspectRatio="none" width="100%" height="100%" overflow="visible" style="display: block;" viewBox="0 0 23.9593 23.9994" fill="none" xmlns="http://www.w3.org/2000/svg">
<g id="Group 467">
<path id="Subtract" d="M18.6751 20.0718L21.0027 21.2111C21.5869 21.497 22.2941 21.243 22.524 20.6345C23.1914 18.8681 23.716 16.7587 23.8939 14.5871C24.0972 12.1051 23.8459 9.56737 22.862 7.3714L22.8606 7.372C22.8169 7.27738 22.7725 7.18302 22.7273 7.08898C22.3888 6.43853 21.7547 5.64077 20.8208 5.11292C19.7683 4.51795 18.3061 4.24868 16.3873 4.96855C15.9803 5.12127 15.5659 5.31862 15.1503 5.55404C15.6723 6.44351 16.0462 7.64314 16.0759 9.22495C16.1028 10.6546 15.8712 12.0084 15.5164 13.2146L19.0122 14.5146C19.7278 14.7807 20.1962 15.4882 20.0624 16.2398C19.8753 17.2908 19.5463 18.3138 19.0867 19.2837C18.9622 19.5463 18.8253 19.8101 18.6751 20.0718Z" fill="var(--fill-0, #141413)"/>
<path id="Subtract_2" d="M7.27353 19.1225C7.56069 19.0359 7.86395 18.9107 8.18222 18.7366C9.53009 17.999 10.5494 16.7946 11.2741 15.6131C11.7569 14.8259 12.1168 14.0361 12.3601 13.3759C12.4574 13.112 12.7486 12.9688 13.0122 13.0669L18.6016 15.1454C19.095 15.3289 19.4058 15.825 19.2994 16.3405C19.1397 17.1143 18.8607 18.0384 18.4201 18.9681C17.7279 20.4286 16.6492 21.8777 15.0352 22.7936C13.7015 23.5503 12.3375 23.9407 11.0625 23.9994C9.67323 23.764 8.76184 23.16 8.18121 22.3535C7.56646 21.4995 7.29311 20.3773 7.27353 19.1225Z" fill="var(--fill-0, #141413)"/>
<path id="Subtract_3" d="M10.6507 0.107449C14.0832 -0.294867 16.6337 0.465749 18.5696 1.83487C19.5983 2.56234 20.4621 3.46784 21.1947 4.4775L21.1869 4.47304C19.9373 3.7667 18.2468 3.48677 16.1318 4.28026C13.2925 5.34548 10.2316 8.3472 8.60203 11.4083C7.54505 13.3938 6.50271 16.4384 6.54212 19.1255C6.56187 20.4724 6.85404 21.7635 7.58822 22.7833C7.84381 23.1384 8.14946 23.4556 8.50878 23.7286C5.89413 23.0771 2.60422 21.2632 0.831218 17.0821C-0.716037 13.4334 0.0196425 9.39445 2.02431 6.14818C4.03203 2.89696 7.27429 0.503182 10.6507 0.107449Z" fill="var(--fill-0, #141413)"/>
</g>
</svg>
