<svg preserveAspectRatio="none" width="100%" height="100%" overflow="visible" style="display: block;" viewBox="0 0 154 45" fill="none" xmlns="http://www.w3.org/2000/svg">
<g id="Group">
<path id="Vector" d="M0 26.684C0 15.549 7.262 8.565 16.879 8.565C25.449 8.565 31.533 13.572 33.103 21.94H24.991C23.617 17.526 21.065 15.813 16.879 15.813C11.841 15.813 8.112 20.095 8.112 26.684C8.112 33.404 11.841 37.687 16.879 37.687C21.196 37.687 23.617 35.974 24.991 31.493H33.103C31.533 39.861 25.449 44.934 16.879 44.934C7.262 44.934 0 37.884 0 26.684Z" fill="var(--fill-0, #F88101)"/>
<path id="Vector_2" d="M57.112 15.757C52.14 15.757 48.411 19.117 48.411 24.849V43.363H40.561V9.102H48.411V14.176H48.542C50.766 9.959 55.28 7.389 60.121 9.102V16.152C59.075 15.889 58.028 15.757 57.112 15.757Z" fill="var(--fill-0, #F88101)"/>
<path id="Vector_3" d="M80.794 37.687C84.393 37.687 86.682 36.501 88.122 33.47H96.561C94.402 40.652 88.645 44.934 80.794 44.934C72.159 44.934 65.421 39.268 64.112 29.912H72.421C73.402 34.788 76.607 37.687 80.794 37.687ZM80.794 8.565C89.364 8.565 97.019 13.507 97.019 26.354V29.912H72.421V23.324H88.907C88.056 17.526 84.981 15.813 80.794 15.813C76.673 15.813 73.467 18.646 72.421 23.324H64.178C65.486 14.165 72.224 8.565 80.794 8.565Z" fill="var(--fill-0, #F88101)"/>
<path id="Vector_4" d="M118.084 38.082C121.486 38.082 124.168 36.83 124.168 34.392C124.168 32.284 121.028 31.296 117.299 30.176C111.607 28.463 104.477 26.288 104.477 18.909C104.477 13.638 109.252 8.565 117.364 8.565C125.28 8.565 129.729 12.255 130.776 19.766H123.122C123.122 16.867 120.505 15.483 117.561 15.483C114.944 15.483 112.589 16.471 112.589 18.514C112.589 20.952 115.991 22.072 119.981 23.324C125.477 25.037 131.953 27.211 131.953 33.931C131.953 40.52 126.785 44.934 117.953 44.934C109.907 44.934 103.822 40.52 103.364 32.35H111.019C111.019 36.83 114.551 38.082 118.084 38.082Z" fill="var(--fill-0, #F88101)"/>
<path id="Vector_5" d="M138.037 2.635L145.888 0V9.685H138.037V2.635ZM145.888 33.206C145.888 37.094 148.178 37.95 150.794 37.95C151.841 37.95 152.953 37.818 154 37.687V44.473C152.43 44.736 150.598 45 148.766 45C143.467 45 138.037 43.089 138.037 35.183V16.933H145.888V33.206ZM145.888 9.685H154V16.933H145.888V9.685Z" fill="var(--fill-0, #F88101)"/>
</g>
</svg>
