<svg preserveAspectRatio="none" width="100%" height="100%" overflow="visible" style="display: block;" viewBox="0 0 16 16" fill="none" xmlns="http://www.w3.org/2000/svg">
<g id="image" clip-path="url(#clip0_0_4)">
<path id="Vector" d="M14.857 0H1.139C0.511 0 0 0.518 0 1.154V14.846C0 15.482 0.511 16 1.139 16H14.857C15.486 16 16 15.482 16 14.846V1.154C16 0.518 15.486 0 14.857 0ZM4.836 13.714H2.464V6.079H4.839V13.714H4.836ZM3.65 2.286C4.411 2.286 5.025 2.9 5.025 3.661C5.025 4.421 4.411 5.036 3.65 5.036C2.889 5.036 2.275 4.421 2.275 3.661C2.275 2.9 2.889 2.286 3.65 2.286ZM13.725 13.714H11.354V10C11.354 9.114 11.336 7.975 10.121 7.975C8.886 7.975 8.696 8.939 8.696 9.936V13.714H6.325V6.079H8.6V7.121H8.632C8.95 6.521 9.725 5.889 10.879 5.889C13.279 5.889 13.725 7.471 13.725 9.529V13.714Z" fill="var(--fill-0, black)"/>
</g>
<defs>
<clipPath id="clip0_0_4">
<rect width="16" height="16" fill="white"/>
</clipPath>
</defs>
</svg>
