<svg preserveAspectRatio="none" width="100%" height="100%" overflow="visible" style="display: block;" viewBox="0 0 16 16" fill="none" xmlns="http://www.w3.org/2000/svg">
<g id="image" clip-path="url(#clip0_0_8)">
<path id="Vector" d="M8 0C3.581 0 0 3.581 0 8C0 12.419 3.581 16 8 16C12.419 16 16 12.419 16 8C16 3.581 12.419 0 8 0ZM11.71 5.442C11.59 6.706 11.068 9.777 10.803 11.194C10.69 11.794 10.471 11.994 10.258 12.013C9.794 12.055 9.442 11.706 8.99 11.41C8.287 10.948 7.887 10.661 7.206 10.21C6.416 9.69 6.929 9.403 7.377 8.935C7.497 8.813 9.542 6.952 9.581 6.784C9.587 6.761 9.59 6.684 9.542 6.642C9.494 6.6 9.426 6.616 9.377 6.626C9.306 6.642 8.181 7.384 6.003 8.855C5.684 9.074 5.394 9.181 5.135 9.174C4.848 9.168 4.3 9.013 3.89 8.881C3.39 8.719 2.99 8.632 3.026 8.355C3.045 8.21 3.242 8.065 3.619 7.913C5.952 6.897 7.506 6.226 8.284 5.903C10.506 4.981 10.968 4.819 11.268 4.813C11.335 4.813 11.481 4.829 11.577 4.906C11.642 4.961 11.681 5.039 11.69 5.123C11.706 5.226 11.71 5.332 11.703 5.439L11.71 5.442Z" fill="var(--fill-0, black)"/>
</g>
<defs>
<clipPath id="clip0_0_8">
<rect width="16" height="16" fill="white"/>
</clipPath>
</defs>
</svg>
