<svg width="220" height="59" preserveAspectRatio="xMidYMid meet" overflow="visible" style="display: block;" viewBox="0 0 220 58.6247" fill="none" xmlns="http://www.w3.org/2000/svg">
<g id="Ib0oJhkrFMSaoHX0cgdQjP8Ncww.svg" clip-path="url(#clip0_0_39)">
<path id="Vector" d="M90.7967 45.039C89.1433 45.039 87.7181 44.7151 86.5211 44.0673C85.3211 43.4194 84.4142 42.4816 83.7663 41.2508C83.1185 40.0199 82.7946 38.4991 82.7946 36.7191V25.555H78.6794V20.4403H82.7607V14.1873H89.1093V20.4403H95.6523V25.555H89.1093V35.9417C89.1093 37.0739 89.3376 37.9808 89.8219 38.5947C90.3093 39.2086 91.0528 39.5325 92.0585 39.5325C92.5767 39.5325 93.1289 39.4677 93.7119 39.3073C94.295 39.1438 94.878 38.9525 95.3963 38.7243L96.5315 43.4811C95.7045 43.9615 94.8232 44.3416 93.9063 44.6133C92.9346 44.8724 91.898 45.0328 90.7967 45.0328V45.039ZM111.141 45.039C109.358 45.039 107.708 44.7151 106.218 44.1012C104.728 43.4873 103.432 42.6112 102.331 41.4791C101.23 40.3469 100.388 39.0204 99.8045 37.4348C99.1876 35.88 98.8976 34.1648 98.8976 32.354C98.8976 30.5432 99.1907 28.9237 99.8045 27.3689C100.418 25.8141 101.264 24.4876 102.331 23.3555C103.401 22.2233 104.663 21.3503 106.122 20.7025C107.581 20.0547 109.136 19.7647 110.851 19.7647C112.567 19.7647 114.189 20.0547 115.645 20.6717C117.071 21.2855 118.301 22.1277 119.338 23.2599C120.374 24.392 121.152 25.7185 121.704 27.2393C122.256 28.7941 122.546 30.5093 122.546 32.4157V33.9705H105.376C105.635 35.7505 106.283 37.1417 107.319 38.1443C108.874 39.6482 109.651 39.6652 111.206 39.6652C112.307 39.6652 113.279 39.406 114.186 38.8878C115.093 38.3695 115.806 37.6261 116.389 36.6543L122.059 38.4651C121.507 39.8256 120.698 40.9886 119.597 41.9603C118.496 42.932 117.231 43.6755 115.775 44.1937C114.316 44.7768 112.795 45.0359 111.141 45.0359V45.039ZM110.818 24.6511C109.423 24.6511 108.257 25.1046 107.319 26.0116C106.378 26.9185 105.731 28.1463 105.441 29.7319H116.003C115.778 28.1463 115.195 26.9154 114.254 26.0116C113.347 25.1046 112.181 24.6511 110.821 24.6511H110.818ZM126.467 44.3603V20.4434H132.331L132.557 24.0681C133.17 22.8064 133.982 21.8347 135.018 21.156C136.055 20.4773 137.255 20.1534 138.646 20.1534C139.069 20.1534 139.488 20.1842 139.911 20.249C140.333 20.3138 140.722 20.4094 141.046 20.539L140.364 26.7859C140.04 26.6563 139.683 26.5915 139.359 26.5267C139.001 26.4959 138.646 26.4619 138.288 26.4619C136.539 26.4619 135.179 27.011 134.238 28.0815C133.297 29.1489 132.843 30.6697 132.843 32.644V44.3603H126.461H126.467ZM144.48 44.3603V20.4434H150.344L150.538 23.519C151.22 22.3868 152.192 21.449 153.423 20.7673C154.653 20.0855 156.048 19.7647 157.603 19.7647C159.352 19.7647 160.876 20.1842 162.202 20.9956C163.532 21.8377 164.534 23.0007 165.247 24.5555C165.959 26.1103 166.348 27.9211 166.348 29.991V44.3603H159.999V30.7993C159.999 29.1489 159.611 27.8224 158.864 26.8846C158.121 25.9468 157.05 25.4594 155.721 25.4594C154.749 25.4594 153.907 25.6846 153.194 26.1072C152.482 26.5607 151.899 27.1437 151.476 27.9519C151.053 28.7293 150.828 29.6363 150.828 30.6388V44.3603H144.48ZM182.935 45.039C181.152 45.039 179.502 44.7151 177.978 44.1012C176.454 43.4534 175.158 42.5803 174.026 41.4482C172.891 40.3161 172.049 38.9896 171.435 37.4348C170.818 35.88 170.494 34.2296 170.494 32.4188C170.494 30.608 170.818 28.9237 171.435 27.4028C172.083 25.882 172.959 24.5555 174.091 23.3894C175.226 22.2573 176.553 21.3503 178.077 20.7025C179.601 20.0547 181.285 19.7647 183.099 19.7647C184.913 19.7647 186.532 20.0886 188.056 20.7025C189.58 21.3503 190.876 22.2233 192.008 23.3555C193.143 24.4876 193.985 25.8141 194.599 27.335C195.213 28.8558 195.54 30.5401 195.54 32.3509C195.54 34.1618 195.216 35.8461 194.599 37.3669C193.951 38.9217 193.075 40.2482 191.943 41.4112C190.8 42.5552 189.447 43.4675 187.958 44.0981C186.403 44.712 184.749 45.0359 182.935 45.0359V45.039ZM183 39.3443C184.135 39.3443 185.172 39.0543 186.079 38.4374C186.986 37.8235 187.698 37.0122 188.217 35.9787C188.735 34.9422 188.994 33.7453 188.994 32.4188C188.994 31.0923 188.735 29.8954 188.217 28.8589C187.698 27.8224 186.986 26.9833 186.079 26.4002C185.172 25.7864 184.135 25.4933 183 25.4933C181.865 25.4933 180.828 25.7833 179.921 26.4002C179.015 27.0141 178.302 27.8255 177.784 28.8589C177.265 29.8954 177.006 31.0923 177.006 32.4188C177.006 33.7453 177.265 34.9422 177.784 35.9787C178.302 37.0153 179.015 37.8543 179.921 38.4374C180.828 39.0204 181.865 39.3443 183 39.3443ZM207.105 45.039C205.874 45.039 204.739 44.8446 203.703 44.4899C202.666 44.1351 201.79 43.6169 201.013 42.9351C200.235 42.2564 199.652 41.4791 199.23 40.5721C198.807 39.6652 198.582 38.6626 198.582 37.5952C198.582 36.0744 199.004 34.7479 199.813 33.6157C200.624 32.4836 201.79 31.5766 203.246 30.9288C204.736 30.281 206.454 29.9571 208.429 29.9571C209.434 29.9571 210.372 30.0527 211.248 30.2162C212.131 30.4066 212.998 30.6665 213.84 30.9936V29.6023C213.84 28.2419 213.451 27.1437 212.673 26.3015C211.896 25.4594 210.86 25.0398 209.53 25.0398C208.524 25.0398 207.617 25.299 206.809 25.7833C206.001 26.2676 205.415 26.9802 205.091 27.8871L199.421 26.755C199.745 25.3637 200.427 24.1668 201.398 23.0994C202.37 22.0629 203.57 21.2547 204.995 20.6717C206.42 20.0886 207.944 19.7986 209.629 19.7986C211.183 19.7986 212.578 20.0238 213.84 20.5112C215.104 20.9956 216.206 21.6773 217.113 22.5812C218.02 23.4881 218.732 24.5555 219.25 25.7864C219.738 27.0172 219.994 28.3746 219.994 29.8954V44.3942H214.324L214.13 41.5778C213.482 42.6143 212.575 43.4564 211.375 44.1012C210.175 44.7151 208.75 45.039 207.099 45.039H207.105ZM204.838 37.2405C204.838 38.0826 205.196 38.7921 205.874 39.3104C206.556 39.8595 207.494 40.1186 208.629 40.1186C209.635 40.1186 210.508 39.8934 211.319 39.4708C212.097 39.0513 212.714 38.4682 213.167 37.7217C213.621 36.9782 213.849 36.1669 213.849 35.2631V35.0379C213.167 34.7787 212.488 34.5535 211.711 34.39C210.964 34.2265 210.187 34.1309 209.444 34.1309C208.018 34.1309 206.883 34.4209 206.075 34.9731C205.233 35.5561 204.844 36.2996 204.844 37.2374L204.838 37.2405ZM30.8702 1.09223e-07C24.1257 -0.000567816 17.5676 2.21365 12.2037 6.30237C6.82935 10.4041 2.94259 16.1498 1.13523 22.6645C-0.675627 29.1862 -0.31175 36.1205 2.17174 42.4168C4.65506 48.71 9.12502 54.0159 14.8906 57.5172C16.066 58.2329 17.411 58.6124 18.7837 58.6124H18.8855C19.8881 58.6185 20.8845 58.4242 21.81 58.0417C22.7385 57.6591 23.5807 57.0946 24.2902 56.382C24.9997 55.6694 25.5612 54.8211 25.9437 53.8894C26.3262 52.9578 26.5175 51.9583 26.5144 50.9496V36.8302C26.5144 36.753 26.4805 36.6759 26.4249 36.6235C26.3694 36.568 26.2954 36.5371 26.2182 36.534H21.5786C20.9956 36.5556 20.4125 36.46 19.8665 36.2502C19.3205 36.0404 18.8238 35.7227 18.4043 35.3155C17.9837 34.9079 17.649 34.4202 17.4202 33.881C17.1919 33.3412 17.0747 32.7612 17.0747 32.1751C17.0747 31.589 17.1919 31.009 17.4202 30.4692C17.6475 29.9292 17.9824 29.4412 18.4043 29.0347C18.8234 28.6274 19.3209 28.3094 19.8665 28.0999C20.4121 27.8905 20.9946 27.794 21.5786 27.8162H40.131C40.714 27.7946 41.297 27.8902 41.8431 28.1C42.3891 28.3098 42.8858 28.6275 43.3053 29.0347C43.7259 29.4423 44.0605 29.93 44.2894 30.4692C44.5176 31.009 44.6349 31.589 44.6349 32.1751C44.6349 32.7612 44.5176 33.3412 44.2894 33.881C44.062 34.421 43.7272 34.909 43.3053 35.3155C42.8858 35.7227 42.386 36.0404 41.8431 36.2502C41.3001 36.46 40.7171 36.5556 40.131 36.534H35.5037C35.4266 36.534 35.3525 36.568 35.297 36.6235C35.2415 36.679 35.2106 36.753 35.2075 36.8302V50.9496C35.223 52.9825 36.0312 54.929 37.4656 56.3635C38.895 57.7997 40.8348 58.6116 42.8611 58.6216H42.9629C44.3387 58.6216 45.6868 58.236 46.856 57.5111C52.6219 53.9969 57.0808 48.6941 59.5533 42.4107C62.0304 36.1206 62.3944 29.189 60.5836 22.6706C58.7728 16.1554 54.889 10.4114 49.5275 6.32088C44.1686 2.23315 37.6163 0.0169221 30.8764 0.0123396L30.8702 1.09223e-07ZM8.97386 37.1294C7.99596 37.1294 7.04274 36.8394 6.22834 36.2965C5.41445 35.752 4.7809 34.9778 4.40827 34.0723C4.03447 33.1655 3.93681 32.1685 4.12755 31.2065C4.31769 30.2454 4.78779 29.3621 5.47871 28.6676C6.16972 27.9735 7.04891 27.5015 8.0083 27.3103C8.96769 27.119 9.95793 27.2177 10.8618 27.5941C11.7626 27.9704 12.5338 28.6059 13.0767 29.4234C13.6197 30.2409 13.9066 31.2003 13.9066 32.1813C13.9051 33.4881 13.3885 34.7417 12.469 35.6703C11.5522 36.5973 10.3054 37.1231 9.00163 37.1325H8.97695L8.97386 37.1294ZM30.8702 22.3745C29.3555 22.3745 27.8748 21.9241 26.6131 21.0819C25.352 20.2353 24.3698 19.0341 23.7905 17.63C23.2105 16.2233 23.0563 14.6778 23.3524 13.1847C23.6486 11.6916 24.3766 10.3219 25.447 9.24533C26.5175 8.16871 27.881 7.43452 29.3679 7.13837C30.8532 6.84144 32.3933 6.99395 33.7916 7.57642C35.1921 8.15956 36.388 9.14511 37.2281 10.4083C38.0703 11.6731 38.5176 13.16 38.5176 14.6839C38.5055 16.7164 37.6957 18.6628 36.2626 20.104C34.8327 21.5399 32.8935 22.3527 30.8671 22.3652V22.3776L30.8702 22.3745ZM52.6771 37.1294C51.7023 37.1294 50.746 36.8394 49.9347 36.2934C49.1223 35.7467 48.4901 34.9717 48.1177 34.0661C47.7439 33.1593 47.6462 32.1624 47.837 31.2003C48.0271 30.2393 48.4972 29.356 49.1881 28.6615C49.8791 27.9674 50.7583 27.4954 51.7177 27.3072C52.674 27.1159 53.6673 27.2147 54.5712 27.591C55.472 27.9674 56.2432 28.6028 56.7861 29.4203C57.3291 30.2378 57.616 31.1941 57.616 32.1751C57.616 33.4893 57.0915 34.7479 56.1661 35.6764C55.2406 36.605 53.9882 37.1263 52.6802 37.1294H52.6771Z" fill="var(--fill-0, black)"/>
</g>
<defs>
<clipPath id="clip0_0_39">
<rect width="220" height="58.6247" fill="white"/>
</clipPath>
</defs>
</svg>
