<svg width="220" height="21" preserveAspectRatio="xMidYMid meet" overflow="visible" style="display: block;" viewBox="0 0 220 20.6556" fill="none" xmlns="http://www.w3.org/2000/svg">
<g id="CZ5ol82DRaB07XLd0RudoI5dlOs.svg" clip-path="url(#clip0_0_37)">
<path id="Vector" d="M167.045 0H156.729C152.765 0 149.555 3.21954 149.555 7.19456V13.461C149.555 17.436 152.766 20.6556 156.729 20.6556H167.289V20.6449C171.138 20.5153 174.22 17.3533 174.22 13.461V7.19456C174.22 3.21979 171.01 0 167.045 0ZM165.932 17.2239H157.841V3.4319H165.932V17.2239ZM52.4608 0H42.1458C38.1812 0 34.9703 3.21954 34.9703 7.19456V13.461C34.9703 17.436 38.1812 20.6556 42.1458 20.6556H52.7048V20.6449C56.5548 20.5153 59.6366 17.3533 59.6366 13.461V7.19456C59.6366 3.21979 56.4254 0 52.4611 0L52.4608 0ZM51.3486 17.2239H43.258V3.4319H51.3486V17.2239ZM110.192 3.59715H110.196L104.204 14.0006V0H100.053C98.7925 0.000107756 97.5542 0.332725 96.4631 0.964288C95.372 1.59585 94.4669 2.50402 93.8389 3.59715L85.1566 18.6735L81.3356 12.0402C84.0802 12.0078 86.2976 9.76657 86.2976 7.00741V5.03606C86.2976 2.25551 84.0479 0 81.2745 0H61.6313V20.6556H69.9193V12.044H71.7704L76.7288 20.6558H87.8439L95.9164 6.63361V20.6561H104.204V20.6484L112.241 6.69116V20.6556H120.529V0H116.406C115.146 0.00015254 113.907 0.332791 112.816 0.964352C111.725 1.59591 110.82 2.50406 110.192 3.59715ZM78.0096 8.61183H69.9193V3.4319H78.0096V8.61183ZM139.221 0H147.508V20.6556H139.221V12.044H131.131V20.6556H122.843V0H131.131V8.61183H139.221L139.221 0ZM184.553 17.2239H195.253V20.6556H183.441C179.476 20.6556 176.265 17.436 176.265 13.461V0H184.553V17.2239ZM205.671 3.4319V8.61157H217.012V12.044H205.67V17.2242H220V20.6556H197.383V0H220V3.4319H205.671ZM36.5164 0L26.6928 17.0584C26.065 18.1514 25.1599 19.0595 24.069 19.6911C22.9781 20.3227 21.7399 20.6553 20.4794 20.6556H16.3281V6.655L10.3367 17.0584C9.70873 18.1515 8.80356 19.0597 7.71251 19.6913C6.62145 20.3228 5.38312 20.6554 4.12245 20.6556H0V0H8.2915V13.9647L16.3281 0.00712963V0H24.6158V14.0225L32.6883 0H36.5164Z" fill="var(--fill-0, black)"/>
</g>
<defs>
<clipPath id="clip0_0_37">
<rect width="220" height="20.6556" fill="white"/>
</clipPath>
</defs>
</svg>
