<svg width="216" height="46" preserveAspectRatio="xMidYMid meet" overflow="visible" style="display: block;" viewBox="0 0 216.364 45.8333" fill="none" xmlns="http://www.w3.org/2000/svg">
<g id="Layer_1-2">
<path id="Vector" d="M11.4583 14.5139C16.1028 14.5139 19.8611 18.2722 19.8611 22.9167V23.3139C20.0444 31.4111 26.0944 38.1944 33.8556 39.5083C30.6472 41.6167 26.8583 42.7778 22.9167 42.7778C18.975 42.7778 12.65 40.7306 8.92222 37.0028C5.16389 33.275 3.08611 28.325 3.05556 23.0389V22.825C3.11667 18.2417 6.875 14.5444 11.4583 14.5444M11.4583 11.4583C5.19444 11.4583 0.0916667 16.5 3.97364e-08 22.7639V23.0694C0.0916667 35.6583 10.2972 45.8333 22.9167 45.8333C35.5361 45.8333 37.8889 41.7694 41.9833 35.6278C40.3333 36.3 38.5611 36.6972 36.6667 36.6972C29.15 36.6972 23.0694 30.6778 22.9167 23.2222V22.9167C22.9167 16.5917 17.7833 11.4583 11.4583 11.4583Z" fill="var(--fill-0, #011439)"/>
<path id="Vector_2" d="M45.8333 22.7639C45.8028 18.1194 44.3972 13.8111 41.9833 10.2056C37.8889 4.06389 30.8611 0 22.9167 0C10.2972 0 0.0916667 10.175 0 22.7639C0.0916667 16.5 5.19444 11.4583 11.4583 11.4583C17.7222 11.4583 22.9167 16.5917 22.9167 22.9167V23.2222C23.0694 29.425 28.1417 34.375 34.375 34.375C40.6083 34.375 45.7417 29.3333 45.8333 23.0694V22.7639ZM55.5194 36.6667V7.21111H69.8194C73.15 7.21111 75.7472 8.06667 77.6111 9.74722C79.475 11.4278 80.4222 13.75 80.4222 16.7139C80.4222 19.6778 79.475 21.9694 77.6111 23.65C75.7472 25.3611 73.15 26.1861 69.8194 26.1861H62.3639V36.6667H55.5194ZM62.3639 20.2278H69.3917C70.7361 20.2278 71.775 19.9222 72.5083 19.3111C73.2111 18.7 73.5778 17.8139 73.5778 16.7139C73.5778 15.6139 73.2111 14.6972 72.5083 14.0861C71.8056 13.475 70.7667 13.1694 69.3917 13.1694H62.3639V20.2278ZM92.6444 37.0944C90.2306 37.0944 88.1528 36.6361 86.3806 35.6889C84.6083 34.7417 83.2333 33.4278 82.2861 31.7167C81.3389 30.0056 80.85 27.9889 80.85 25.6667C80.85 23.3444 81.3083 21.3278 82.2556 19.6472C83.2028 17.9667 84.5167 16.6528 86.2583 15.7667C88 14.85 90.0472 14.3917 92.4 14.3917C95.9292 14.3917 96.7389 14.85 98.3889 15.7056C100.069 16.5917 101.353 17.8444 102.239 19.4944C103.125 21.1444 103.583 23.1306 103.583 25.4222V27.5611H87.3278C87.6028 28.9667 88.1833 30.0361 89.0694 30.7389C89.9556 31.4417 91.1472 31.8083 92.6444 31.8083C94.1417 31.8083 94.7528 31.625 95.425 31.2583C96.0972 30.8917 96.5861 30.2806 96.8611 29.4556H103.553C103.094 31.8389 101.903 33.7028 99.9778 35.0472C98.0528 36.3917 95.6389 37.0639 92.675 37.0639L92.6444 37.0944ZM87.3889 23.2528H97.1361C96.9222 22.0306 96.4028 21.1444 95.6389 20.5333C94.8444 19.9528 93.775 19.6472 92.4306 19.6472C91.0861 19.6472 90.0167 19.9528 89.1611 20.5639C88.3056 21.175 87.725 22.0611 87.4194 23.2528H87.3889ZM106.425 36.6667V6.11111H113.117V36.6667H106.425ZM124.453 37.0639C121.825 37.0639 119.778 36.4528 118.311 35.2C116.844 33.9472 116.111 32.2972 116.111 30.1889C116.111 28.0806 116.875 26.3694 118.433 25.1778C119.992 23.9861 122.161 23.4056 125.033 23.4056H130.9V22.6111C130.9 20.625 129.647 19.6167 127.111 19.6167C124.575 19.6167 123.506 20.3806 123.047 21.8778H116.417C116.936 19.4028 118.067 17.5389 119.869 16.2861C121.672 15.0333 124.056 14.3917 127.081 14.3917C130.106 14.3917 132.947 15.125 134.689 16.5917C136.431 18.0583 137.317 20.1972 137.317 23.0083V30.0972H140.433V36.6361H133.742V33H132.214C131.45 34.3139 130.472 35.3222 129.219 35.9944C127.997 36.6972 126.408 37.0333 124.453 37.0333V37.0639ZM125.492 32.0528C126.561 32.0528 127.508 31.8694 128.303 31.5028C129.097 31.1361 129.739 30.6472 130.197 30.0056C130.656 29.3639 130.9 28.6611 130.9 27.8972V27.775H125.339C123.475 27.775 122.528 28.4778 122.528 29.8528C122.528 31.2278 122.803 31.1056 123.322 31.4722C123.842 31.8389 124.575 32.0222 125.492 32.0222V32.0528ZM153.786 45.8333C150.425 45.8333 147.675 45.1611 145.597 43.8167C143.489 42.4722 142.267 40.6083 141.869 38.1944H148.928C149.478 39.7833 151.036 40.6083 153.542 40.6083C156.047 40.6083 156.658 40.2111 157.606 39.4167C158.522 38.6222 159.011 37.4611 159.011 35.9944V33.275H158.828C158.156 34.4056 157.269 35.2611 156.139 35.8417C155.039 36.4222 153.694 36.6972 152.136 36.6972C150.578 36.6972 148.317 36.2389 146.819 35.3222C145.292 34.4056 144.131 33.1222 143.306 31.4417C142.481 29.7611 142.053 27.8056 142.053 25.5444C142.053 22.1528 143 19.4333 144.864 17.4472C146.728 15.4306 149.356 14.4222 152.656 14.4222C155.956 14.4222 156.078 14.7889 157.392 15.4917C158.706 16.1944 159.775 17.2028 160.539 18.4861H162.067V14.85H168.758V21.3889H165.489V35.9639C165.489 39.1111 164.481 41.5556 162.464 43.2667C160.447 44.9778 157.575 45.8333 153.817 45.8333H153.786ZM153.786 30.8306C155.375 30.8306 156.597 30.4028 157.453 29.5472C158.339 28.6917 158.767 27.5306 158.767 26.0028V24.9028C158.767 23.4361 158.308 22.275 157.453 21.4194C156.567 20.5944 155.344 20.1667 153.786 20.1667C152.228 20.1667 150.914 20.625 150.028 21.5722C149.142 22.5194 148.683 23.8333 148.683 25.5139C148.683 27.1944 149.142 28.5083 150.028 29.425C150.914 30.3417 152.167 30.8 153.786 30.8V30.8306ZM181.989 37.0944C179.575 37.0944 177.497 36.6361 175.694 35.6889C173.892 34.7417 172.517 33.4278 171.539 31.7167C170.561 30.0056 170.072 27.9889 170.072 25.6972C170.072 23.4056 170.561 21.3889 171.539 19.7083C172.517 18.0278 173.922 16.7139 175.694 15.7667C177.497 14.85 179.606 14.3917 182.019 14.3917C185.64 14.3917 186.542 14.85 188.283 15.7667C190.056 16.6833 191.4 17.9972 192.378 19.7083C193.356 21.4194 193.844 23.4056 193.844 25.7583C193.844 28.1111 193.356 30.0667 192.378 31.7778C191.4 33.4889 190.025 34.8028 188.253 35.7194C185.594 37.0944 184.372 37.0944 181.958 37.0944H181.989ZM181.989 31.2889C183.669 31.2889 184.953 30.7694 185.839 29.7917C186.725 28.8139 187.153 27.4389 187.153 25.7278C187.153 24.0167 186.694 22.7028 185.839 21.6944C184.953 20.7167 183.669 20.2278 181.989 20.2278C179.468 20.2278 178.994 20.7167 178.108 21.6944C177.222 22.6722 176.764 24.0167 176.764 25.7278C176.764 27.4389 177.222 28.7833 178.108 29.7917C178.994 30.8 180.308 31.2889 181.989 31.2889ZM206.556 37.0944C203.286 37.0944 200.689 36.3917 198.825 35.0167C196.931 33.6417 195.922 31.7167 195.8 29.2417H202.247C202.431 30.2194 202.919 30.9222 203.653 31.3806C204.386 31.8389 205.456 32.0833 206.861 32.0833C209.031 32.0833 210.131 31.5028 210.131 30.3722C210.131 29.2417 209.978 29.5472 209.642 29.2722C209.306 28.9972 208.786 28.7833 208.022 28.6306L203.133 27.6833C198.672 26.7972 196.442 24.7194 196.442 21.4194C196.442 18.1194 197.297 17.5694 199.039 16.3167C200.781 15.0639 203.133 14.4222 206.158 14.4222C209.183 14.4222 211.567 15.0639 213.339 16.3778C215.081 17.6917 216.028 19.525 216.181 21.9083H209.733C209.489 20.9611 209.061 20.2889 208.45 19.8611C207.839 19.4333 206.922 19.2194 205.731 19.2194C204.539 19.2194 204.019 19.3417 203.5 19.6167C202.981 19.8917 202.706 20.2889 202.706 20.8083C202.706 21.3278 202.858 21.5111 203.164 21.7861C203.469 22.0611 203.958 22.2444 204.569 22.3667L209.581 23.3444C211.903 23.8028 213.614 24.5667 214.714 25.6056C215.814 26.6444 216.364 28.05 216.364 29.8222C216.364 32.4806 215.508 33.8861 213.828 35.1694C212.147 36.4528 209.703 37.0944 206.525 37.0944H206.556Z" fill="var(--fill-0, #011439)"/>
</g>
</svg>
