<svg width="220" height="37" preserveAspectRatio="xMidYMid meet" overflow="visible" style="display: block;" viewBox="0 0 220 37.2876" fill="none" xmlns="http://www.w3.org/2000/svg">
<g id="Group">
<path id="Vector" d="M83.4378 36.6968C80.2702 36.6111 77.0802 36.7621 73.9107 36.695L80.6971 16.9472L66.9714 29.6736L59.8959 29.847L54.5693 16.6545L47.0073 36.6465C37.9742 36.9765 28.9654 36.5999 19.9175 36.695C19.772 35.5465 20.1692 35.2221 21.2375 34.9984C26.6069 33.8797 35.0807 34.6106 40.8436 34.1146C43.5749 33.8778 47.3224 32.5634 43.9627 29.8899C41.5054 29.4797 24.627 29.4667 23.9353 28.4804C23.1149 27.3077 24.7146 26.2655 25.8314 26.0995C31.9336 25.1916 41.2034 26.629 46.8507 25.1841C48.5119 24.759 49.3247 22.2197 47.5592 21.4553L0 18.9458C16.7163 17.7862 33.5071 17.6631 50.2495 16.8092C51.8864 16.3245 52.4029 13.6136 50.8275 13.058C45.3461 11.9729 37.6871 13.2351 32.4892 12.0606C30.8168 11.6821 31.4134 9.52497 32.7744 9.21547L52.9137 8.57598C54.3232 8.32802 55.742 5.92107 54.45 4.88446C53.1561 3.85158 34.417 4.20209 31.3314 3.47497C29.5714 3.09463 30.1978 0.682085 31.887 0.607509C40.0195 1.12581 49.6249 -0.61927 57.6102 0.320391C58.8649 0.467679 59.8866 0.849882 60.5559 1.97785C62.6273 5.46056 63.9342 13.6248 65.601 17.8775C65.7875 18.3567 65.9086 19.5928 66.5463 19.5275C67.8364 19.397 82.9885 3.73598 85.4551 1.90887C85.9547 1.43531 87.959 0.335306 88.4903 0.335306H96.14L83.4378 36.4116V36.7006V36.6968Z" fill="var(--fill-0, #E96F1E)"/>
<path id="Vector_2" d="M220 0.331577L217.369 8.31683C210.156 8.85751 202.137 7.70903 195.017 8.3392C190.848 8.71022 188.932 10.1402 188.242 14.3612H215.091L212.298 22.3931L185.344 22.8014C183.883 24.3656 184.703 28.6799 186.94 28.6799H210.182C210.083 30.1192 208.288 36.7099 207.151 36.9821C198.992 35.7255 176.412 41.2721 174.991 29.077C174.52 25.0126 179.966 9.07192 182.747 5.90988C184.914 3.44887 190.279 0.335306 193.581 0.335306H219.998L220 0.329712V0.331577ZM83.4378 36.4097L114.609 3.04242C117.411 -0.00401633 125.378 -1.92436 127.018 3.06853C129.274 9.94819 131.032 23.6236 132.138 31.2043C132.418 33.1209 132.865 35.0282 132.809 36.9821H123.424C122.646 36.9821 122.409 31.5417 122.124 31.5417H104.513C104.787 30.3019 110.768 23.5248 111.299 23.5248H120.681L118.518 10.6417L94.5702 36.7099C90.9159 37.4426 87.0175 36.7919 83.4397 36.695V36.4097H83.4378ZM179.869 0.331577C180.242 0.695136 177.879 8.18819 177.286 8.49581L154.354 8.38768C151.155 8.74937 149.693 9.9687 148.394 12.7821C147.419 14.8926 144.316 24.3451 144.665 26.2282C144.889 27.4419 145.862 28.0926 146.945 28.5438C149.839 29.6867 170.051 27.8577 170.919 28.678C171.236 28.9782 168.561 36.5831 168.033 36.8423C167.69 37.0101 167.385 36.956 167.038 36.9989C162.627 37.5433 144.311 37.3792 140.608 35.9753C135.22 33.9338 134.245 29.2839 135.313 24.1475C137.191 15.1201 142.329 0.331577 153.741 0.331577H179.869Z" fill="var(--fill-0, black)"/>
<path id="Vector_3" d="M18.4278 28.3462C17.8349 28.706 9.45068 28.0889 8.2239 27.8148C7.77644 27.716 7.72051 28.005 7.79509 27.248C9.4078 27.4326 18.2805 25.8497 18.741 27.1417C18.8156 27.3487 18.5676 28.2604 18.4278 28.3462ZM22.7458 9.29005C23.8122 9.13344 26.4037 8.78666 26.5622 10.2223C26.9947 14.1077 15.4858 10.3658 22.7458 9.29005ZM21.8639 0.689544C25.5331 -0.0189308 26.0495 2.70497 23.8085 3.18412C20.1971 3.95785 18.7 1.2992 21.8639 0.689544ZM9.38169 36.6968C8.82237 36.6484 6.97847 36.365 6.64102 35.8392C8.09153 35.6677 9.64271 35.3078 11.0988 35.2501C12.7656 35.1829 15.0775 34.6646 14.4342 36.6968C12.7824 36.5924 11.0224 36.8385 9.38169 36.6968ZM10.1032 10.6362C9.59983 10.2502 10.161 10.1253 10.532 10.0675C11.302 9.94446 15.3497 9.4709 15.5846 10.2148C16.1197 11.904 10.3419 10.8207 10.1032 10.6362Z" fill="var(--fill-0, #E96F1E)"/>
</g>
</svg>
