<svg width="193" height="33" preserveAspectRatio="xMidYMid meet" overflow="visible" style="display: block;" viewBox="0 0 192.97 33.302" fill="none" xmlns="http://www.w3.org/2000/svg">
<g id="Group">
<path id="Vector" d="M62.4131 19.4333L60.1333 22.3624H54.3713C53.4327 22.3714 52.4993 22.222 51.6105 21.9202C50.7639 21.6247 50.036 21.2192 49.4234 20.7016C48.8204 20.1961 48.3297 19.5701 47.9826 18.8639C47.6321 18.1454 47.4531 17.3555 47.4596 16.5561C47.4596 15.7278 47.6343 14.9708 47.9826 14.2827C48.3315 13.5967 48.8227 12.9931 49.4234 12.512C50.0349 12.0191 50.7639 11.6384 51.6105 11.371C52.5049 11.0974 53.436 10.9624 54.3713 10.9709H62.4142L60.1333 13.9344H54.3713C53.8914 13.9344 53.4449 14.0013 53.034 14.1382C52.6221 14.2752 52.2683 14.465 51.9707 14.7087C51.677 14.9481 51.4374 15.2469 51.2675 15.5855C51.0939 15.9344 51.0056 16.3195 51.0098 16.7092C51.0098 17.119 51.0928 17.49 51.2578 17.8254C51.4239 18.1597 51.6579 18.4466 51.9621 18.6849C52.264 18.9222 52.6221 19.1076 53.034 19.2381C53.467 19.372 53.9181 19.4382 54.3713 19.4344H62.4142L62.4131 19.4333ZM80.0778 10.9709L73.2686 18.5997V22.3624H69.7033V18.5825L62.7065 10.9709H67.2682L70.0118 14.1382L70.372 14.5383C70.6781 14.8793 70.9811 15.223 71.2811 15.5693C71.418 15.7278 71.5151 15.8475 71.5723 15.9252C71.6866 15.7677 71.8526 15.5521 72.0705 15.2792C72.2862 15.0075 72.6022 14.6214 73.013 14.121L75.6196 10.972L80.0778 10.9709ZM94.8772 15.2447C94.8772 15.881 94.7521 16.4569 94.4997 16.9734C94.2484 17.4911 93.8807 17.9289 93.3943 18.2934C92.9079 18.6558 92.3159 18.9405 91.6192 19.1454C90.9215 19.3481 90.1277 19.4517 89.2359 19.4517H83.2333V22.3634H79.7015V16.5399H89.5788C90.1277 16.5399 90.5526 16.4213 90.8557 16.1819C91.1598 15.9435 91.3108 15.6254 91.3108 15.2285C91.3108 14.8306 91.1598 14.5168 90.8557 14.2827C90.5537 14.0509 90.1277 13.9344 89.5788 13.9344H79.7004L82.0503 10.9709H89.2531C90.1439 10.9709 90.9387 11.0766 91.6365 11.2869C92.3342 11.4961 92.923 11.7883 93.4029 12.1636C93.8828 12.5378 94.2484 12.9865 94.4997 13.5084C94.7562 14.0509 94.8853 14.6447 94.8772 15.2447ZM110.603 22.3624H107.07V17.9699H100.246V22.3624H96.6781V10.9709H100.245V15.0064H107.069V10.9709H110.602L110.603 22.3624ZM126.105 19.4333L123.824 22.3624H112.78V10.9709H126.071L123.773 13.9344H116.348V15.2965H125.437L123.396 17.8847H116.348V19.4344L126.105 19.4333ZM143.597 22.3624H138.847L136.292 19.3481H130.839V22.3624H127.288V16.5388H137.269C137.818 16.5388 138.282 16.4256 138.658 16.1991C139.037 15.9726 139.224 15.6599 139.224 15.262C139.224 14.8198 139.053 14.4876 138.71 14.2655C138.367 14.0455 137.887 13.9344 137.269 13.9344H127.288L129.604 10.9709H136.978C137.629 10.9709 138.305 11.0313 139.001 11.1499C139.666 11.2577 140.309 11.4734 140.905 11.7883C141.477 12.0946 141.949 12.5087 142.32 13.0318C142.692 13.5548 142.877 14.2234 142.877 15.0409C142.877 15.483 142.809 15.9036 142.671 16.3005C142.534 16.6995 142.337 17.0554 142.08 17.3735C141.816 17.6972 141.497 17.9711 141.136 18.1824C140.747 18.4104 140.321 18.5688 139.877 18.6504C140.071 18.7981 140.288 18.9847 140.528 19.2123C140.768 19.4398 141.088 19.7515 141.488 20.1494L143.597 22.3624ZM152.48 10.7843C155.27 10.7843 157.366 11.2556 158.766 12.1971C160.166 13.1396 160.867 14.6257 160.867 16.6585C160.867 18.7022 160.17 20.1947 158.774 21.1362C157.38 22.0787 155.282 22.55 152.48 22.55C149.669 22.55 147.567 22.0787 146.178 21.1373C144.789 20.1947 144.095 18.7022 144.095 16.6585C144.095 14.6257 144.792 13.1396 146.187 12.1971C147.582 11.2556 149.68 10.7843 152.48 10.7843ZM152.48 19.5875C153.372 19.5875 154.127 19.5509 154.744 19.4765C155.362 19.4031 155.861 19.2586 156.245 19.0429C156.628 18.8273 156.905 18.5285 157.077 18.1489C157.248 17.7682 157.335 17.2711 157.335 16.6585C157.335 16.0449 157.248 15.5488 157.077 15.1692C156.906 14.7894 156.613 14.4775 156.245 14.2827C155.861 14.0725 155.362 13.9312 154.744 13.8568C153.992 13.7764 153.237 13.7397 152.48 13.7468C151.589 13.7468 150.835 13.7834 150.218 13.8568C149.6 13.9323 149.1 14.0725 148.717 14.2827C148.334 14.493 148.057 14.7896 147.885 15.1692C147.713 15.5488 147.628 16.0449 147.628 16.6585C147.628 17.2711 147.713 17.7682 147.885 18.1489C148.057 18.5285 148.334 18.8262 148.717 19.0429C149.1 19.2586 149.6 19.4031 150.218 19.4765C150.835 19.5509 151.589 19.5875 152.48 19.5875ZM177.261 19.4333L174.98 22.3624H169.218C168.279 22.3714 167.346 22.222 166.457 21.9202C165.61 21.6247 164.882 21.2192 164.27 20.7016C163.667 20.196 163.177 19.5701 162.83 18.8639C162.48 18.1455 162.301 17.3555 162.307 16.5561C162.307 15.7278 162.482 14.9708 162.83 14.2827C163.179 13.5968 163.67 12.9931 164.27 12.512C164.882 12.0191 165.61 11.6384 166.457 11.371C167.351 11.0974 168.282 10.9625 169.218 10.9709H177.261L174.98 13.9344H169.218C168.738 13.9344 168.292 14.0013 167.88 14.1382C167.494 14.2617 167.134 14.455 166.817 14.7087C166.524 14.9481 166.284 15.2469 166.114 15.5855C165.94 15.9344 165.852 16.3195 165.856 16.7092C165.856 17.119 165.939 17.49 166.105 17.8254C166.27 18.1597 166.505 18.4466 166.809 18.6849C167.112 18.9222 167.47 19.1076 167.88 19.2381C168.292 19.3686 168.738 19.4344 169.218 19.4344L177.261 19.4333ZM192.97 22.3624H187.603L184.138 19.3654C183.679 18.9733 183.225 18.5765 182.775 18.1748C182.515 17.9422 182.26 17.7034 182.011 17.4587L182.046 18.2675C182.058 18.5458 182.063 18.8208 182.063 19.0936V22.3624H178.497V10.9709H182.063V13.6109C182.063 13.9625 182.058 14.3086 182.046 14.6494C182.034 14.9902 182.018 15.3073 181.994 15.6027C182.223 15.3978 182.501 15.1455 182.825 14.8446C183.241 14.4668 183.667 14.1007 184.103 13.7468L187.413 10.9709H192.558L188.168 14.2407C187.79 14.5243 187.456 14.7745 187.165 14.9902C186.704 15.3311 186.235 15.6605 185.758 15.978C185.574 16.1003 185.389 16.2189 185.201 16.3339C185.533 16.5625 185.932 16.8451 186.401 17.1859C186.871 17.5267 187.477 17.9979 188.22 18.5986L192.97 22.3624Z" fill="var(--fill-0, black)"/>
<path id="Vector_2" d="M15.373 29.5037L17.8502 33.302L27.6704 18.8833H18.1263L10.9612 29.3905L4.20265 19.8356L8.48402 19.8032L12.0849 24.8643L13.3391 22.9727L9.70588 17.848H4.09051e-09L10.9105 33.2545L19.3632 20.8385H23.6295L17.7672 29.342L16.6434 27.6283L15.373 29.5037Z" fill="url(#paint0_linear_0_29)"/>
<path id="Vector_3" d="M10.9612 3.91255L18.1263 14.4197H27.6704L17.8502 0L15.372 3.79931L16.6424 5.67471L17.7661 3.96L23.6295 12.4634H19.3622L10.9105 0.0485294L0 15.455H9.70588L13.3402 10.3303L12.0849 8.43873L8.4851 13.4987L4.20373 13.4664L10.9612 3.91255Z" fill="url(#paint1_linear_0_29)"/>
</g>
<defs>
<linearGradient id="paint0_linear_0_29" x1="-0.670784" y1="25.4348" x2="28.325" y2="25.4348" gradientUnits="userSpaceOnUse">
<stop stop-color="#FBC926"/>
<stop offset="0.006" stop-color="#FBC926"/>
<stop offset="0.253" stop-color="#FFFBCC"/>
<stop offset="0.298" stop-color="#F8EBB9"/>
<stop offset="0.388" stop-color="#E7D08F"/>
<stop offset="0.512" stop-color="#D1AA55"/>
<stop offset="0.596" stop-color="#C3922E"/>
<stop offset="0.823" stop-color="#E4C878"/>
<stop offset="0.871" stop-color="#EED688"/>
<stop offset="1" stop-color="#FFFBCC"/>
</linearGradient>
<linearGradient id="paint1_linear_0_29" x1="-0.669706" y1="7.58676" x2="28.325" y2="7.58676" gradientUnits="userSpaceOnUse">
<stop stop-color="#FBC926"/>
<stop offset="0.006" stop-color="#FBC926"/>
<stop offset="0.253" stop-color="#FFFBCC"/>
<stop offset="0.298" stop-color="#F8EBB9"/>
<stop offset="0.388" stop-color="#E7D08F"/>
<stop offset="0.512" stop-color="#D1AA55"/>
<stop offset="0.596" stop-color="#C3922E"/>
<stop offset="0.823" stop-color="#E4C878"/>
<stop offset="0.871" stop-color="#EED688"/>
<stop offset="1" stop-color="#FFFBCC"/>
</linearGradient>
</defs>
</svg>
