<svg width="220" height="76" preserveAspectRatio="xMidYMid meet" overflow="visible" style="display: block;" viewBox="0 0 220 75.8602" fill="none" xmlns="http://www.w3.org/2000/svg">
<g id="Layer 1">
<path id="Vector" d="M85.3638 49.1776C91.539 49.1776 95.8897 45.8567 95.8897 40.4212C95.8897 34.4869 91.0003 32.9507 86.4069 31.5074C82.0145 30.1798 80.8936 29.2316 80.8936 27.4412C80.8936 25.7817 82.3047 24.5357 84.7076 24.5357C87.651 24.5357 89.2252 26.0719 90.2607 28.2719L95.0684 25.4897C93.1207 21.414 89.466 18.9655 84.7 18.9655C79.7272 18.9655 75.1679 22.1195 75.1679 27.5967C75.1679 33.1176 79.4788 34.9933 83.9129 36.2716C88.2238 37.5157 90.1716 38.3464 90.1716 40.5047C90.1716 42.1224 88.9691 43.5752 85.5288 43.5752C81.9253 43.5752 79.8922 41.8322 78.8567 39.1334L73.9655 41.9972C75.5397 46.3138 79.4371 49.1776 85.3638 49.1776ZM109.361 27.2648C106.326 27.2648 104.14 28.3857 102.647 30.2993V27.8471H97.2931V56.8966H102.639V46.1488C104.132 48.0567 106.328 49.1833 109.353 49.1833C114.906 49.1833 119.466 44.4097 119.466 38.2269C119.466 32.0441 114.914 27.2648 109.361 27.2648ZM108.367 44.074C105.092 44.074 102.647 41.7071 102.647 38.2212C102.647 34.7353 105.092 32.3703 108.367 32.3703C111.682 32.3703 114.127 34.7353 114.127 38.2212C114.127 41.7071 111.682 44.074 108.367 44.074ZM132.694 27.2648C129.918 27.2648 127.763 28.3022 126.519 30.1703V19.5497H121.173V48.5972H126.519V37.3924C126.519 33.789 128.467 32.2452 131.071 32.2452C133.474 32.2452 135.173 33.6979 135.173 36.52V48.5972H140.534V35.8562C140.534 30.3448 137.087 27.2648 132.694 27.2648ZM147.538 40.4212H163.162C163.297 39.6956 163.367 38.9593 163.371 38.2212C163.371 32.1219 159.018 27.2648 152.885 27.2648C146.378 27.2648 141.944 32.0384 141.944 38.2212C141.944 44.404 146.336 49.1776 153.298 49.1776C157.281 49.1776 160.386 47.5598 162.333 44.7378L158.024 42.2476C157.112 43.45 155.455 44.3224 153.382 44.3224C150.563 44.3224 148.284 43.1598 147.538 40.4212ZM147.455 36.2716C148.077 33.6164 150.025 32.0802 152.885 32.0802C155.123 32.0802 157.361 33.2826 158.024 36.2716H147.455ZM170.377 31.4164V27.8471H165.03V48.5972H170.377V38.6783C170.377 34.3162 173.901 33.0759 176.677 33.4078V27.4317C174.066 27.4317 171.448 28.5943 170.377 31.4164ZM187.973 49.1776C194.065 49.1776 198.956 44.404 198.956 38.2212C198.956 32.0384 194.065 27.2648 187.973 27.2648C181.881 27.2648 177.032 32.0384 177.032 38.2212C177.032 44.404 181.879 49.1776 187.973 49.1776ZM187.973 43.9488C184.823 43.9488 182.378 41.5838 182.378 38.2212C182.378 34.8586 184.823 32.4936 187.973 32.4936C191.163 32.4936 193.609 34.8605 193.609 38.2212C193.609 41.5819 191.172 43.9488 187.973 43.9488ZM212.167 27.2648C209.391 27.2648 207.236 28.3022 205.99 30.1703V27.8471H200.644V48.5972H205.99V37.3924C205.99 33.789 207.94 32.2452 210.542 32.2452C212.947 32.2452 214.646 33.6979 214.646 36.52V48.5972H220V35.8562C220 30.3448 216.56 27.2648 212.167 27.2648Z" fill="var(--fill-0, #030B1C)"/>
<path id="Vector_2" d="M48.4303 1.09431V15.6978C48.4301 16.0765 48.3322 16.4487 48.1461 16.7786C47.9601 17.1085 47.6922 17.3848 47.3683 17.581L47.2772 17.6341L43.8635 19.6009L23.9914 31.0295L21.579 32.4159C21.5381 32.4338 21.4994 32.4561 21.4633 32.4822C21.3131 32.583 21.19 32.7192 21.1049 32.8788C21.0197 33.0384 20.9752 33.2165 20.9752 33.3973C20.9752 33.5782 21.0197 33.7563 21.1049 33.9159C21.19 34.0755 21.3131 34.2117 21.4633 34.3124L21.5543 34.3655L24.2759 35.9435L33.569 41.2917L33.734 41.3885C33.8795 41.4891 33.9984 41.6236 34.0806 41.7804C34.1627 41.9371 34.2056 42.1114 34.2056 42.2884C34.2056 42.4653 34.1627 42.6396 34.0806 42.7964C33.9984 42.9531 33.8795 43.0876 33.734 43.1883L33.5728 43.2793L16.5929 53.0617L16.4981 53.1167C16.1767 53.293 15.8159 53.385 15.4493 53.3841C15.1211 53.3831 14.7972 53.3092 14.501 53.1679L14.4062 53.1186L14.2621 53.0333L4.41517 47.3721L1.155 45.4964C1.12466 45.4812 1.09431 45.4622 1.06207 45.4433C0.747191 45.2512 0.486181 44.9823 0.30345 44.6619C0.105081 44.33 0.00022623 43.9505 1.9435e-06 43.5638V28.325C-0.000495669 27.9516 0.0945709 27.5842 0.276157 27.2579C0.457742 26.9316 0.719807 26.6571 1.03742 26.4607C1.04468 26.4537 1.053 26.448 1.06207 26.4436C1.09797 26.4209 1.13535 26.4006 1.17397 26.3829L1.18914 26.3716L4.41328 24.5167L15.2938 18.2581L28.4066 10.7155L46.7121 0.189657C46.7409 0.169428 46.7713 0.151664 46.8031 0.136553C46.9638 0.0470977 47.1446 9.88724e-05 47.3285 1.6351e-06C47.4732 -0.000247638 47.6165 0.028007 47.7503 0.0831523C47.8841 0.138298 48.0057 0.219254 48.1082 0.321398C48.2107 0.423543 48.292 0.544875 48.3476 0.678468C48.4032 0.812061 48.432 0.955299 48.4322 1.1L48.4303 1.09431Z" fill="var(--fill-0, #01ABFF)"/>
<path id="Vector_3" d="M63.7241 32.2983V47.5371C63.7237 47.9152 63.6258 48.2869 63.4397 48.6162C63.2537 48.9454 62.9858 49.2211 62.6621 49.4166L62.5691 49.4697L59.309 51.3472L55.1897 53.7179L48.4341 57.604L35.3176 65.1466L17.0159 75.6724C16.9865 75.6918 16.9561 75.7095 16.9248 75.7255C16.7634 75.8146 16.5819 75.861 16.3976 75.8602C16.2529 75.8604 16.1095 75.8322 15.9758 75.777C15.842 75.7219 15.7204 75.6409 15.6179 75.5388C15.5154 75.4366 15.434 75.3153 15.3784 75.1817C15.3228 75.0481 15.294 74.9049 15.2938 74.7602V60.1567C15.2934 59.7784 15.3911 59.4064 15.5772 59.0771C15.7633 58.7477 16.0316 58.4721 16.3559 58.2772C16.3995 58.2488 16.4469 58.2241 16.4905 58.2014L19.8664 56.2574L39.7328 44.8288L42.1129 43.4595L42.2666 43.3722L42.2817 43.3628C42.4274 43.2615 42.5464 43.1265 42.6287 42.9693C42.7109 42.8122 42.7539 42.6374 42.754 42.46C42.7524 42.2796 42.7073 42.1023 42.6224 41.9431C42.5376 41.784 42.4155 41.6477 42.2666 41.5459C42.2313 41.5226 42.1946 41.5017 42.1565 41.4833L39.4483 39.9167L30.1552 34.5666L29.9769 34.4622C29.8348 34.3613 29.7189 34.2277 29.639 34.0728C29.5591 33.9179 29.5173 33.7461 29.5173 33.5718C29.5173 33.3975 29.5591 33.2257 29.639 33.0708C29.7189 32.9159 29.8348 32.7824 29.9769 32.6814L30.1666 32.5752C30.1754 32.569 30.1849 32.5639 30.195 32.56L47.135 22.8117L47.2678 22.7359C47.5836 22.5708 47.9346 22.4847 48.2909 22.4847C48.6473 22.4847 48.9983 22.5708 49.3141 22.7359L49.4583 22.8193L59.3317 28.4976L62.5919 30.3752C62.6234 30.3907 62.6539 30.4085 62.6829 30.4283C62.9981 30.6192 63.2592 30.8875 63.4416 31.2078C63.6383 31.5408 63.7411 31.9209 63.7393 32.3078L63.7241 32.2983Z" fill="var(--fill-0, #0057FF)"/>
</g>
</svg>
