<svg preserveAspectRatio="none" width="100%" height="100%" overflow="visible" style="display: block;" viewBox="0 0 140 32.5" fill="none" xmlns="http://www.w3.org/2000/svg">
<g id="svg-2138657929_1469" clip-path="url(#clip0_0_10)">
<path id="Vector" fill-rule="evenodd" clip-rule="evenodd" d="M37.0307 16.1086C37.0307 25.0051 28.7266 32.2172 18.483 32.2172C8.76447 32.2172 0.791875 25.7254 0 17.4627H24.5158V14.7544H0C0.791875 6.4918 8.76447 0 18.483 0C28.7266 0 37.0307 7.21207 37.0307 16.1086ZM105.794 29.2986C112.221 29.2986 116.436 26.2852 116.436 21.7466C116.436 17.5348 113.264 15.5379 108.465 14.8481L104.208 14.2309C100.953 13.7589 98.7825 12.5242 98.7825 9.80094C98.7825 7.04196 101.203 4.9359 105.794 4.9359C110.259 4.9359 112.555 6.89644 112.805 9.69232H116.018C115.768 5.98878 112.513 2.68491 105.836 2.68491C99.2415 2.68491 95.6109 5.91617 95.6109 9.91016C95.6109 14.1583 98.9076 16.1188 103.415 16.7723L107.714 17.3532C111.302 17.8978 113.306 19.1686 113.306 21.8555C113.306 25.0145 110.343 27.0476 105.836 27.0476C101.161 27.0476 98.24 25.0871 97.9896 21.7466H94.818C95.0684 26.1034 98.9076 29.2986 105.794 29.2986ZM58.4143 28.7903H46.7294V3.2295H57.997C62.9633 3.2295 66.4273 5.77095 66.4273 9.83754C66.4273 12.7786 64.5074 14.7389 61.4193 15.3927V15.5016C65.0916 16.1188 67.3454 18.2972 67.3454 21.7103C67.3454 26.1036 63.631 28.7903 58.4143 28.7903ZM57.5797 14.4487C61.1272 14.4487 63.2972 12.7786 63.2972 10.1643V9.80124C63.2972 7.18718 61.1272 5.55311 57.5797 5.55311H49.8592V14.4487H57.5797ZM57.9553 26.4667C61.8366 26.4667 64.2152 24.6151 64.2152 21.7829V21.4198C64.2152 18.479 61.7949 16.7 57.9136 16.7H49.8592V26.4667H57.9553ZM92.6208 28.7903H89.2823L86.7781 21.8555H75.0928L72.589 28.7903H69.4171L79.0576 3.2295H82.8554L92.6208 28.7903ZM81.1024 6.02509H80.852L75.9275 19.5682H85.9852L81.1024 6.02509ZM121.137 28.7903V3.2295H140V5.58941H124.267V14.3761H138.748V16.6997H124.267V26.4304H140V28.7903H121.137Z" fill="var(--fill-0, #0052FF)"/>
</g>
<defs>
<clipPath id="clip0_0_10">
<rect width="140" height="32.5" fill="white"/>
</clipPath>
</defs>
</svg>
