<svg preserveAspectRatio="none" width="100%" height="100%" overflow="visible" style="display: block;" viewBox="0 0 191.245 29" fill="none" xmlns="http://www.w3.org/2000/svg">
<g id="image" clip-path="url(#clip0_0_21)">
<path id="Vector" d="M32.6495 12.1221C32.6775 14.7919 32.1198 17.4338 31.0163 19.8622C29.4429 23.3711 25.6687 26.2385 22.2256 23.1856C19.4161 20.6973 18.8943 15.646 14.685 14.9047C9.11391 14.2263 8.98122 20.7262 5.34163 21.4625C1.28699 22.2886 -0.0588977 15.4235 0.00196171 12.3057C0.0628211 9.1869 0.885919 4.80502 4.41078 4.80502C8.46541 4.80502 8.73878 10.9857 13.8869 10.6515C18.9851 10.3013 19.0749 3.87018 22.4062 1.11654C25.2796 -1.26296 28.6608 0.481012 30.3528 3.34539C31.9222 5.99328 32.6116 9.10209 32.6465 12.1201H32.6515L32.6495 12.1221ZM47.9472 22.6727V1.80296H49.9136V10.8281H62.0366V1.80296H63.9722V22.6717H62.0346V12.5082H49.9127V22.6727H47.9452H47.9472ZM69.1063 29.0001L71.7851 22.2836L65.9775 8.25106H68.0049L71.8171 17.7581C72.0355 18.3368 72.3438 19.108 72.7409 20.0658C72.7998 19.9261 72.8596 19.7714 72.9195 19.5998C72.9794 19.4312 73.0382 19.2766 73.0971 19.1369C73.2168 18.8765 73.3206 18.6321 73.4104 18.4026C73.4982 18.1781 73.582 17.9536 73.6638 17.7272L77.2395 8.25306H79.1741L71.0408 29.0001H69.1063ZM81.1365 29.0001V8.25106H82.9833V10.891C83.4602 9.99104 84.1486 9.25574 85.0535 8.68705C85.9594 8.11637 87.009 7.82006 88.0765 7.83203C89.4064 7.83203 90.5637 8.15628 91.5455 8.80578C92.5292 9.45528 93.2845 10.3552 93.8112 11.5065C94.338 12.6539 94.5994 13.9579 94.5994 15.4175C94.5994 16.8771 94.326 18.216 93.7803 19.3744C93.2346 20.5357 92.4653 21.4436 91.4726 22.1041C90.4789 22.7635 89.3475 23.0928 88.0765 23.0928C87.004 23.0928 86.0172 22.8334 85.1123 22.3126C84.2094 21.7938 83.5001 21.0355 82.9833 20.0348V29.0001H81.1365ZM87.8091 21.5942C88.7829 21.5942 89.6399 21.3338 90.3852 20.815C91.1294 20.2942 91.7001 19.5709 92.0982 18.6401C92.4943 17.7112 92.6938 16.6377 92.6938 15.4175C92.6938 14.1993 92.4893 13.1897 92.0822 12.2698C91.6752 11.3509 91.1055 10.6356 90.3692 10.1257C89.6349 9.61591 88.7809 9.3605 87.8091 9.3605C86.8354 9.3605 86.0053 9.61092 85.261 10.1118C84.5167 10.6096 83.9361 11.32 83.519 12.2398C83.103 13.1587 82.8935 14.2183 82.8935 15.4175C82.8935 16.6167 83.101 17.7112 83.519 18.6401C83.9361 19.5709 84.5127 20.2962 85.247 20.815C85.9813 21.3338 86.8354 21.5942 87.8091 21.5942ZM103.417 23.0928C102.067 23.0928 100.879 22.7935 99.8573 22.1928C98.8356 21.5942 98.0415 20.7133 97.4748 19.5559C96.9091 18.3956 96.6247 17.0068 96.6247 15.3886C96.6247 13.9479 96.9191 12.6559 97.5027 11.5045C98.0903 10.3552 98.8885 9.45528 99.9022 8.80578C100.916 8.15628 102.096 7.81806 103.297 7.83203C104.648 7.83203 105.8 8.14231 106.752 8.76088C107.705 9.38145 108.429 10.2554 108.926 11.3838C109.423 12.5142 109.672 13.8272 109.672 15.3277V15.7178H98.4725C98.4725 16.9559 98.68 18.0165 99.098 18.8955C99.5141 19.7744 100.101 20.4449 100.854 20.9048C101.61 21.3648 102.474 21.5942 103.446 21.5942C104.598 21.5942 105.556 21.3199 106.319 20.7701C107.086 20.2204 107.556 19.3953 107.735 18.2949H109.583C109.457 19.1798 109.125 20.0229 108.613 20.7542C108.107 21.4735 107.413 22.0442 106.529 22.4642C105.646 22.8823 104.609 23.0928 103.417 23.0928ZM107.705 14.3081C107.686 12.8085 107.29 11.6093 106.514 10.7104C105.74 9.81046 104.667 9.3605 103.297 9.3605C101.928 9.3605 100.871 9.82642 100.006 10.7563C99.1429 11.6851 98.6511 12.8694 98.5323 14.3081H107.705ZM112.526 22.6727V8.25106H114.373V11.1284C114.762 10.1806 115.406 9.3605 116.234 8.76088C117.078 8.14231 118.067 7.83203 119.199 7.83203C119.476 7.83203 119.744 7.85298 120.003 7.89189V9.69173C119.706 9.65382 119.408 9.63387 119.109 9.63087C118.156 9.63087 117.321 9.84637 116.607 10.2754C115.886 10.7114 115.312 11.3529 114.954 12.1191C114.566 12.9193 114.373 13.8481 114.373 14.9077V22.6727H112.526ZM137.562 1.15645C138.434 1.15645 139.424 1.08063 140.531 0.930972L140.244 6.5899H139.797C139.733 5.00257 139.424 3.85721 138.871 3.14985C138.317 2.42153 137.328 2.05637 135.902 2.05637H129.134L127.218 11.1544H132.709C133.795 11.1544 134.582 10.9299 135.072 10.4789C135.583 10.008 135.976 9.22581 136.253 8.13233H136.7L135.232 15.0444H134.785C134.852 14.6613 134.894 14.2751 134.912 13.887C134.912 13.2655 134.731 12.8055 134.37 12.5042C134.007 12.2039 133.39 12.0543 132.518 12.0543H127.027L125.43 19.5769C125.366 19.8991 125.334 20.1885 125.334 20.4449C125.334 20.8948 125.451 21.2281 125.686 21.4416C125.919 21.6351 126.292 21.7309 126.803 21.7309H132.135C133.56 21.7309 134.699 21.3777 135.551 20.6704C136.402 19.963 137.2 18.8057 137.945 17.1984H138.392L136.285 22.8563C135.334 22.7097 134.375 22.6348 133.412 22.6308H119.875L119.971 22.1809C121.013 22.138 121.791 21.9464 122.301 21.6022C122.833 21.26 123.205 20.5856 123.419 19.5769L126.675 4.17847C126.739 3.81331 126.771 3.515 126.771 3.27855C126.771 2.65599 126.569 2.23795 126.164 2.02445C125.781 1.78799 125.164 1.65031 124.313 1.60641L124.409 1.15645H137.562ZM164.799 1.15645L164.703 1.60641C163.682 1.62736 162.863 1.85284 162.245 2.28185C161.65 2.71086 161.022 3.45015 160.361 4.49973L149.123 23.1137H148.676L145.228 4.53165C145.037 3.48208 144.74 2.74279 144.335 2.31378C143.93 1.88477 143.281 1.65031 142.387 1.60641L142.483 1.15645H149.858L149.762 1.60641C148.017 1.67126 147.144 2.33473 147.144 3.59981C147.144 3.83626 147.176 4.10264 147.24 4.40295L150.049 19.963L159.404 4.4678C159.83 3.73948 160.042 3.1708 160.042 2.76374C160.042 2.37763 159.862 2.10027 159.499 1.92767C159.159 1.73511 158.617 1.62736 157.871 1.60641L157.967 1.15645H164.799ZM191.149 1.60641C190.128 1.62736 189.351 1.81094 188.819 2.15315C188.287 2.49536 187.936 3.09697 187.765 3.95299L184.381 19.9311C184.317 20.1885 184.285 20.4239 184.285 20.6384C184.285 21.1523 184.477 21.5284 184.86 21.7628C185.264 21.9773 185.913 22.117 186.807 22.1809L186.712 22.6308H178.922L179.017 22.1809C180.082 22.0961 180.858 21.9035 181.348 21.6022C181.859 21.281 182.199 20.7252 182.37 19.9311L185.69 4.14654L172.888 23.1137H172.441L167.939 4.14654L164.619 19.9311C164.555 20.2104 164.523 20.4569 164.523 20.6704C164.523 21.1842 164.714 21.5493 165.098 21.7628C165.481 21.9773 166.098 22.117 166.949 22.1809L166.853 22.6308H160.277L160.372 22.1809C161.437 22.0961 162.213 21.9035 162.703 21.6022C163.193 21.281 163.533 20.7252 163.725 19.9311L167.077 3.95299C167.141 3.65268 167.173 3.39528 167.173 3.18177C167.173 2.62406 166.97 2.23795 166.566 2.02445C166.183 1.78799 165.565 1.65031 164.714 1.60641L164.81 1.15645H169.248L173.75 20.1885L186.648 1.15645H191.245L191.149 1.60641Z" fill="var(--fill-0, #072723)"/>
</g>
<defs>
<clipPath id="clip0_0_21">
<rect width="191.245" height="29" fill="white"/>
</clipPath>
</defs>
</svg>
