<svg preserveAspectRatio="none" width="100%" height="100%" overflow="visible" style="display: block;" viewBox="0 0 21 14.7635" fill="none" xmlns="http://www.w3.org/2000/svg">
<g id="image" clip-path="url(#clip0_0_4)">
<path id="Vector" d="M20.5576 2.31073C20.3196 1.39946 19.6036 0.684473 18.7005 0.442416C17.0661 0 10.5 0 10.5 0C10.5 0 3.93292 0 2.29548 0.442416C1.39132 0.684473 0.680405 1.39946 0.438348 2.31073C0 3.96038 0 7.39699 0 7.39699C0 7.39699 0 10.8346 0.438348 12.4832C0.680405 13.3915 1.39132 14.079 2.29548 14.321C3.93292 14.7635 10.5 14.7635 10.5 14.7635C10.5 14.7635 17.0661 14.7635 18.7045 14.321C19.6077 14.079 20.3196 13.3915 20.5617 12.4832C21 10.8346 21 7.39699 21 7.39699C21 7.39699 21 3.96038 20.5617 2.31073H20.5576ZM8.35098 10.5193V4.27567L13.8369 7.39699L8.35098 10.5193Z" fill="var(--fill-0, black)"/>
</g>
<defs>
<clipPath id="clip0_0_4">
<rect width="21" height="14.7635" fill="white"/>
</clipPath>
</defs>
</svg>
